<svg width="34" height="24" viewBox="0 0 34 24" fill="none" xmlns="http://www.w3.org/2000/svg">
<path fill-rule="evenodd" clip-rule="evenodd" d="M15.8385 19.3H18.4346C22.487 19.3 25.7163 16.085 25.8429 12.1135V12.0505C25.7796 8.01596 22.487 4.7379 18.4346 4.80094H15.5219C11.6594 4.92702 8.6201 8.20508 8.74674 12.1135C8.74674 16.022 11.9127 19.237 15.8385 19.3ZM10.0131 12.0505C10.0131 8.77241 12.7359 6.06171 16.0284 6.06171C19.321 6.06171 22.0438 8.77241 22.0438 12.0505C22.0438 15.3285 19.321 18.0392 16.0284 18.0392C12.7359 18.0392 10.0131 15.3285 10.0131 12.0505ZM16.9782 16.085V8.07898C19.1944 8.64634 20.5874 10.8527 20.0176 13.0591C19.6376 14.5721 18.4979 15.7068 16.9782 16.085ZM12.1027 11.0418C11.5328 13.2482 12.8625 15.5177 15.0787 16.085V8.07898C13.6223 8.45722 12.4826 9.59193 12.1027 11.0418Z" fill="#0079BE"/>
</svg>
