<svg width="34" height="24" viewBox="0 0 34 24" fill="none" xmlns="http://www.w3.org/2000/svg">
<path d="M7.82406 9.49573C8.11175 9.40141 8.41952 9.35019 8.73975 9.35019C10.1373 9.35019 11.3031 10.3241 11.5705 11.6178L13.5509 11.2216C13.0965 9.0229 11.1154 7.3678 8.73975 7.3678C8.19585 7.3678 7.67231 7.45472 7.18359 7.61484L7.82406 9.49573Z" fill="#FECA2F"/>
<path d="M5.46727 15.8677L6.65306 14.3366C6.12376 13.8012 5.78968 13.0196 5.78968 12.1484C5.78968 11.2778 6.12344 10.4962 6.6526 9.96122L5.46618 8.4303C4.56678 9.33989 4 10.6686 4 12.1484C4 13.629 4.56761 14.9581 5.46727 15.8677Z" fill="#1BA7DE"/>
<path d="M11.5711 12.6802C11.3028 13.9737 10.1377 14.9463 8.74142 14.9463C8.42105 14.9463 8.11268 14.8949 7.82497 14.8003L7.18359 16.6822C7.67307 16.8431 8.19677 16.9301 8.74142 16.9301C11.1149 16.9301 13.0947 15.2762 13.5509 13.0783L11.5711 12.6802Z" fill="#EC412A"/>
<path fill-rule="evenodd" clip-rule="evenodd" d="M23.0796 8.4303V13.8716L24.056 14.263L23.5941 15.3362L22.6285 14.948C22.4114 14.857 22.2644 14.7183 22.1528 14.5616C22.0456 14.4013 21.9661 14.1822 21.9661 13.8865V8.4303H23.0796ZM15.6739 12.4744C15.6982 10.9184 17.0233 9.67627 18.6313 9.70011C19.9961 9.72081 21.1268 10.6452 21.4238 11.8746L16.1454 14.0562C15.8388 13.6029 15.6646 13.0576 15.6739 12.4744ZM16.8817 12.6926C16.8745 12.6273 16.8693 12.5603 16.8713 12.4928C16.8864 11.576 17.6666 10.8445 18.6139 10.8597C19.1296 10.8663 19.5875 11.0947 19.897 11.4481L16.8817 12.6926ZM19.7859 13.7028C19.4677 14.002 19.0363 14.1843 18.56 14.1778C18.2335 14.1725 17.931 14.078 17.6738 13.9205L17.0361 14.903C17.4728 15.1699 17.9878 15.3278 18.5429 15.3361C19.3509 15.3478 20.0874 15.0408 20.6229 14.534L19.7859 13.7028ZM27.1435 10.8596C26.9533 10.8596 26.7705 10.8894 26.5997 10.9448L26.2198 9.84383C26.5098 9.75019 26.8203 9.69933 27.1435 9.69933C28.5538 9.69933 29.7303 10.6681 30.0001 11.9549L28.824 12.1868C28.6655 11.4294 27.9733 10.8596 27.1435 10.8596ZM25.2124 14.629L26.0071 13.76C25.6522 13.4561 25.4287 13.0123 25.4287 12.5176C25.4287 12.0235 25.6522 11.5799 26.0068 11.2763L25.2115 10.4072C24.6086 10.9236 24.2287 11.678 24.2287 12.5176C24.2287 13.3583 24.6089 14.1125 25.2124 14.629ZM27.1434 14.1763C27.9725 14.1763 28.6645 13.607 28.8239 12.8507L29.9997 13.0836C29.7286 14.369 28.5525 15.3364 27.1434 15.3364C26.82 15.3364 26.5091 15.2854 26.2183 15.1913L26.5991 14.0908C26.7702 14.146 26.9531 14.1763 27.1434 14.1763Z" fill="white"/>
</svg>
