<svg width="34" height="24" viewBox="0 0 34 24" fill="none" xmlns="http://www.w3.org/2000/svg">
<path fill-rule="evenodd" clip-rule="evenodd" d="M16.0579 15.5279V12.5933H17.5725C18.1931 12.5933 18.717 12.3853 19.1441 11.9752L19.2466 11.8712C20.0266 11.022 19.9754 9.69908 19.1441 8.91343C18.7284 8.49749 18.159 8.27219 17.5725 8.28375H15.1411V15.5279H16.0579ZM16.058 11.7036V9.17333H17.5956C17.9259 9.17333 18.2391 9.30042 18.4726 9.5315C18.9681 10.0168 18.9795 10.8255 18.5011 11.3281C18.2676 11.5765 17.9373 11.7152 17.5956 11.7036H16.058ZM23.5228 10.9584C23.1299 10.5945 22.5947 10.4096 21.9171 10.4096C21.0459 10.4096 20.3911 10.7331 19.9583 11.3744L20.7669 11.8885C21.063 11.4495 21.4673 11.2299 21.9797 11.2299C22.3043 11.2299 22.6175 11.3512 22.8623 11.5708C23.1015 11.7787 23.2381 12.0791 23.2381 12.3969V12.6106C22.8851 12.4142 22.441 12.3102 21.8943 12.3102C21.2566 12.3102 20.7441 12.4604 20.3626 12.7666C19.9811 13.0728 19.7875 13.4771 19.7875 13.9913C19.7761 14.4592 19.9754 14.904 20.3285 15.2044C20.6872 15.5279 21.1427 15.6897 21.6779 15.6897C22.31 15.6897 22.8111 15.4066 23.1926 14.8405H23.2324V15.5279H24.1093V12.472C24.1093 11.8307 23.9157 11.3224 23.5228 10.9584ZM21.0347 14.6152C20.8467 14.4765 20.7328 14.2513 20.7328 14.0086C20.7328 13.7371 20.8581 13.5118 21.103 13.3327C21.3536 13.1536 21.6668 13.0612 22.037 13.0612C22.5495 13.0554 22.9482 13.171 23.2329 13.4021C23.2329 13.7949 23.0792 14.1357 22.7773 14.4246C22.504 14.7018 22.1338 14.8578 21.7465 14.8578C21.4903 14.8636 21.2397 14.7769 21.0347 14.6152ZM26.0795 17.7058L29.1429 10.5714H28.1464L26.7286 14.1299H26.7115L25.2595 10.5714H24.2631L26.2731 15.2102L25.1343 17.7058H26.0795Z" fill="white"/>
<path d="M12.8929 11.9578C12.8929 11.6747 12.8701 11.3917 12.8245 11.1144H8.95825V12.7146H11.1733C11.0821 13.2287 10.7861 13.6909 10.3533 13.9797V15.0195H11.6743C12.4487 14.2974 12.8929 13.2287 12.8929 11.9578Z" fill="#4285F4"/>
<path d="M8.95842 16.0247C10.0631 16.0247 10.9969 15.655 11.6745 15.0196L10.3535 13.9797C9.98335 14.2339 9.51074 14.3783 8.95842 14.3783C7.88793 14.3783 6.98257 13.6447 6.65801 12.6626H5.29712V13.7371C5.9918 15.1409 7.40962 16.0247 8.95842 16.0247Z" fill="#34A853"/>
<path d="M6.65822 12.6626C6.48737 12.1485 6.48737 11.5882 6.65822 11.0682V9.99951H5.29712C4.71053 11.1722 4.71053 12.5587 5.29712 13.7314L6.65822 12.6626Z" fill="#FBBC04"/>
<path d="M8.95842 9.35247C9.54491 9.34092 10.1086 9.56621 10.53 9.97637L11.703 8.78634C10.957 8.08156 9.97766 7.69451 8.95842 7.70606C7.40962 7.70606 5.9918 8.5957 5.29712 9.99948L6.65801 11.074C6.98257 10.0861 7.88793 9.35247 8.95842 9.35247Z" fill="#EA4335"/>
</svg>
