<svg width="34" height="24" viewBox="0 0 34 24" fill="none" xmlns="http://www.w3.org/2000/svg">
<path fill-rule="evenodd" clip-rule="evenodd" d="M17.179 16.8295C15.9949 17.8275 14.459 18.43 12.7807 18.43C9.03582 18.43 6 15.4303 6 11.73C6 8.02972 9.03582 5.03003 12.7807 5.03003C14.459 5.03003 15.9949 5.63253 17.179 6.63057C18.363 5.63253 19.8989 5.03003 21.5773 5.03003C25.3221 5.03003 28.358 8.02972 28.358 11.73C28.358 15.4303 25.3221 18.43 21.5773 18.43C19.8989 18.43 18.363 17.8275 17.179 16.8295Z" fill="#ED0006"/>
<path fill-rule="evenodd" clip-rule="evenodd" d="M17.179 16.8295C18.6369 15.6006 19.5614 13.772 19.5614 11.73C19.5614 9.68807 18.6369 7.85947 17.179 6.63057C18.363 5.63253 19.8989 5.03003 21.5772 5.03003C25.3221 5.03003 28.3579 8.02972 28.3579 11.73C28.3579 15.4303 25.3221 18.43 21.5772 18.43C19.8989 18.43 18.363 17.8275 17.179 16.8295Z" fill="#F9A000"/>
<path fill-rule="evenodd" clip-rule="evenodd" d="M17.179 16.8295C18.6369 15.6006 19.5614 13.772 19.5614 11.7301C19.5614 9.68811 18.6369 7.85952 17.179 6.63062C15.7211 7.85952 14.7966 9.68811 14.7966 11.7301C14.7966 13.772 15.7211 15.6006 17.179 16.8295Z" fill="#FF5E00"/>
</svg>
