<svg width="34" height="24" viewBox="0 0 34 24" fill="none" xmlns="http://www.w3.org/2000/svg">
<path fill-rule="evenodd" clip-rule="evenodd" d="M14.614 18.4483L14.8347 16.9992L14.3431 16.9873H11.9951L13.6268 6.2937C13.6319 6.26132 13.6484 6.23126 13.6724 6.20987C13.6965 6.18849 13.7272 6.17676 13.7594 6.17676H17.7184C19.0328 6.17676 19.9398 6.45939 20.4133 7.01734C20.6353 7.27908 20.7767 7.55267 20.8452 7.85364C20.9169 8.16951 20.9181 8.54685 20.8481 9.00715L20.843 9.04063V9.33561L21.0651 9.46563C21.252 9.56815 21.4006 9.68546 21.5145 9.81975C21.7044 10.0436 21.8272 10.3281 21.8791 10.6652C21.9328 11.012 21.9151 11.4248 21.8272 11.892C21.7259 12.4295 21.5622 12.8976 21.341 13.2805C21.1376 13.6334 20.8785 13.9262 20.5708 14.153C20.277 14.3686 19.928 14.5322 19.5333 14.6369C19.1509 14.7398 18.7149 14.7917 18.2367 14.7917H17.9286C17.7083 14.7917 17.4943 14.8737 17.3263 15.0207C17.1579 15.1708 17.0465 15.3758 17.0123 15.6L16.989 15.7305L16.599 18.2848L16.5814 18.3785C16.5767 18.4082 16.5686 18.423 16.5568 18.433C16.5463 18.4422 16.5311 18.4483 16.5164 18.4483H14.614Z" fill="#28356A"/>
<path fill-rule="evenodd" clip-rule="evenodd" d="M21.2756 9.07458C21.2639 9.15267 21.2503 9.23246 21.2352 9.31445C20.7131 12.0851 18.9268 13.0422 16.6456 13.0422H15.484C15.205 13.0422 14.9698 13.2516 14.9265 13.536L14.1633 18.5393C14.1351 18.7261 14.2743 18.8944 14.4566 18.8944H16.5168C16.7607 18.8944 16.968 18.7112 17.0064 18.4626L17.0266 18.3544L17.4145 15.8102L17.4394 15.6707C17.4774 15.4211 17.6851 15.2378 17.929 15.2378H18.2371C20.2331 15.2378 21.7957 14.4003 22.2524 11.9765C22.4431 10.964 22.3443 10.1185 21.8395 9.52389C21.6868 9.34464 21.4973 9.1958 21.2756 9.07458Z" fill="#298FC2"/>
<path fill-rule="evenodd" clip-rule="evenodd" d="M20.7291 8.84956C20.6493 8.82549 20.567 8.80374 20.4826 8.78407C20.3977 8.76488 20.3108 8.7479 20.2213 8.73299C19.9081 8.68069 19.5649 8.65588 19.1974 8.65588H16.0943C16.0178 8.65588 15.9452 8.67372 15.8803 8.70598C15.7372 8.7771 15.6309 8.91714 15.6051 9.08857L14.9449 13.4101L14.926 13.5361C14.9694 13.2516 15.2046 13.0423 15.4836 13.0423H16.6451C18.9264 13.0423 20.7126 12.0847 21.2347 9.31451C21.2503 9.23252 21.2634 9.15273 21.2751 9.07464C21.1431 9.00218 21 8.94023 20.846 8.88744C20.8079 8.87437 20.7687 8.86178 20.7291 8.84956Z" fill="#22284F"/>
<path fill-rule="evenodd" clip-rule="evenodd" d="M15.6054 9.08862C15.6312 8.91718 15.7374 8.77715 15.8806 8.70652C15.946 8.67414 16.0181 8.6563 16.0946 8.6563H19.1976C19.5652 8.6563 19.9084 8.68123 20.2216 8.73353C20.3111 8.74831 20.398 8.76542 20.4829 8.7846C20.5673 8.80415 20.6495 8.82603 20.7294 8.84998C20.769 8.8622 20.8082 8.8749 20.8466 8.88749C21.0007 8.94028 21.1438 9.00272 21.2759 9.07469C21.4312 8.05082 21.2746 7.3537 20.739 6.72245C20.1485 6.0274 19.0828 5.72998 17.7191 5.72998H13.76C13.4815 5.72998 13.2439 5.9393 13.2008 6.22426L11.5518 17.0279C11.5193 17.2416 11.6788 17.4344 11.8873 17.4344H14.3315L15.6054 9.08862Z" fill="#28356A"/>
</svg>
