<svg width="15" height="14" viewBox="0 0 15 14" fill="none" xmlns="http://www.w3.org/2000/svg">
<path fill-rule="evenodd" clip-rule="evenodd" d="M14.3879 13.7142H11.6532V8.92919C11.6532 7.61654 11.0741 6.88418 10.0356 6.88418C8.90551 6.88418 8.23483 7.64731 8.23483 8.92919V13.7142H5.50013V4.82649H8.23483V5.82596C8.23483 5.82596 9.09283 4.32041 11.0263 4.32041C12.9604 4.32041 14.3879 5.50066 14.3879 7.94274V13.7142ZM2.38395 3.40506C1.46167 3.40506 0.714417 2.65169 0.714417 1.72258C0.714417 0.794153 1.46167 0.0407715 2.38395 0.0407715C3.30554 0.0407715 4.05279 0.794153 4.05279 1.72258C4.05347 2.65169 3.30554 3.40506 2.38395 3.40506ZM0.714417 13.7142H4.13278V4.82649H0.714417V13.7142Z" fill="white"/>
</svg>
