<svg width="18" height="14" viewBox="0 0 18 14" fill="none" xmlns="http://www.w3.org/2000/svg">
<path fill-rule="evenodd" clip-rule="evenodd" d="M6.07876 13.7142C12.2704 13.7142 15.657 8.45293 15.657 3.8909C15.657 3.74113 15.657 3.59249 15.6472 3.4444C16.306 2.95639 16.8745 2.35047 17.3266 1.65716C16.7129 1.93651 16.0607 2.1197 15.3937 2.20047C16.0959 1.76884 16.6218 1.09072 16.8737 0.290551C16.2124 0.692735 15.4897 0.976581 14.7357 1.12888C13.4608 -0.261106 11.3286 -0.328452 9.97242 0.979074C9.09869 1.82215 8.72704 3.07916 8.9986 4.27814C6.29207 4.13847 3.77013 2.8276 2.0604 0.671116C1.16698 2.24872 1.62395 4.26617 3.10314 5.27921C2.56742 5.26322 2.04318 5.1153 1.57472 4.84774V4.89155C1.57554 6.5348 2.70525 7.94972 4.27551 8.27533C3.77998 8.41416 3.25984 8.43429 2.75611 8.33417C3.19667 9.74098 4.46092 10.7045 5.90073 10.7323C4.70868 11.6932 3.23605 12.2149 1.71993 12.2133C1.45248 12.2124 1.18503 12.1964 0.918396 12.1636C2.4583 13.1766 4.24925 13.7143 6.07876 13.7117" fill="white"/>
</svg>
