<svg width="65" height="64" viewBox="0 0 65 64" fill="none" xmlns="http://www.w3.org/2000/svg">
<path d="M18.3294 56.0179C18.2577 56.0179 18.1739 56.0064 18.1022 55.9948C17.8151 55.937 17.5639 55.7636 17.4084 55.5209L12.7073 48.2971C12.5518 48.066 12.5039 47.777 12.5637 47.4996C12.6235 47.2222 12.803 46.9911 13.0422 46.8408L21.3797 41.8015C23.6166 40.4492 26.1885 39.7442 28.8201 39.7442H31.679C32.5762 39.7442 33.4614 39.9638 34.2389 40.3683C35.0762 40.8075 36.715 41.5357 38.294 41.5357H45.0047C45.8181 41.5357 46.5478 41.8593 47.0622 42.391L52.5527 38.7617C53.5336 38.1145 54.8255 38.2069 55.6988 38.9929C56.2131 39.4552 56.5122 40.114 56.5002 40.7959C56.4882 41.4779 56.1892 42.1251 55.6629 42.5874L48.0191 49.1871C47.9354 49.268 47.8277 49.3258 47.7201 49.372L44.3947 50.7243C40.8419 52.1691 37.0859 52.9088 33.2341 52.9088H25.6382C24.2147 52.9088 22.8391 53.3133 21.6429 54.0762L18.9275 55.8214C18.7481 55.9601 18.5448 56.0179 18.3294 56.0179ZM15.1236 48.0775L18.6524 53.4983L20.4347 52.3425C21.9778 51.3485 23.7721 50.8168 25.6263 50.8168H33.2221C36.7868 50.8168 40.2558 50.1349 43.5334 48.8057L46.6914 47.5227L54.1915 41.0387C54.2872 40.9578 54.3111 40.8537 54.3111 40.7959C54.3111 40.7381 54.2992 40.6341 54.2035 40.5532C54.0839 40.4492 53.9044 40.4376 53.7729 40.5185L47.8397 44.4483C47.7799 45.7312 46.799 46.8061 45.4712 47.0257L34.7533 48.7941C34.1671 48.8866 33.5929 48.5052 33.4973 47.9388C33.4016 47.3609 33.7963 46.8177 34.3824 46.7252L45.1004 44.9568C45.4234 44.8991 45.6626 44.6332 45.6626 44.3212C45.6626 43.9629 45.3636 43.6739 44.9928 43.6739H38.2821C36.3322 43.6739 34.4423 42.8995 33.1862 42.2523C32.7317 42.0095 32.2054 41.8824 31.6671 41.8824H28.8082C26.5832 41.8824 24.4061 42.4834 22.5161 43.6277L15.1236 48.0775Z" fill="#231F20"/>
<path d="M15.5776 58.9997C15.2068 58.9997 14.8479 58.8148 14.6446 58.4796L8.65162 48.7246C8.49611 48.4703 8.46023 48.1698 8.54396 47.8924C8.62769 47.615 8.83104 47.3838 9.09421 47.2452L12.3479 45.6386C12.8503 45.3959 13.4603 45.5577 13.7594 46.02L20.0036 55.6248C20.171 55.879 20.2069 56.1795 20.1351 56.4569C20.0514 56.7459 19.86 56.977 19.5849 57.1157L16.0681 58.8726C15.9126 58.965 15.7451 58.9997 15.5776 58.9997ZM11.1158 48.6206L15.9843 56.561L17.5394 55.7866L12.4555 47.9617L11.1158 48.6206Z" fill="#231F20"/>
<path d="M19.6798 45.1304C19.4166 45.1304 19.1415 45.038 18.9382 44.8415C18.8185 44.7375 15.9716 42.1022 15.9955 36.9936C16.0194 30.4633 20.553 23.1239 29.4647 15.1719C29.6681 14.987 29.9312 14.8945 30.2064 14.8945H33.5677C34.1658 14.8945 34.6562 15.3684 34.6562 15.9463C34.6562 16.5242 34.1658 16.9981 33.5677 16.9981H30.637C20.3736 26.2446 18.1965 32.9714 18.1846 37.0051C18.1726 41.2123 20.4214 43.2927 20.4454 43.3043C20.888 43.6973 20.9119 44.3676 20.4932 44.7953C20.254 45.0264 19.9669 45.1304 19.6798 45.1304Z" fill="#231F20"/>
<path d="M47.42 45.1304C47.133 45.1304 46.8339 45.0149 46.6305 44.7953C46.2238 44.3676 46.2478 43.7088 46.6784 43.3158C46.7741 43.2234 48.9871 41.1198 48.9392 36.9242C48.9033 32.902 46.6904 26.1983 36.4868 16.9981H33.5561C32.958 16.9981 32.4675 16.5242 32.4675 15.9463C32.4675 15.3684 32.958 14.8945 33.5561 14.8945H36.9174C37.1925 14.8945 37.4557 14.9986 37.659 15.1719C46.5707 23.1239 51.1043 30.4633 51.1283 36.9936C51.1402 42.1022 48.3052 44.7259 48.1856 44.8415C47.9583 45.038 47.6832 45.1304 47.42 45.1304Z" fill="#231F20"/>
<path d="M30.1954 17.0095C29.8126 17.0095 29.4298 16.813 29.2384 16.4547C27.5996 13.5305 24.9441 8.35252 25.5302 6.61881C26.1642 4.76952 28.3413 5.25496 29.9442 5.6017C30.7815 5.78663 31.7146 5.99467 32.3366 5.91377C32.7792 5.85598 33.3773 5.71728 34.0113 5.56702C36.32 5.03535 39.4779 4.29564 40.6861 6.44544C41.9062 8.6068 39.1191 14.1547 37.875 16.4432C37.5879 16.9517 36.93 17.1482 36.4037 16.8824C35.8774 16.605 35.674 15.9693 35.9491 15.4607C37.8391 12.0049 39.1908 8.19071 38.7722 7.45099C38.3535 6.71128 35.9491 7.27762 34.5137 7.61281C33.8199 7.77462 33.1739 7.92487 32.6117 7.99422C31.6069 8.12136 30.5184 7.87864 29.4538 7.64748C28.8915 7.52034 27.9824 7.32385 27.5997 7.35853C27.6116 8.43343 29.4059 12.3169 31.1524 15.4492C31.4394 15.9577 31.2361 16.5934 30.7098 16.8708C30.5423 16.9633 30.3629 17.0095 30.1954 17.0095Z" fill="#231F20"/>
<path d="M38.6527 17.0093H28.5329C27.9348 17.0093 27.4443 16.5355 27.4443 15.9575C27.4443 15.3796 27.9348 14.9058 28.5329 14.9058H38.6527C39.2508 14.9058 39.7413 15.3796 39.7413 15.9575C39.7413 16.5355 39.2508 17.0093 38.6527 17.0093Z" fill="#FD6C36"/>
<path d="M34.8487 23.5862C34.753 23.5862 34.6453 23.5746 34.5377 23.5399C33.9635 23.3781 33.6285 22.7886 33.796 22.2339C34.5735 19.6448 32.6357 16.5357 32.6118 16.501C32.2888 16.0041 32.4443 15.3568 32.9587 15.0563C33.473 14.7442 34.1429 14.8945 34.4539 15.3915C34.5616 15.5533 36.942 19.2981 35.8774 22.8233C35.7578 23.2856 35.3272 23.5862 34.8487 23.5862Z" fill="#FD6C36"/>
<path d="M38.1858 21.5058C37.9227 21.5058 37.6475 21.4134 37.4322 21.2169L33.1378 17.2871C32.7072 16.8826 32.6833 16.2238 33.102 15.7962C33.5206 15.3801 34.2025 15.3569 34.6451 15.7615L38.9394 19.6912C39.3701 20.0958 39.394 20.7546 38.9753 21.1822C38.76 21.3903 38.4729 21.5058 38.1858 21.5058Z" fill="#FD6C36"/>
<path d="M30.8889 34.647C30.8889 34.4159 30.9009 34.1963 30.9368 33.9882C30.9487 33.9189 30.9607 33.8495 30.9726 33.7802C31.0205 33.5259 31.2478 33.341 31.5109 33.341H31.8578C32.1569 33.341 32.4081 33.5837 32.4081 33.8727C32.4081 34.4737 32.5038 34.9244 32.6832 35.2365C32.8746 35.5486 33.1617 35.7104 33.5445 35.7104C33.8794 35.7104 34.1187 35.6295 34.2861 35.4677C34.4536 35.3059 34.5254 35.0747 34.5254 34.7626C34.5254 34.647 34.5134 34.5199 34.4895 34.3812C34.4656 34.2541 34.4177 34.1154 34.3579 33.9651C34.2981 33.8149 34.2144 33.6646 34.1187 33.4912C34.011 33.3179 33.8794 33.1445 33.7239 32.948L31.9655 30.7635C31.6545 30.3706 31.4033 29.9776 31.2238 29.5846C31.0444 29.1916 30.9607 28.7409 30.9607 28.2554C30.9607 27.9318 31.0085 27.6313 31.1042 27.3539C31.1999 27.0765 31.3435 26.8338 31.5229 26.6142C31.7023 26.4061 31.9296 26.2212 32.1808 26.0825C32.3243 26.0132 32.4679 25.9438 32.6354 25.8976C32.8985 25.8167 33.078 25.5855 33.078 25.3197V24.9267C33.078 24.5915 33.3531 24.3257 33.7 24.3257C34.0469 24.3257 34.322 24.5915 34.322 24.9267V25.3428C34.322 25.5971 34.5014 25.8282 34.7526 25.9091C34.9321 25.9669 35.0995 26.0363 35.2431 26.1287C35.4943 26.279 35.6857 26.4639 35.8412 26.672C35.9967 26.88 36.1043 27.1112 36.1642 27.3539C36.224 27.5966 36.2599 27.8393 36.2599 28.0821C36.2599 28.3132 36.2479 28.5328 36.212 28.7409C36.2 28.8102 36.1881 28.8911 36.1761 28.972C36.1283 29.2263 35.901 29.4112 35.6378 29.4112H35.3029C35.0038 29.4112 34.7526 29.1685 34.7526 28.8796C34.7526 28.2901 34.657 27.8509 34.4656 27.5388C34.2742 27.2268 33.999 27.0649 33.6402 27.0649C33.3172 27.0649 33.066 27.1574 32.8985 27.3308C32.7311 27.5042 32.6473 27.7353 32.6473 28.0358C32.6473 28.2901 32.6952 28.5097 32.8028 28.7178C32.9105 28.9258 33.0421 29.1338 33.2095 29.3419L35.1833 31.8038C35.3627 32.0349 35.5302 32.2545 35.6737 32.4741C35.8173 32.6937 35.9369 32.9018 36.0326 33.1214C36.1283 33.341 36.2 33.5606 36.2479 33.7802C36.2957 34.0114 36.3197 34.2425 36.3197 34.4968C36.3197 34.8204 36.2718 35.1094 36.1881 35.3752C36.0924 35.641 35.9608 35.8838 35.7933 36.0802C35.6259 36.2883 35.4105 36.4617 35.1713 36.6004C35.0397 36.6697 34.8962 36.7391 34.7526 36.7853C34.5134 36.8662 34.3459 37.0974 34.3459 37.3516V37.918C34.3459 38.2532 34.0708 38.519 33.7239 38.519C33.377 38.519 33.1019 38.2532 33.1019 37.918V37.4557C33.1019 37.1783 32.8985 36.9355 32.6114 36.8662C32.3961 36.82 32.2167 36.7506 32.0492 36.6697C31.7741 36.5195 31.5468 36.3461 31.3794 36.138C31.2119 35.93 31.0923 35.6873 31.0205 35.433C30.9248 35.1787 30.8889 34.9129 30.8889 34.647Z" fill="#231F20"/>
</svg>
