<svg width="65" height="64" viewBox="0 0 65 64" fill="none" xmlns="http://www.w3.org/2000/svg">
<path d="M33.7426 28.9959H22.9589C22.6352 28.9959 22.3232 28.8279 22.1267 28.5307C21.9302 28.2335 21.8609 27.8588 21.9533 27.5099C22.0342 27.1739 22.7855 24.2278 23.8257 22.8839C24.7388 21.708 28.2409 20.39 30.2058 19.731L30.6219 17.9736L32.6561 18.568L32.0898 20.9715C31.9973 21.3721 31.7199 21.6822 31.3616 21.7985C28.865 22.6125 25.8831 23.866 25.4207 24.4216C25.0856 24.8609 24.7157 25.7655 24.4267 26.6571H33.7657V28.9959H33.7426Z" fill="#231F20"/>
<path d="M44.5256 28.9956H33.7419V26.6439H43.0809C42.7919 25.7652 42.4221 24.8477 42.0869 24.4084C41.6246 23.8398 38.6426 22.5994 36.146 21.7853C35.7877 21.669 35.5219 21.3589 35.4179 20.9583L34.8515 18.5548L36.8857 17.9604L37.3018 19.7178C39.2667 20.3768 42.7688 21.6948 43.6819 22.8707C44.7221 24.2146 45.4734 27.1737 45.5543 27.4967C45.6468 27.8456 45.5774 28.2332 45.3809 28.5175C45.1613 28.8276 44.8608 28.9956 44.5256 28.9956Z" fill="#231F20"/>
<path d="M33.7424 20.9067C31.8699 20.9067 30.09 19.2527 29.0035 16.552C28.0673 16.2161 27.3623 15.4537 27.0733 14.407C26.7613 13.257 27.004 11.9777 27.6744 11.3058C27.8015 11.1766 27.9402 11.0732 28.0905 10.9957C28.3679 7.3776 30.5754 5 33.7539 5C36.9324 5 39.1284 7.3776 39.4174 10.9957C39.5676 11.0732 39.7063 11.1766 39.8335 11.3058C40.5038 11.9777 40.7466 13.257 40.4345 14.407C40.1455 15.4537 39.4405 16.229 38.5043 16.552C37.3947 19.2527 35.6148 20.9067 33.7424 20.9067ZM29.8473 14.3553H29.882C30.2749 14.407 30.5986 14.6913 30.7488 15.0919C31.4654 17.1594 32.679 18.542 33.7539 18.542C34.8404 18.542 36.0424 17.1594 36.759 15.0919C36.8977 14.6784 37.2329 14.3941 37.6259 14.3553C37.6374 14.3553 37.649 14.3553 37.6605 14.3553C38.0304 14.2907 38.2616 14.1228 38.3771 13.8126C38.4696 13.58 38.4696 13.3345 38.4465 13.1795C38.1922 13.1924 37.9495 13.1019 37.7415 12.9339C37.4756 12.7014 37.3254 12.3525 37.3369 11.9777V11.9261C37.3369 11.8744 37.3369 11.8356 37.3369 11.7839C37.3369 9.0445 35.9615 7.33884 33.7539 7.33884C31.5463 7.33884 30.1709 9.0445 30.1709 11.7839C30.1709 11.8356 30.1709 11.8873 30.1709 11.939V11.9777C30.1825 12.3525 30.0322 12.7014 29.7664 12.9339C29.5583 13.1149 29.3156 13.1924 29.0613 13.1795C29.0382 13.3345 29.0382 13.58 29.1307 13.8126C29.2463 14.1228 29.4774 14.3037 29.8473 14.3553Z" fill="#231F20"/>
<path d="M17.3182 58.9998H6.54603C6.2224 58.9998 5.91033 58.8318 5.71385 58.5346C5.51736 58.2374 5.44801 57.8627 5.54048 57.5138C5.62138 57.1778 6.37266 54.2317 7.41289 52.8878C8.32597 51.7119 11.8281 50.3939 13.7929 49.7349L14.209 47.9775L16.2433 48.5719L15.6769 50.9754C15.5844 51.376 15.3071 51.6861 14.9488 51.8024C12.4522 52.6164 9.47022 53.8698 9.0079 54.4255C8.67271 54.8648 8.30286 55.7693 8.01391 56.6609H17.3528V58.9998H17.3182Z" fill="#231F20"/>
<path d="M28.102 59H17.3184V56.6483H26.6573C26.3683 55.7696 25.9985 54.8521 25.6633 54.4128C25.201 53.8442 22.219 52.6038 19.7224 51.7897C19.3641 51.6734 19.0983 51.3633 18.9943 50.9627L18.4279 48.5593L20.4622 47.9648L20.8782 49.7222C22.8431 50.3812 26.3452 51.6992 27.2583 52.8751C28.2985 54.219 29.0498 57.1781 29.1307 57.5011C29.2232 57.85 29.1538 58.2376 28.9573 58.5219C28.7377 58.832 28.4372 59 28.102 59Z" fill="#231F20"/>
<path d="M17.3185 50.8979C15.4461 50.8979 13.6662 49.2439 12.5797 46.5432C11.6435 46.2073 10.9385 45.4449 10.6495 44.3982C10.3375 43.2482 10.5802 41.9689 11.2505 41.297C11.3777 41.1678 11.5164 41.0644 11.6666 40.9869C11.944 37.3688 14.1516 34.9912 17.3301 34.9912C20.5086 34.9912 22.7046 37.3688 22.9935 40.9869C23.1438 41.0644 23.2825 41.1678 23.4096 41.297C24.08 41.9689 24.3227 43.2482 24.0107 44.3982C23.7217 45.4449 23.0167 46.2202 22.0805 46.5432C20.9709 49.2439 19.1909 50.8979 17.3185 50.8979ZM13.4235 44.3595H13.4581C13.8511 44.4112 14.1747 44.6954 14.325 45.096C15.0416 47.1635 16.2436 48.5461 17.3301 48.5461C18.4165 48.5461 19.6186 47.1635 20.3352 45.096C20.4739 44.6825 20.8091 44.3982 21.202 44.3595C21.2136 44.3595 21.2252 44.3595 21.2367 44.3595C21.6066 44.2949 21.8377 44.1269 21.9533 43.8168C22.0458 43.5842 22.0458 43.3386 22.0227 43.1836C21.7684 43.1965 21.5141 43.1061 21.3176 42.9381C21.0518 42.7055 20.9015 42.3566 20.9131 41.9819V41.9431C20.9131 41.8914 20.9131 41.8397 20.9131 41.788C20.9131 39.0486 19.5377 37.343 17.3301 37.343C15.1225 37.343 13.7471 39.0486 13.7471 41.788C13.7471 41.8397 13.7471 41.8914 13.7471 41.9431V41.9819C13.7586 42.3566 13.6084 42.7055 13.3426 42.9381C13.1345 43.119 12.8802 43.2094 12.6375 43.1836C12.6144 43.3386 12.6144 43.5842 12.7069 43.8168C12.8224 44.1269 13.0536 44.2949 13.4235 44.3595Z" fill="#231F20"/>
<path d="M48.6403 59.0003H37.8566C37.533 59.0003 37.2209 58.8323 37.0244 58.5351C36.8279 58.2379 36.7586 57.8632 36.851 57.5143C36.9319 57.1783 37.6832 54.2322 38.7234 52.8883C39.6365 51.7124 43.1386 50.3944 45.1035 49.7354L45.5196 47.978L47.5538 48.5724L46.9875 50.9759C46.895 51.3764 46.6176 51.6866 46.2593 51.8029C43.7627 52.6169 40.7808 53.8703 40.3184 54.426C39.9833 54.8653 39.6134 55.7698 39.3244 56.6614H48.6634V59.0003H48.6403Z" fill="#231F20"/>
<path d="M59.4126 59H48.6289V56.6483H57.9678C57.6789 55.7696 57.309 54.8521 56.9738 54.4128C56.5115 53.8442 53.5295 52.6038 51.033 51.7897C50.6747 51.6734 50.4088 51.3633 50.3048 50.9627L49.7385 48.5593L51.7727 47.9648L52.1888 49.7222C54.1537 50.3812 57.6558 51.6992 58.5688 52.8751C59.6091 54.219 60.3604 57.1781 60.4413 57.5011C60.5337 57.85 60.4644 58.2376 60.2679 58.5219C60.0483 58.832 59.7478 59 59.4126 59Z" fill="#231F20"/>
<path d="M48.6401 50.8981C46.7677 50.8981 44.9877 49.2441 43.9013 46.5435C42.965 46.2075 42.26 45.4451 41.9711 44.3856C41.659 43.2355 41.9017 41.9563 42.5721 41.2843C42.6992 41.1551 42.8379 41.0517 42.9882 40.9742C43.2656 37.3561 45.4731 34.9785 48.6516 34.9785C51.8301 34.9785 54.0261 37.3561 54.3151 40.9742C54.4653 41.0517 54.604 41.1551 54.7312 41.2843C55.4015 41.9563 55.6443 43.2355 55.3322 44.3856C55.0432 45.4322 54.3382 46.2075 53.402 46.5306C52.2924 49.2441 50.5009 50.8981 48.6401 50.8981ZM44.7334 44.3597H44.7681C45.1611 44.4114 45.4847 44.6957 45.635 45.0963C46.3516 47.1637 47.5652 48.5464 48.6401 48.5464C49.7265 48.5464 50.9286 47.1637 51.6452 45.0963C51.7839 44.6828 52.119 44.3985 52.512 44.3597C52.5236 44.3597 52.5351 44.3597 52.5467 44.3597C52.9165 44.2951 53.1477 44.1271 53.2633 43.817C53.3558 43.5844 53.3558 43.3389 53.3326 43.1838C53.0784 43.1967 52.8241 43.1063 52.6276 42.9383C52.3618 42.7057 52.2115 42.3568 52.2231 41.9821V41.9433C52.2231 41.8917 52.2231 41.84 52.2231 41.7883C52.2231 39.0489 50.8477 37.3432 48.6401 37.3432C46.4325 37.3432 45.0571 39.0489 45.0571 41.7883C45.0571 41.84 45.0571 41.8917 45.0571 41.9433V41.995C45.0686 42.3698 44.9184 42.7187 44.6525 42.9512C44.4445 43.1321 44.1902 43.2226 43.9475 43.1968C43.9244 43.3518 43.9244 43.5973 44.0168 43.8299C44.1324 44.1271 44.3636 44.2951 44.7334 44.3597Z" fill="#231F20"/>
<path d="M17.3184 31.6573C16.7405 31.6573 16.2666 31.1275 16.2666 30.4814V15.6085C16.2666 14.9624 16.7405 14.4326 17.3184 14.4326H23.8025C24.3804 14.4326 24.8542 14.9624 24.8542 15.6085C24.8542 16.2546 24.3804 16.7844 23.8025 16.7844H18.3702V30.4944C18.3702 31.1275 17.9078 31.6573 17.3184 31.6573Z" fill="#FD6C36"/>
<path d="M50.6863 31.6575C50.1084 31.6575 49.6345 31.1278 49.6345 30.4817V16.7717H44.2022C43.6243 16.7717 43.1504 16.2419 43.1504 15.5958C43.1504 14.9497 43.6243 14.4199 44.2022 14.4199H50.6863C51.2642 14.4199 51.738 14.9497 51.738 15.5958V30.4687C51.738 31.1278 51.2642 31.6575 50.6863 31.6575Z" fill="#FD6C36"/>
</svg>
