<svg width="48" height="48" viewBox="0 0 48 48" fill="none" xmlns="http://www.w3.org/2000/svg">
<path fill-rule="evenodd" clip-rule="evenodd" d="M9 7C9 5.89543 9.89543 5 11 5H37C38.1046 5 39 5.89543 39 7V9H44C45.1046 9 46 9.89543 46 11V37C46 38.1046 45.1046 39 44 39H39V41C39 42.1046 38.1046 43 37 43H11C9.89543 43 9 42.1046 9 41V39H4C2.89543 39 2 38.1046 2 37V11C2 9.89543 2.89543 9 4 9H9V7ZM13 39H35V9H13V39ZM9 13H6V35H9V13ZM39 35H42V13H39V35ZM21.0563 18.2367C21.7066 17.8886 22.4957 17.9268 23.1094 18.3359L29.1094 22.3359C29.6658 22.7068 30 23.3313 30 24C30 24.6687 29.6658 25.2932 29.1094 25.6641L23.1094 29.6641C22.4957 30.0732 21.7066 30.1114 21.0563 29.7633C20.406 29.4153 20 28.7376 20 28V20C20 19.2624 20.406 18.5847 21.0563 18.2367ZM24 23.737V24.263L24.3944 24L24 23.737Z" fill="black" fill-opacity="0.65"/>
<path d="M6 13H9V35H6V13Z" fill="#91D5FF"/>
<path fill-rule="evenodd" clip-rule="evenodd" d="M35 39H13V9H35V39ZM21.0563 18.2367C21.7066 17.8886 22.4957 17.9268 23.1094 18.3359L29.1094 22.3359C29.6658 22.7068 30 23.3313 30 24C30 24.6687 29.6658 25.2932 29.1094 25.6641L23.1094 29.6641C22.4957 30.0732 21.7066 30.1114 21.0563 29.7633C20.406 29.4153 20 28.7376 20 28V20C20 19.2624 20.406 18.5847 21.0563 18.2367Z" fill="#91D5FF"/>
<path d="M42 35H39V13H42V35Z" fill="#91D5FF"/>
<path d="M24 24.263V23.737L24.3944 24L24 24.263Z" fill="#91D5FF"/>
</svg>
