<svg width="130" height="130" viewBox="0 0 130 130" fill="none" xmlns="http://www.w3.org/2000/svg">
<path opacity="0.99" d="M55.8607 87.1745C55.1493 87.1754 54.4447 87.0356 53.7875 86.7632C53.1303 86.4908 52.5334 86.0913 52.0311 85.5875L36.7968 70.3533C35.7916 69.3354 35.2299 67.9612 35.2344 66.5307C35.2389 65.1002 35.8091 63.7295 36.8206 62.7179C37.8321 61.7064 39.2028 61.1361 40.6333 61.1316C42.0638 61.127 43.438 61.6886 44.4559 62.6938L55.8606 74.0984L85.5468 44.4125C86.5647 43.4074 87.9389 42.8458 89.3694 42.8503C90.7999 42.8548 92.1706 43.4251 93.1821 44.4367C94.1936 45.4482 94.7638 46.8189 94.7683 48.2494C94.7728 49.6799 94.2111 51.0541 93.2059 52.072L59.6903 85.5876C59.188 86.0914 58.5911 86.4909 57.9339 86.7633C57.2767 87.0356 56.5721 87.1754 55.8607 87.1745Z" fill="#6563FF"/>
<path d="M64.9997 10.8333C54.2865 10.8333 43.814 14.0101 34.9063 19.962C25.9986 25.914 19.056 34.3736 14.9562 44.2713C10.8565 54.169 9.7838 65.0601 11.8738 75.5674C13.9639 86.0747 19.1227 95.7263 26.6981 103.302C34.2734 110.877 43.925 116.036 54.4323 118.126C64.9396 120.216 75.8307 119.143 85.7284 115.043C95.6261 110.944 104.086 104.001 110.038 95.0934C115.99 86.1857 119.166 75.7131 119.166 65C119.15 50.6391 113.438 36.8712 103.283 26.7165C93.1285 16.5618 79.3605 10.8497 64.9997 10.8333ZM93.2043 52.0719L59.6887 85.5875C59.1858 86.0906 58.5888 86.4897 57.9317 86.762C57.2745 87.0343 56.5702 87.1745 55.8589 87.1745C55.1476 87.1745 54.4433 87.0343 53.7862 86.762C53.129 86.4897 52.532 86.0906 52.0292 85.5875L36.7951 70.3532C35.7899 69.3353 35.2283 67.9611 35.2328 66.5306C35.2372 65.1001 35.8075 63.7294 36.819 62.7179C37.8305 61.7063 39.2011 61.136 40.6316 61.1315C42.0622 61.1269 43.4364 61.6885 44.4543 62.6937L55.8589 74.0983L85.5451 44.4124C86.563 43.4073 87.9372 42.8457 89.3678 42.8502C90.7983 42.8548 92.1689 43.4251 93.1804 44.4366C94.1919 45.4482 94.7622 46.8188 94.7666 48.2493C94.7711 49.6799 94.2095 51.0541 93.2043 52.0719Z" fill="#A2A1FF"/>
</svg>
