<svg width="55" height="32" viewBox="0 0 55 32" fill="none" xmlns="http://www.w3.org/2000/svg">
<g clip-path="url(#clip0)">
<path d="M34.2378 22.3367V22.3383L34.4564 22.1344L34.2378 22.3367Z" fill="black"/>
<path d="M36.6056 20.9473V20.9457L36.6039 20.944L36.3286 21.0608L36.6056 20.9473Z" fill="black"/>
<path d="M54.9464 14.1324C54.833 13.2314 54.546 12.3468 53.5532 11.8207L53.4113 12.0805L53.5532 11.8191C53.1077 11.584 52.5487 11.4853 52.0147 11.5149C51.4808 11.5461 50.9368 11.7089 50.533 12.0345L50.6832 12.2153L50.6849 12.217L50.533 12.0345C49.7021 12.7069 49.033 13.5158 48.474 14.3922C48.0452 15.0695 47.6614 15.7765 47.3126 16.495C47.2876 16.5476 47.2643 16.6019 47.2392 16.6545C47.2576 16.5295 47.2759 16.4046 47.2993 16.2763C47.4428 15.4609 47.6697 14.6256 47.945 13.9762L47.6681 13.8627L47.6731 13.8644L47.9434 13.9762C48.0602 13.7 48.197 13.4303 48.3388 13.1508L48.3405 13.1492L48.3422 13.1475C48.4072 13.0209 48.4723 12.8927 48.5357 12.7628C48.5357 12.7628 48.5357 12.7628 48.5357 12.7612C48.6675 12.4948 48.7526 12.2153 48.7109 11.9522C48.6642 11.6612 48.4707 11.4524 48.1903 11.3308C47.6714 11.1055 47.1441 10.9493 46.6486 11.0167C46.1263 11.0858 45.6958 11.3916 45.3621 11.9621L45.6224 12.1101L45.619 12.1084L45.3621 11.9621C43.9221 14.4333 43.4365 17.082 44.0022 19.8869L44.2975 19.8293L44.0038 19.8869V19.8885C44.1173 20.4311 44.3075 20.9638 44.5345 21.4636V21.4653L44.7914 21.3502L44.8081 21.3436L44.5345 21.4669C44.6763 21.7744 44.8915 22.0407 45.1785 22.2084C45.4705 22.3794 45.8176 22.437 46.1914 22.3531H46.193C46.6853 22.2397 47.1608 22.0572 47.6097 21.8862H47.6113H47.613C47.7482 21.8352 47.88 21.7842 48.0135 21.7349H48.0151H48.0168C48.1486 21.6856 48.2237 21.5738 48.2537 21.5212C48.2938 21.4554 48.3221 21.3814 48.3372 21.3173L48.3388 21.314V21.3107L48.0468 21.245L48.3405 21.3107C48.8544 19.101 49.5068 16.9883 50.8284 15.1468C50.8667 15.0926 50.9051 15.0399 50.9435 14.9857C51.0937 14.7752 51.2355 14.5779 51.4057 14.402C51.4074 14.4201 51.409 14.4382 51.409 14.4546C51.4391 14.8542 51.4658 15.2093 51.4474 15.5595L51.7461 15.5743H51.7444L51.4474 15.5595V15.5611C51.3707 17.1445 50.9485 18.6702 50.4546 20.2075C50.3612 20.4919 50.256 20.7747 50.1459 21.0641L50.4279 21.1677L50.1459 21.0641C50.1442 21.0674 50.1426 21.0723 50.1409 21.0756V21.0773C50.0158 21.4077 49.8873 21.7481 49.7805 22.0966C49.6754 22.4337 49.662 22.7592 49.8422 23.0305C50.0141 23.2919 50.3144 23.4267 50.6398 23.5122C51.1637 23.6503 51.6426 23.6076 52.1198 23.5172C52.3201 23.4793 52.5003 23.4136 52.6555 23.2985C52.8106 23.1818 52.9224 23.0305 53.0109 22.8546C53.7818 21.3173 54.2757 19.7011 54.6077 18.0389L54.3124 17.9813L54.6077 18.0389C54.853 16.7844 55.115 15.4773 54.9464 14.1324ZM48.0735 13.0144L48.0752 13.016L48.0735 13.0144ZM54.6478 14.1686L54.6561 14.1669L54.6478 14.1686ZM48.0819 13.0193L48.0735 13.0144L48.0819 13.0193ZM47.5062 21.6116L47.5045 21.605L47.5062 21.6116ZM52.0598 23.2212V23.2229V23.2212Z" fill="black"/>
<path d="M53.5532 11.8191H53.5515L53.4097 12.0805L53.5532 11.8191Z" fill="black"/>
<path d="M36.7004 16.4769L36.7021 16.4753V16.4736L36.4268 16.3569L36.7004 16.4769Z" fill="black"/>
<path d="M12.1295 27.4651C12.9521 27.2481 13.5461 26.7006 14.0517 26.1695C14.3454 25.8637 14.5539 25.5809 14.5973 25.2422C14.639 24.9068 14.5105 24.5829 14.322 24.2212V24.2196C14.3086 24.1933 14.2936 24.1686 14.2836 24.1505C14.2719 24.1308 14.2653 24.1176 14.2586 24.1045L13.9899 24.2377L14.2586 24.1045L14.2553 24.0979L14.2519 24.0913C14.05 23.7362 13.8464 23.3811 13.6445 23.0292C13.2024 22.2598 12.7635 21.4969 12.3447 20.7192L12.1028 20.8474L12.0811 20.8589L12.3447 20.7208C12.1345 20.3328 11.9626 19.9218 11.7841 19.491C11.7507 19.4121 11.7157 19.3299 11.6823 19.2493C11.6856 19.2493 11.6906 19.2477 11.694 19.2477C11.9276 19.2197 12.1745 19.1901 12.4165 19.1244C13.6579 18.784 14.4838 17.9472 15.1947 17.0215C15.5868 16.5118 15.8404 15.961 16.0757 15.425C17.4389 12.3636 17.7026 9.18552 17.0835 5.93833C16.7465 4.15279 16.0039 2.51193 14.5723 1.24429C13.6245 0.40578 12.4665 -0.222284 11.0649 0.0835274C10.4742 0.210127 9.91192 0.445239 9.38131 0.667199C9.13936 0.767492 8.90242 0.86614 8.66548 0.956568C8.60875 0.976298 8.57037 1.00754 8.55035 1.02562C8.52699 1.047 8.50863 1.06837 8.5053 1.07166C8.5053 1.07166 8.5053 1.07166 8.50363 1.0733V1.07495C7.72273 1.89373 7.10869 2.83747 6.83838 3.96371C6.66484 4.68056 6.5664 5.41549 6.46962 6.12576C6.46295 6.17673 6.45627 6.2277 6.4496 6.27867L6.74661 6.31648H6.74827L6.45127 6.27867C6.11755 8.78106 6.26772 11.2604 6.78331 13.7151C6.81001 13.845 6.84005 13.9749 6.86841 14.1048C6.52301 13.2679 6.21599 12.4179 5.9607 11.5482L5.67203 11.6304L5.9607 11.5482C5.9023 11.3509 5.83389 11.1552 5.76714 10.9694C5.67037 10.6948 5.58026 10.4351 5.51686 10.172L5.22485 10.2394H5.22652L5.51852 10.172C5.15143 8.63801 4.8027 7.09909 4.47399 5.55853C4.41058 5.25765 4.28544 5.00281 4.08521 4.80387C3.88664 4.60493 3.63302 4.48162 3.34602 4.41256L3.27594 4.70029L3.34602 4.41256C2.41662 4.19553 1.54895 4.36817 0.746362 4.82031C0.746362 4.82031 0.746362 4.82031 0.744693 4.82031C0.269146 5.08502 -0.0161828 5.50427 0.00884603 6.06657C0.0188576 6.30168 0.0255319 6.53844 0.0322063 6.77684C0.0505607 7.42464 0.0689152 8.0938 0.16903 8.75475L0.466039 8.71036L0.16903 8.75475C0.72467 12.3867 1.92105 15.818 3.73647 19.029C5.38837 21.9622 7.38734 24.6619 10.1455 26.7499L10.1472 26.7516C10.3775 26.9291 10.6444 27.0524 10.873 27.161L11.0032 26.8946V26.8962L10.8747 27.1626H10.8764C10.9648 27.2037 11.0482 27.2432 11.1283 27.2843L11.2651 27.0212L11.1317 27.2859C11.2418 27.3402 11.3736 27.3944 11.5138 27.4257L11.5805 27.1363L11.5138 27.424L11.5188 27.4257L11.5238 27.4273C11.5521 27.4322 11.5822 27.4388 11.6189 27.447C11.724 27.4701 11.9359 27.5227 12.1328 27.4701C12.1261 27.4668 12.1278 27.4651 12.1295 27.4651C12.1278 27.4651 12.1278 27.4651 12.1295 27.4651ZM12.9187 8.05434L12.882 8.05599L12.6184 8.07079C12.6818 9.12961 12.6918 10.2 12.6234 11.2539C12.5767 11.9608 12.3881 12.6777 12.1945 13.4077L12.4849 13.4817L12.1945 13.4077C12.0527 13.9486 11.8558 14.478 11.6523 15.0255C11.6239 15.1028 11.5939 15.1817 11.5655 15.259C11.3819 15.7506 11.125 16.1912 10.7462 16.5858C10.7262 16.5168 10.7078 16.4477 10.6878 16.3787V16.377L10.6861 16.3721C10.536 15.8492 10.3925 15.3445 10.274 14.8364C9.81681 12.801 9.56986 10.754 9.65162 8.68241C9.71502 7.17308 9.84684 5.71144 10.4242 4.34186V4.34022L10.1472 4.22842L10.4258 4.34022C10.5643 4.0081 10.7279 3.72366 10.9731 3.49513C11.2601 3.72531 11.462 4.0377 11.6556 4.4027C12.2563 5.54702 12.5433 6.78177 12.62 8.06914L12.9187 8.05434ZM10.3975 16.4559L10.4225 16.4494L10.4325 16.4461L10.3975 16.4559ZM10.3975 16.4559H10.3991H10.3975ZM13.8331 25.9673L13.8448 25.9772L13.8331 25.9673ZM12.333 18.8383L12.3497 18.8975L12.333 18.8383ZM15.797 15.305L15.8004 15.3067L15.797 15.305ZM16.7848 5.99094L16.7898 5.9893L16.7848 5.99094ZM8.49862 1.07001L8.71721 1.27224L8.49862 1.07001Z" fill="black"/>
<path d="M12.4858 13.4813L12.1955 13.4073H12.1938L12.4858 13.4813Z" fill="black"/>
<path d="M11.1196 27.279H11.1213L11.123 27.2806L11.2581 27.0159L11.1196 27.279Z" fill="black"/>
<path d="M16.6924 15.5299L16.9661 15.6401L16.9711 15.6417L16.6924 15.5299C15.7063 17.8991 15.3659 20.3292 16.614 22.774C17.0311 23.5961 17.6736 24.3507 18.7164 24.5875C19.2137 24.7009 19.7643 24.7388 20.2749 24.6598L20.2365 24.4181V24.4132L20.2765 24.6598C20.7604 24.5842 21.3294 24.4181 21.7482 24.0926L21.7499 24.091L21.5697 23.869L21.5614 23.8591L21.7499 24.091C22.6576 23.3741 23.3584 22.4781 23.7923 21.3814C24.3379 20.0003 24.5898 18.565 24.4046 17.0869C24.3429 16.5904 24.176 16.1136 24.0242 15.6697L23.7939 15.7469L23.7439 15.7634H23.7422L24.0259 15.668C23.9875 15.5578 23.9508 15.4493 23.9141 15.3425C24.5882 15.1698 25.304 14.984 26.0332 14.795C26.0282 14.8492 26.0232 14.9035 26.0182 14.9577V14.9594V14.961C25.9648 15.5283 25.9114 16.0856 25.853 16.6413C25.7262 17.8235 25.6043 19.0648 25.9714 20.3029C26.3953 21.7283 27.0093 23.1078 28.5494 23.8904L28.6746 23.652L28.6695 23.6635L28.5511 23.8904C29.7158 24.479 31.3343 24.3096 32.272 23.3758L32.2737 23.3741C32.4773 23.167 32.6842 22.8694 32.6608 22.5504C32.6475 22.3745 32.5657 22.215 32.4189 22.0933C32.2804 21.9782 32.0935 21.9059 31.8799 21.8664H31.8782L31.8232 22.1525L31.8215 22.1574L31.8766 21.8664C31.2125 21.7448 30.797 21.3337 30.4583 20.7287L30.1963 20.8734L30.4583 20.7303C29.9944 19.9099 29.8459 19.0007 29.8075 18.0356L29.5506 18.0454H29.5489L29.8075 18.0356C29.7491 16.615 29.9343 15.2175 30.3064 13.8759C30.3849 13.8775 30.4633 13.8775 30.5417 13.8792H30.545H30.5467C30.9205 13.8874 31.3076 13.8956 31.6964 13.8512H31.698H31.6997C32.2336 13.797 32.791 13.7131 33.3199 13.5438C35.6376 12.8121 37.4597 11.3916 38.8296 9.4482C39.2267 8.88919 39.492 8.23811 39.7373 7.63964L39.4603 7.53113L39.4586 7.52949L39.7373 7.638C40.1277 6.6696 40.056 5.67489 39.8558 4.73608L39.5621 4.79692L39.5671 4.79527L39.8558 4.73444V4.7328C39.7406 4.20996 39.5154 3.64437 38.9047 3.31719C38.6744 3.19388 38.4708 3.08207 38.3073 2.94561L38.1521 3.12811L38.1138 3.1725L38.3073 2.94561C37.5798 2.34056 36.7272 2.09723 35.8011 2.23205C34.3411 2.44415 33.0663 3.08701 31.9767 4.03239C30.2998 5.48581 28.9866 7.2319 27.9554 9.15719C27.5866 9.8428 27.3013 10.5662 27.0226 11.2699L27.021 11.2748C26.8842 11.6201 26.749 11.9621 26.6038 12.2992C26.5855 12.3403 26.5655 12.3781 26.5471 12.4044C26.5438 12.4077 26.5421 12.411 26.5404 12.4126C25.032 12.9371 23.4953 13.3333 21.9184 13.575C21.6882 13.0522 21.1843 12.9108 20.8555 12.8105C20.7955 12.7924 20.7404 12.776 20.6887 12.7579L20.5919 13.0374L20.6103 12.9848L20.6887 12.7562C20.2816 12.6198 19.8728 12.5754 19.4756 12.651C19.0768 12.7283 18.7097 12.9239 18.3827 13.2412L18.381 13.2429C17.7036 13.8989 17.0745 14.6141 16.6924 15.5299ZM20.4835 15.5085L20.4784 15.5052L20.5085 15.525L20.5152 15.5299L20.4835 15.5085ZM20.4784 15.5052L20.4818 15.5069L20.4901 15.5118L20.4784 15.5052ZM20.7287 15.6664L20.7304 15.6631C20.7321 15.6614 20.7321 15.6598 20.7337 15.6581L20.7387 15.6516C20.7705 15.6006 20.8038 15.548 20.8372 15.4954C21.4079 15.9113 21.5981 16.495 21.6682 17.1823C21.8167 18.6324 21.3161 19.9296 20.5368 21.1874C20.3533 21.4784 20.1431 21.7546 19.9061 21.9717C19.8844 21.9914 19.8661 22.0045 19.8527 22.0144C19.8394 21.9947 19.8244 21.9634 19.8077 21.919C19.7109 21.6478 19.6275 21.3831 19.5924 21.12C19.3872 19.5367 19.514 18.0109 20.1998 16.5723C20.345 16.2665 20.5318 15.9755 20.7287 15.6664ZM19.3221 21.1545L19.2954 21.1578L19.3221 21.1545ZM20.7871 21.337L20.7921 21.3403L20.7871 21.337ZM32.2136 8.96976L32.2103 8.96811L32.2136 8.96976ZM31.5162 10.7142C31.8182 10.1634 32.1118 9.62577 32.4572 9.13582C32.7409 8.73465 33.0513 8.35156 33.3683 7.96025C33.5535 7.73172 33.7404 7.50154 33.9239 7.26478C34.6164 6.37365 35.5124 5.7275 36.5536 5.24084C36.5887 5.2244 36.627 5.2096 36.6688 5.19644C36.7055 5.47924 36.6654 5.7571 36.592 6.04154C36.5219 6.31446 36.4268 6.5841 36.305 6.82908L36.5753 6.95897L36.5703 6.95732L36.305 6.82908L36.3033 6.83073C35.8912 7.66924 35.424 8.45843 34.8083 9.12924L35.0319 9.32818L35.0302 9.32654L34.8083 9.12924C34.1976 9.79512 33.4617 10.3245 32.6425 10.7257C32.2003 10.9411 31.7448 11.1335 31.2809 11.3291H31.2792H31.2775C31.2509 11.3406 31.2225 11.3521 31.1958 11.3636C31.2892 11.1565 31.3843 10.9559 31.4878 10.7619L31.5162 10.7142L31.2525 10.5744L31.5162 10.7142ZM31.3927 11.5955L31.381 11.5692L31.3843 11.5757L31.396 11.6037L31.3927 11.5955ZM31.3927 11.5955L31.396 11.6037L31.3927 11.5955ZM32.7376 10.9164L32.7759 10.9937L32.7376 10.9164ZM21.9485 13.8726L21.9468 13.866L21.9218 13.7049L21.9485 13.8726ZM21.9201 13.695L21.9068 13.6112L21.9201 13.695ZM16.8826 22.6408L16.8726 22.6458L16.8826 22.6408ZM24.1043 17.1214L24.2161 17.1083L24.1043 17.1214ZM26.3135 14.9873H26.3118H26.3135ZM26.3118 14.9873L26.205 14.9775L26.3118 14.9873ZM21.9501 13.6852C21.9501 13.6835 21.9501 13.6835 21.9485 13.6835C21.9485 13.6835 21.9501 13.6835 21.9501 13.6852Z" fill="black"/>
<path d="M14.0993 29.127H14.0977L14.2829 29.3605L14.0993 29.127Z" fill="black"/>
<path d="M39.9277 12.1495H39.9227L39.8893 12.4439L39.9227 12.1495C39.7826 12.1348 39.7058 12.1183 39.6574 12.0887H39.6557H39.6541L39.5006 12.3436L39.6541 12.0887C38.6596 11.505 37.7035 11.7467 36.8458 12.1528C35.4676 12.8006 34.5866 13.9269 33.9558 15.1781C33.2317 16.6101 32.8896 18.1556 33.1516 19.7882L33.4486 19.7422L33.4202 19.7471L33.1516 19.7882V19.7899C33.2951 20.6712 33.532 21.6034 34.2362 22.3383L34.4548 22.1344L34.2378 22.3383C35.224 23.361 36.4754 23.7293 37.8503 23.6619C39.1518 23.5994 40.3632 23.0108 41.3293 22.1838C42.2955 21.3568 43.0363 20.2766 43.3917 19.1964C43.5486 18.7261 43.5819 18.3003 43.4251 17.9156C43.2682 17.5325 42.9462 17.2464 42.5174 17.0047C42.1386 16.791 41.7298 16.7515 41.3811 16.9143C41.034 17.0771 40.8087 17.4141 40.737 17.8334C40.702 18.0257 40.6402 18.2197 40.5685 18.417C40.0545 19.7998 39.1418 20.7978 37.7502 21.3107C37.4816 21.4077 37.2463 21.4423 37.0611 21.3995C36.8992 21.3617 36.7324 21.2532 36.6039 20.949L36.3269 21.0625L36.6039 20.9474C36.4737 20.6448 36.3703 20.3325 36.2952 20.0151C36.1834 19.5285 36.1384 19.0402 36.1901 18.5223C36.5872 18.736 37.0027 18.81 37.4232 18.7771H37.4248H37.4265C37.8303 18.7426 38.2675 18.6653 38.6629 18.4976C40.188 17.8597 41.291 16.7828 41.8216 15.1961C42.2838 13.8184 41.4662 12.3682 39.9327 12.1528L39.9277 12.1495ZM36.7023 16.4737C37.016 15.7502 37.3498 15.0942 37.9271 14.6536H37.9288L37.7435 14.4218L37.9288 14.6552C38.2308 14.4218 38.6212 14.2656 39.0417 14.111C39.0434 14.111 39.045 14.1094 39.0467 14.1094C39.0484 14.1242 39.0484 14.139 39.0484 14.1571V14.2984C39.025 14.3445 39.0017 14.3922 38.9783 14.4382C38.8381 14.721 38.7047 14.9906 38.5511 15.2488C38.1557 15.8982 37.5517 16.3043 36.7958 16.5378C36.7708 16.5443 36.7307 16.5493 36.689 16.5493C36.6907 16.5394 36.689 16.5279 36.6907 16.518C36.694 16.4967 36.699 16.4835 36.7007 16.4819L36.4254 16.3618L36.7023 16.4737ZM36.8826 16.8173C36.8842 16.8173 36.8842 16.8173 36.8826 16.8173V16.8173ZM40.8538 18.519L40.8505 18.5173L40.8538 18.519Z" fill="black"/>
<path d="M0.161621 8.74943V8.75107L0.45863 8.70668L0.161621 8.74943Z" fill="black"/>
<path d="M51.6396 25.9982L51.5929 26.2908L51.5979 26.2612L51.6396 25.9982C51.2092 25.934 50.7803 25.8633 50.3498 25.7943L50.3014 26.0869L50.3315 25.9061V25.911L50.3014 26.0869L50.3498 25.7943C49.2419 25.6134 48.1189 25.4309 46.986 25.3389C45.3541 25.2057 43.7205 25.135 42.0903 25.0643C41.4029 25.0347 40.7154 25.0051 40.0296 24.9706H40.0263H40.0229L40.0163 25.2632V25.2665L40.0229 24.9706C34.8687 24.844 29.7811 25.3684 24.7353 26.2859C21.8253 26.8104 18.9837 27.5815 16.1538 28.3493C15.76 28.4562 15.3662 28.563 14.9724 28.6682C14.6437 28.7554 14.3417 28.9412 14.0997 29.127L14.285 29.3604L14.0997 29.1286C13.5258 29.5725 13.3639 30.3075 13.6008 30.9421L13.8828 30.8402L13.6008 30.9421V30.9437C13.8478 31.5981 14.4301 32.0305 15.1726 32.0009C15.5197 31.9894 15.8701 31.9089 16.1838 31.8003L16.0854 31.5208L16.087 31.5241L16.1855 31.8003C19.2857 30.73 22.4277 29.8422 25.6497 29.2799L25.598 28.9889L25.6497 29.2799C28.1426 28.8458 30.6622 28.5088 33.1851 28.2095C35.2675 27.9629 37.3582 27.7705 39.4506 27.6801L39.4389 27.445L39.4356 27.3842L39.4489 27.6801C42.7678 27.5321 46.0816 27.7377 49.3904 28.1421L49.4271 27.8478L49.3921 28.1421C50.0645 28.221 50.7503 28.2506 51.4227 28.2506C51.7314 28.2506 52.0151 28.106 52.2186 27.9267C52.4172 27.7508 52.5874 27.4976 52.6074 27.2263L52.3071 27.205L52.6058 27.2263V27.2247C52.6241 26.9501 52.5023 26.6673 52.3405 26.4569C52.1803 26.2448 51.9333 26.0425 51.6396 25.9982Z" fill="black"/>
<path d="M49.3887 28.1405H49.3903L49.4254 27.8462L49.3887 28.1405Z" fill="black"/>
</g>
<defs>
<clipPath id="clip0">
<rect width="55" height="32" fill="white" transform="translate(0 0.000930786)"/>
</clipPath>
</defs>
</svg>
