<svg width="108" height="37" viewBox="0 0 108 37" fill="none" xmlns="http://www.w3.org/2000/svg">
<circle cx="18.5" cy="18.5" r="18.5" fill="#FD6C36"/>
<path fill-rule="evenodd" clip-rule="evenodd" d="M17.9918 21.8992C18.3836 22.8113 18.6903 23.6065 19.1029 24.3703C19.4943 25.0957 20.0073 25.7697 20.3328 26.5544C20.3003 26.6314 20.2876 26.6737 20.2437 26.7694C20.2186 26.8241 20.1944 26.9281 20.1547 26.9844C20.1411 27.0038 20.0556 26.9977 20.0496 27.0196C20.0419 27.0453 20.0046 27.147 19.9896 27.1628C19.9745 27.1786 19.8904 27.1778 19.8845 27.198C19.8438 27.3373 19.2199 27.8371 18.9152 27.8936C18.8704 27.902 18.8023 27.9521 18.7572 27.9465C18.7224 27.9425 18.6889 27.8636 18.6582 27.8557C18.4814 27.8132 18.1481 27.723 17.9465 27.5995C17.9237 27.5857 17.9245 27.5003 17.9007 27.4917C17.8307 27.4655 17.8123 27.4676 17.7487 27.4186C17.6556 27.3473 17.6128 27.2864 17.5509 27.2376C17.4755 27.1777 17.379 27.1745 17.3237 27.1277C17.2537 27.0692 17.2492 26.9922 17.1788 26.929C16.9538 26.7257 16.7197 26.5428 16.4877 26.2948C16.4717 26.2778 16.4616 26.1936 16.4419 26.187C16.2388 26.1111 15.8575 25.5989 15.6819 25.3906C14.1807 23.6148 12.9825 21.5962 11.9856 18.9654C11.764 18.3815 11.5704 17.8031 11.4076 17.1814C11.2086 16.4196 11.0351 15.4865 10.87 14.6415C10.8654 14.6174 10.8979 14.5743 10.8768 14.5153C10.839 14.4113 10.8575 14.2803 10.8444 14.1549C10.8191 13.9096 10.7591 13.6643 10.7563 13.3809C10.756 13.3537 10.8072 13.368 10.7861 13.3089C10.7737 13.2759 10.7746 12.973 10.7832 12.8775C10.7968 12.7258 10.8012 12.5524 10.9091 12.465C11.4503 11.9904 12.527 11.8507 12.992 12.2621C13.1336 12.4701 13.1126 12.7012 13.1629 12.9464C13.2232 13.2437 13.282 13.4976 13.3498 13.8106C13.4071 14.0742 13.4897 14.5376 13.5761 14.9096C13.6874 15.3873 13.8885 15.9417 13.9634 16.387C13.9787 16.4761 14.0488 16.5709 14.0784 16.6577C14.1536 16.8781 14.2917 17.1972 14.3935 17.5409C14.41 17.5966 14.3841 17.659 14.3868 17.6672C15.1056 19.6611 16.0781 21.5354 17.066 23.2599C17.113 23.1052 16.986 22.9353 16.9349 22.8094C16.0325 20.5942 15.5088 18.3977 15.308 16.4321C15.206 15.4304 15.2256 14.4169 15.3111 13.464C15.3182 13.384 15.2934 13.4014 15.3179 13.3378C15.336 13.2912 15.354 13 15.3679 12.8887C15.3744 12.8377 15.342 12.7692 15.3519 12.7089C15.3556 12.6836 15.4338 12.6401 15.4346 12.6192C15.4375 12.3512 15.5247 11.9954 15.5871 11.7026C15.6121 11.5851 15.6004 11.4873 15.6301 11.379C15.6456 11.3209 15.7267 11.2747 15.7419 11.2176C15.7715 11.1052 15.7833 10.8904 15.8448 10.7508C15.898 10.6296 16.0063 10.5355 16.0688 10.4286C16.0799 10.4092 16.0634 10.3155 16.0759 10.3031C16.2653 10.1156 16.4989 9.77621 16.7124 9.53361C17.1266 9.4181 17.3607 9.35462 17.5859 9.17922C17.7532 9.04964 17.9885 8.97582 18.3244 8.932C18.9536 8.85033 19.4308 9.00804 19.9347 9.31965C20.7166 9.8036 21.3966 10.6523 21.8625 12.0117C22.1475 12.843 22.2201 13.7206 22.2719 14.5325C22.344 15.6781 22.206 16.8015 21.939 17.8581C21.769 18.5292 21.5246 19.2013 21.2117 19.8318C21.1725 19.9102 21.0896 20.2364 20.981 20.2802C20.9382 20.297 20.8306 20.4628 20.7861 20.5307C20.754 20.5803 20.685 20.6587 20.697 20.7457C20.407 20.9163 20.1808 21.2921 19.8265 21.5314C19.2817 21.899 18.6264 22.0671 17.9918 21.8992ZM18.3691 20.6602C18.406 20.6106 18.4631 20.6064 18.504 20.553C18.6782 20.3261 18.7582 20.1199 18.8768 19.8719C19.0222 19.5678 19.1335 19.2932 19.2335 19.0109C19.2829 18.8712 19.3702 18.7205 19.4123 18.5807C19.4356 18.5027 19.3993 18.423 19.4254 18.3291C19.4459 18.2578 19.4981 18.1816 19.5145 18.1141C19.5513 17.9638 19.5882 17.7985 19.6174 17.6473C19.6442 17.5094 19.7293 17.2131 19.6972 17.1263C19.6648 17.0387 19.7939 16.6524 19.777 16.6052C19.7341 16.4889 19.8486 15.9339 19.8177 15.85C19.7953 15.7897 19.8466 15.8081 19.8476 15.778C19.8517 15.6551 19.7987 15.5001 19.7924 15.3641C19.7921 15.3576 19.8416 15.3526 19.8453 15.3464C19.8549 15.3291 19.7997 15.26 19.7992 15.2379C19.7942 15.0725 19.7641 14.6379 19.8101 14.5547C19.8197 14.5374 19.7645 14.4682 19.7639 14.4461C19.7544 14.1376 19.7156 13.834 19.6597 13.4923C19.4836 12.4261 19.0118 10.9183 18.1378 10.4792C18.1025 10.491 18.0672 10.5028 18.032 10.5146C17.916 10.6568 17.8063 10.7381 17.7022 10.8722C17.518 11.1099 17.414 11.3374 17.2993 11.6246C17.1063 12.1108 17.0047 12.6847 16.932 13.1695C16.9085 13.3245 16.8996 13.4647 16.882 13.6186C16.8713 13.7147 16.8255 13.7946 16.816 13.8878C16.8072 13.9751 16.8341 14.1066 16.826 14.1937C16.7754 14.719 16.7651 15.2863 16.7914 15.8123C16.8724 17.4394 17.0976 19.1307 17.7083 20.9442C17.7496 21.066 17.6638 21.2319 17.8461 21.2685C18.0221 21.0665 18.258 20.8082 18.3691 20.6602Z" fill="white"/>
<path d="M55.072 13.688V15.864H52V25H49.248V15.864H46.208V13.688H55.072ZM58.1612 17.752C58.5026 17.208 58.9399 16.776 59.4732 16.456C60.0172 16.136 60.6039 15.976 61.2333 15.976V18.904H60.4493C59.7239 18.904 59.1586 19.0587 58.7533 19.368C58.3586 19.6773 58.1612 20.2 58.1612 20.936V25H55.4252V16.072H58.1612V17.752ZM61.3224 13.56C61.3224 13.144 61.4717 12.8027 61.7704 12.536C62.069 12.2587 62.4637 12.12 62.9544 12.12C63.445 12.12 63.8397 12.2587 64.1384 12.536C64.437 12.8027 64.5864 13.144 64.5864 13.56C64.5864 13.9653 64.437 14.3067 64.1384 14.584C63.8397 14.8507 63.445 14.984 62.9544 14.984C62.4637 14.984 62.069 14.8507 61.7704 14.584C61.4717 14.3067 61.3224 13.9653 61.3224 13.56ZM64.3144 16.072V25H61.5784V16.072H64.3144ZM70.9714 15.96C71.7074 15.96 72.3634 16.1467 72.9394 16.52C73.526 16.8827 73.9847 17.4107 74.3154 18.104C74.6567 18.7867 74.8274 19.5973 74.8274 20.536C74.8274 21.464 74.6567 22.2747 74.3154 22.968C73.9847 23.6613 73.526 24.1947 72.9394 24.568C72.3634 24.9307 71.7074 25.112 70.9714 25.112C70.2887 25.112 69.702 24.9573 69.2114 24.648C68.7207 24.3387 68.3634 23.9173 68.1394 23.384V25H65.4034V13.16H68.1394V17.688C68.3634 17.1547 68.7207 16.7333 69.2114 16.424C69.702 16.1147 70.2887 15.96 70.9714 15.96ZM70.0914 18.36C69.5154 18.36 69.0407 18.5573 68.6674 18.952C68.3047 19.336 68.1234 19.864 68.1234 20.536C68.1234 21.1973 68.3047 21.7253 68.6674 22.12C69.0407 22.5147 69.5154 22.712 70.0914 22.712C70.678 22.712 71.1474 22.52 71.4994 22.136C71.862 21.752 72.0434 21.2187 72.0434 20.536C72.0434 19.8533 71.862 19.32 71.4994 18.936C71.1474 18.552 70.678 18.36 70.0914 18.36ZM84.3271 16.072V25H81.5751V23.384C81.3191 23.9067 80.9351 24.3227 80.4231 24.632C79.9218 24.9413 79.3351 25.096 78.6631 25.096C77.6391 25.096 76.8231 24.7547 76.2151 24.072C75.6178 23.3893 75.3191 22.4507 75.3191 21.256V16.072H78.0391V20.92C78.0391 21.528 78.1938 22.0027 78.5031 22.344C78.8231 22.6747 79.2498 22.84 79.7831 22.84C80.3378 22.84 80.7751 22.664 81.0951 22.312C81.4151 21.96 81.5751 21.4587 81.5751 20.808V16.072H84.3271ZM90.4688 22.648V25H89.2368C88.1914 25 87.3754 24.744 86.7888 24.232C86.2128 23.7093 85.9248 22.8507 85.9248 21.656V18.376H84.7248V16.072H85.9248V13.88H88.6608V16.072H90.4528V18.376H88.6608V21.704C88.6608 22.056 88.7301 22.3013 88.8688 22.44C89.0181 22.5787 89.2634 22.648 89.6048 22.648H90.4688ZM95.3825 15.96C96.2678 15.96 97.0572 16.1467 97.7505 16.52C98.4545 16.8827 99.0038 17.4107 99.3985 18.104C99.8038 18.7973 100.007 19.608 100.007 20.536C100.007 21.464 99.8038 22.2747 99.3985 22.968C99.0038 23.6613 98.4545 24.1947 97.7505 24.568C97.0572 24.9307 96.2678 25.112 95.3825 25.112C94.4972 25.112 93.7025 24.9307 92.9985 24.568C92.2945 24.1947 91.7398 23.6613 91.3345 22.968C90.9398 22.2747 90.7425 21.464 90.7425 20.536C90.7425 19.608 90.9398 18.7973 91.3345 18.104C91.7398 17.4107 92.2945 16.8827 92.9985 16.52C93.7025 16.1467 94.4972 15.96 95.3825 15.96ZM95.3825 18.328C94.8598 18.328 94.4172 18.52 94.0545 18.904C93.7025 19.2773 93.5265 19.8213 93.5265 20.536C93.5265 21.2507 93.7025 21.7947 94.0545 22.168C94.4172 22.5413 94.8598 22.728 95.3825 22.728C95.9052 22.728 96.3425 22.5413 96.6945 22.168C97.0465 21.7947 97.2225 21.2507 97.2225 20.536C97.2225 19.8213 97.0465 19.2773 96.6945 18.904C96.3425 18.52 95.9052 18.328 95.3825 18.328Z" fill="black"/>
</svg>
