<svg width="213" height="225" viewBox="0 0 213 225" fill="none" xmlns="http://www.w3.org/2000/svg">
<path d="M180.937 152.405C180.937 169.64 174.882 185.461 164.791 197.857C151.594 214.061 131.493 224.41 108.974 224.41C100.134 224.41 91.6671 222.813 83.8432 219.896C68.2823 214.094 55.2698 203.058 46.943 188.93C40.6277 178.223 37.0059 165.735 37.0059 152.4C37.0059 135.195 43.0358 119.398 53.0986 107.012C66.2949 90.7693 86.4205 80.391 108.969 80.391C148.717 80.3958 180.937 112.634 180.937 152.405Z" fill="#FFCF34"/>
<path d="M132.797 99.3284C132.55 102.677 130.718 105.522 127.981 107.404C125.365 109.208 122.014 110.079 118.851 109.736C115.268 109.349 111.994 107.694 109.228 105.43C103.213 100.499 100.316 93.1402 97.1974 86.2213C93.2419 85.4085 89.2961 84.6005 85.3551 83.7925C81.8155 83.0667 78.2807 82.3409 74.741 81.6152C72.096 81.0733 68.3049 80.8556 66.9413 78.0832C65.8097 75.7801 67.4538 73.6803 69.6105 72.9061C71.3416 72.282 73.0921 72.6303 74.8474 72.9255C76.0225 72.9255 77.1927 73.0174 78.3725 73.2061C78.6337 73.2448 78.7884 73.3851 78.8513 73.5641C79.0689 73.5303 79.2865 73.4964 79.4992 73.4577C80.8483 73.2109 82.27 72.8964 83.5273 72.34C84.4363 71.9384 85.9305 70.724 84.9731 69.6257C84.7506 69.3693 84.7458 69.0693 84.8619 68.8322C83.2806 64.2454 81.3609 59.7845 79.1027 55.4928C76.7478 51.0173 74.0205 46.7741 71.0321 42.6954C69.7942 41.0068 68.4935 39.0956 68.5225 36.9135C68.5467 35.1765 69.3977 33.3234 71.066 32.6219C72.9519 31.8236 74.8377 32.8299 76.182 34.1605C77.8551 35.82 79.0543 37.9828 80.3648 39.923C81.8445 42.1051 83.3193 44.292 84.799 46.479C86.5688 46.1838 88.3822 46.479 89.9392 47.2967C89.9537 47.1515 89.9731 47.0063 90.0021 46.866C90.3212 45.3129 91.6172 44.2823 93.1452 44.0259C94.9392 43.7259 96.6752 44.4178 98.063 45.5306C98.2709 45.7 98.474 45.8742 98.6722 46.0629C101.912 44.3743 105.727 46.3241 107.874 49.0772C109.291 50.8916 110.316 52.9914 111.409 55.0042C112.715 57.4088 114.016 59.8135 115.321 62.2182C119.857 70.5789 124.397 78.9396 128.933 87.3003C130.906 90.9532 133.111 95.0126 132.797 99.3284Z" fill="white"/>
<path d="M137.818 104.66C133.703 95.027 129.157 85.5873 124.385 76.2638C122.025 71.6528 119.607 67.0661 117.16 62.4987C115.908 60.1666 114.651 57.8345 113.388 55.5072C112.281 53.4654 111.188 51.4091 109.771 49.5609C107.059 46.0289 102.392 43.1452 97.8711 45.008C97.8034 44.9789 97.755 44.9402 97.7018 44.9015C95.226 43.1016 91.2947 42.7726 89.2444 45.4192C87.9388 45.0563 86.6091 44.9741 85.2938 45.545C85.1584 45.3515 85.023 45.1628 84.8924 44.9693C83.1806 42.5307 81.4688 40.0922 79.7571 37.6585C78.3547 35.6651 76.9814 33.2411 74.7281 32.0992C72.8277 31.1364 70.4583 31.1896 68.9882 32.883C67.6971 34.3684 67.4312 36.4537 67.8616 38.3213C68.4515 40.8615 70.1004 43.1355 71.4012 45.3466C72.9051 47.9013 74.4138 50.456 75.9176 53.0106C77.6052 55.8749 79.288 58.7344 80.9756 61.5987C82.4698 64.1389 84.3025 66.9887 83.9447 70.061C82.3006 73.3269 77.1604 72.2673 74.2445 71.9093C71.0144 71.5174 67.0879 71.8996 65.6179 75.2913C65.0424 76.6122 65.0908 78.1169 65.937 79.312C66.8026 80.5312 68.2387 81.1506 69.6314 81.5521C71.5027 82.0892 73.4418 82.4424 75.3422 82.873C77.5375 83.3665 79.7377 83.8649 81.9331 84.3584C86.788 85.4567 91.6477 86.5502 96.5026 87.6485C102.905 98.6654 108.79 109.886 114.249 121.314C115.811 124.58 117.334 127.86 118.828 131.155C119.21 131.992 120.444 131.266 120.066 130.434C114.825 118.87 109.172 107.495 103.103 96.343C101.372 93.1642 99.6119 90.0048 97.8179 86.8598C97.6825 86.6228 97.4794 86.5211 97.2715 86.5115C97.1893 86.3953 97.0587 86.3083 96.8798 86.2647C88.7851 84.4358 80.6903 82.6117 72.5956 80.7828C71.1062 80.4442 69.4621 80.2071 68.1324 79.4039C66.6914 78.533 66.2707 76.9605 67.1072 75.4897C69.0366 72.0931 73.8286 73.3414 76.9282 73.7043C79.7522 74.0333 83.287 73.6027 84.936 71.169C85.11 71.1013 85.2503 70.9513 85.2889 70.6949C85.2986 70.6271 85.3035 70.5642 85.3131 70.4965C85.4437 70.2159 85.5549 69.9159 85.6419 69.5917C85.729 69.2579 85.5936 68.9966 85.376 68.8466C85.2793 67.1241 84.699 65.4839 83.906 63.8969C82.7309 61.5455 81.2851 59.3053 79.9505 57.041C77.1507 52.2897 74.3509 47.5336 71.5511 42.7823C70.4002 40.8325 68.906 38.6455 69.0946 36.265C69.2784 33.9958 71.0434 32.3169 73.3693 33.0766C75.758 33.8604 77.1507 36.4489 78.5095 38.3794C80.0859 40.6244 81.6574 42.8646 83.2338 45.1047C86.7928 50.1753 90.3566 55.2459 93.9156 60.3166C94.4427 61.0665 95.6854 60.3504 95.1535 59.5956C92.1458 55.3137 89.1381 51.0317 86.1303 46.7449C88.669 45.8498 91.14 48.1819 92.7986 49.885C94.8295 51.9752 96.5897 54.2976 98.0839 56.8039C98.5577 57.5974 99.7957 56.8765 99.3218 56.0781C97.5568 53.1171 95.4195 50.3689 92.9243 47.9884C92.2038 47.3013 91.3866 46.6433 90.5065 46.1353C92.5616 43.9242 95.9514 45.0418 97.8759 46.9191C100.313 49.2948 101.536 52.609 103.751 55.1734C104.356 55.8749 105.366 54.854 104.762 54.1621C102.61 51.6656 101.367 48.4626 99.0751 46.1063C103.04 45.0322 106.822 47.8529 109.056 50.9979C110.328 52.7929 111.343 54.7524 112.392 56.6829C113.572 58.8602 114.747 61.0375 115.917 63.2196C120.647 72.0496 125.26 80.9377 129.583 89.9757C132.015 95.0609 134.355 100.194 136.57 105.381C136.942 106.228 138.176 105.502 137.818 104.66Z" fill="black"/>
<path d="M211.999 172.62C210.65 184.725 201.399 194.199 190.282 198.239C179.204 202.264 167.004 200.992 156.719 195.379C146.013 189.535 137.715 179.626 132.991 168.454C130.229 161.917 128.643 154.786 129.064 147.663C129.461 140.914 124.528 133.54 120.597 127.308C117.705 122.727 119.664 119.601 114.306 120.767C111.182 121.449 108.257 123.472 104.964 123.22C103.392 123.099 101.748 122.485 100.66 121.367C100.297 121.575 99.7315 121.502 99.5477 120.985C98.6096 118.353 98.218 115.542 98.3727 112.75C98.6919 107.016 101.172 101.38 105.341 97.4122C109.644 93.3141 115.583 91.1804 121.487 91.1514C127.463 91.1223 133.556 91.9303 138.024 95.893C142.376 99.754 148.01 105.787 148.285 114.646C148.46 120.303 145.515 125.518 150.974 129.186C155.868 132.476 162.289 130.995 167.782 131.044C170.558 131.068 173.401 131.382 175.945 132.563C178.372 133.69 180.108 135.664 181.172 138.098C182.25 140.561 182.72 143.275 183.962 145.665C184.552 146.797 185.336 147.833 186.428 148.525C187.816 149.4 189.46 149.647 191.071 149.739C194.136 149.913 197.086 149.855 199.987 151.031C202.599 152.086 204.924 153.76 206.82 155.84C210.95 160.398 212.676 166.538 211.999 172.62Z" fill="black"/>
<path d="M211.384 157.074C209.914 154.128 207.458 151.636 204.373 150.417C200.253 148.791 195.872 150.049 191.636 150.315C189.634 150.441 187.506 150.364 185.654 149.546C184.591 147.683 184.15 145.264 184.078 143.396C183.909 139.071 184.358 134.184 181.061 130.831C177.951 127.672 173.169 127.135 168.981 127.594C163.986 128.141 158.894 129.941 153.851 128.775C151.433 128.218 149.233 126.951 148 124.74C146.883 122.741 146.675 120.283 148.038 118.353C148.57 117.598 147.328 116.882 146.801 117.627C144.397 121.033 146.032 125.848 149.146 128.204C153.227 131.291 158.74 130.749 163.464 129.921C168.459 129.046 174.136 127.744 178.71 130.739C183.304 133.749 182.366 139.526 182.695 144.248C182.777 145.462 183.024 146.769 183.449 148.017C182.356 146.894 181.689 145.409 181.868 143.783C181.965 142.869 180.533 142.874 180.437 143.783C180.113 146.788 182.153 149.357 184.726 150.668C185.882 152.42 187.56 153.702 189.842 153.838C190.761 153.891 190.761 152.459 189.842 152.405C188.899 152.352 188.096 152.042 187.419 151.559C191.07 152.246 194.827 151.225 198.498 151.046C202.439 150.852 205.92 152.086 208.469 155.163C210.717 157.882 211.766 161.41 211.583 164.917C211.336 169.562 209.112 173.922 206.162 177.434C205.572 178.136 206.583 179.157 207.173 178.445C212.081 172.601 215.001 164.332 211.384 157.074Z" fill="black"/>
<path d="M126.872 126.888C126.215 126.288 125.412 125.862 124.551 125.722C122.564 124.948 120.311 125.557 118.961 127.226C117.361 127.038 116.316 125.48 115.91 124.038C115.456 122.422 115.446 120.68 115.407 119.016C115.325 115.397 115.572 111.758 116.176 108.188C116.853 104.167 117.956 100.228 119.45 96.4351C119.711 95.7771 118.952 95.4045 118.439 95.6513C118.328 95.4965 118.144 95.3949 117.878 95.4142C108.826 96.2367 100.765 102.836 98.0331 111.453C97.7865 111.497 97.5737 111.657 97.5205 111.952C96.6985 116.601 97.4141 121.42 99.3967 125.644C100.224 129.007 102.462 131.905 105.509 133.55C106.814 134.47 108.255 135.2 109.798 135.708C109.846 135.815 109.895 135.916 109.938 136.023C109.803 136.139 109.721 136.313 109.74 136.531C110.112 140.426 110.494 144.345 111.428 148.148C112.23 151.404 113.396 155.352 116.026 157.626C118.265 159.556 121.979 159.963 123.831 157.278C125.61 154.694 124.745 150.93 124.223 148.09C123.56 144.48 122.53 140.958 121.191 137.552C122.438 138.016 123.86 138.006 125.088 137.411C125.799 137.068 126.384 136.56 126.829 135.955C127.095 136.1 127.448 136.095 127.699 135.863C128.488 135.132 128.753 134.01 128.492 133.018C128.86 130.802 128.652 128.513 126.872 126.888Z" fill="white"/>
<path d="M120.941 96.2901C115.853 96.1837 110.805 97.6594 106.608 100.543C99.0257 105.754 95.4957 115.697 98.6437 124.454C100.897 130.715 106.864 135.249 113.353 136.047C113.503 136.511 113.426 137.039 113.165 137.46C110.254 137.102 107.42 136.061 104.94 134.455C101.042 131.934 98.1746 128.131 96.8835 123.661C95.5199 118.943 95.8874 113.747 97.7588 109.218C101.535 100.079 111.25 94.6547 120.941 94.8531C121.859 94.8773 121.859 96.3094 120.941 96.2901Z" fill="black"/>
<path d="M110.684 107.142C110.723 106.954 110.737 106.755 110.723 106.562C110.718 106.494 110.704 106.431 110.684 106.368C110.617 105.996 110.283 105.797 109.983 105.783C108.866 105.739 107.986 106.634 107.909 107.718C107.851 108.057 107.846 108.337 107.909 108.608C108.005 109 108.421 109.184 108.789 109.107C109.108 109.039 109.403 108.904 109.664 108.715C110.22 108.366 110.578 107.786 110.684 107.142Z" fill="black"/>
<path d="M103.136 110.36C101.622 111.1 99.8668 111.115 98.3436 110.384C97.5167 109.987 96.7865 111.226 97.6231 111.623C99.6395 112.586 101.849 112.576 103.861 111.599C104.688 111.192 103.963 109.953 103.136 110.36Z" fill="black"/>
<path d="M125.49 124.86C123.015 124.014 120.133 124.769 118.353 126.665C117.724 127.338 118.735 128.354 119.364 127.676C120.955 125.973 123.624 125.407 125.727 126.506C127.7 127.541 128.88 129.96 128.493 132.157C128.087 134.45 126.037 136.323 123.73 136.584C121.312 136.86 118.885 135.277 118.015 133.037C117.681 132.186 116.298 132.558 116.632 133.42C118.445 138.069 124.46 139.593 128.044 135.945C131.404 132.529 130.089 126.438 125.49 124.86Z" fill="black"/>
<path d="M124.36 130.328H118.862C117.938 130.328 117.938 131.76 118.862 131.76H124.36C125.283 131.76 125.283 130.328 124.36 130.328Z" fill="black"/>
<path d="M112.26 149.928C112.192 148.51 111.873 147.064 111.68 145.656L110.36 136.236C110.234 135.326 108.851 135.713 108.977 136.618C109.32 139.061 109.659 141.505 110.002 143.948C110.166 145.109 110.326 146.275 110.49 147.436C110.597 148.191 111.375 150.857 110.234 151.017C109.325 151.143 109.712 152.526 110.616 152.401C111.83 152.226 112.313 151.026 112.26 149.928Z" fill="black"/>
<path d="M33.6308 23.5158C26.4354 31.6539 22.2333 42.187 21.8658 53.0492C21.832 53.9733 23.2681 53.9685 23.2972 53.0492C23.655 42.5838 27.7072 32.3797 34.6462 24.5319C35.2555 23.84 34.2449 22.8239 33.6308 23.5158Z" fill="black"/>
<path d="M59.4612 63.2728C59.466 63.3308 59.4612 63.3937 59.4515 63.4566C58.7262 67.6902 58.0009 71.9238 57.2755 76.1573C57.3432 76.288 57.3722 76.4476 57.3384 76.6218L52.7494 102.512C52.6672 102.981 52.1643 103.107 51.7823 102.967C51.6566 103.073 51.5019 103.136 51.3278 103.136C41.9226 103.126 32.619 101.114 24.0358 97.272C23.7457 97.1413 23.6393 96.7446 23.707 96.464L27.6964 79.9071C27.764 79.6313 27.9381 79.4813 28.1461 79.4232C27.648 76.7766 27.1644 74.1301 26.7389 71.469C25.5107 63.8582 24.7031 56.0249 25.3076 48.3319C25.1045 48.3706 24.8821 48.3367 24.7128 48.2255C24.4082 49.0625 23.2428 48.9948 23.267 48.1432C23.354 44.9983 24.4469 42.013 26.3762 39.5599C26.8743 38.2052 27.3724 36.8456 27.8704 35.4909C28.1847 34.6345 29.5484 34.9925 29.2534 35.8731C28.9488 36.7634 28.6731 37.6633 28.4265 38.5681C29.2099 37.9875 30.0609 37.5036 30.9459 37.1359C35.0126 35.4377 39.9255 35.3264 44.2582 35.7328C48.5812 36.1392 52.9187 37.5278 55.9361 40.8034C61.6179 46.982 61.0328 55.5217 59.4612 63.2728Z" fill="white"/>
<path d="M60.6263 56.2187C57.6669 75.9979 54.0692 95.6755 49.8333 115.218C48.6389 120.733 47.3865 126.244 46.0905 131.736C45.8778 132.631 47.2607 133.018 47.4735 132.118C52.0673 112.653 56.0325 93.0483 59.3497 73.3271C60.2878 67.7582 61.1727 62.1844 62.0092 56.6009C62.1446 55.6961 60.7617 55.3042 60.6263 56.2187Z" fill="black"/>
<path d="M58.5274 64.4534H33.6049C29.3206 64.4534 25.8486 60.9794 25.8486 56.6926V9.86206C25.8486 5.57526 29.3206 2.10132 33.6049 2.10132H58.5274C62.8117 2.10132 66.2837 5.57526 66.2837 9.86206V56.6926C66.2837 60.9794 62.8117 64.4534 58.5274 64.4534Z" fill="black"/>
<path d="M58.0784 58.2747H33.9586C31.2845 58.2747 29.1182 56.1072 29.1182 53.4315V9.54273C29.1182 6.86711 31.2845 4.69952 33.9586 4.69952H58.0784C60.7525 4.69952 62.9188 6.86711 62.9188 9.54273V53.4315C62.9188 56.1072 60.7525 58.2747 58.0784 58.2747Z" fill="white"/>
<path d="M45.2159 66.6597C42.7932 62.818 38.9828 59.9392 34.4277 59.4118C33.272 58.5844 32.3968 57.4039 31.9326 56.025C34.1134 53.8041 36.154 51.4527 38.0496 48.9754C39.0795 47.6304 40.3368 46.0724 40.1143 44.2629C39.9403 42.8452 38.8329 41.6018 37.3532 41.6211C37.0534 41.626 36.831 41.8002 36.7246 42.0324C35.8494 41.7808 34.9016 41.7953 33.9635 42.0034C32.3291 42.3662 30.8204 43.271 29.3649 44.0693C27.9626 44.8338 27.1212 45.995 25.7962 46.8901C23.3301 48.5545 20.9848 50.5721 19.5148 53.2042C17.8417 56.204 17.1116 59.315 18.0061 62.5906C19.0361 66.3404 21.3088 69.5192 23.6541 72.5625C24.8291 74.6817 26.0042 76.7961 27.1792 78.9153C26.8262 81.4796 26.478 84.0439 26.1299 86.6083C25.1144 90.0725 24.0989 93.5368 23.0786 97.0011C22.9336 97.4897 23.2914 97.8236 23.6831 97.8768C23.7073 99.3912 24.4133 100.857 25.5496 101.907C27.2179 103.451 29.5486 103.823 31.7246 103.378C36.6424 102.367 39.8871 97.4946 42.4354 93.5562C47.5514 85.6261 50.6365 75.2623 45.2159 66.6597Z" fill="white"/>
<path d="M47.5792 84.8809C47.2407 85.7276 45.8577 85.3551 46.1962 84.4987C48.3432 79.1087 48.0143 72.8624 45.0888 67.8208C42.5888 63.5147 38.3964 60.3455 33.614 59.0247C33.2514 59.1892 32.734 59.0972 32.5599 58.6134C32.3471 58.0134 32.1295 57.4183 31.9167 56.8232C31.762 56.9538 31.6073 57.0893 31.4477 57.22C30.7417 57.8054 29.7262 56.7942 30.4371 56.2039C30.8239 55.8846 31.2011 55.5556 31.5734 55.2217C31.6363 55.1153 31.733 55.0378 31.8442 54.9798C33.3239 53.6347 34.702 52.1881 35.9641 50.6301C36.8345 49.5511 37.6856 48.419 38.4012 47.2239C39.0202 46.1885 39.6972 44.8337 39.3007 43.6C38.6962 41.7178 36.2107 41.7372 34.6488 42.1243C32.4777 42.6613 30.4757 43.8564 28.6817 45.1579C26.8346 46.4981 25.1131 48.0367 23.44 49.5898C21.8781 51.0414 20.3549 52.5896 19.2621 54.4379C16.7476 58.6957 17.9855 63.4373 20.3114 67.4773C22.6228 71.4883 25.7901 74.9235 27.5937 79.2345C27.6276 79.3168 27.6469 79.399 27.6518 79.4764C27.6663 79.5635 27.6711 79.6603 27.6518 79.7619C26.6315 85.0696 25.4516 90.3386 24.1073 95.5689C23.1982 95.3463 22.7147 95.2253 22.7147 95.2253C24.0396 90.0628 25.205 84.8615 26.2204 79.6313C23.8945 74.0768 19.1895 69.911 17.2118 64.1872C16.4042 61.8454 16.0996 59.2956 16.704 56.8668C17.2746 54.5734 18.6238 52.5751 20.1808 50.8333C21.8443 48.9754 23.7543 47.3158 25.6644 45.7192C27.5551 44.137 29.5715 42.6468 31.8297 41.6356C33.7059 40.7937 35.8481 40.1357 37.9128 40.6873C39.9583 41.234 41.1092 43.0581 40.7707 45.1434C40.379 47.5384 38.556 49.6866 37.0811 51.5252C35.8577 53.0541 34.5134 54.4766 33.0773 55.8023C33.29 56.3878 33.498 56.978 33.7107 57.5683C38.9622 58.9279 43.5995 62.4018 46.3316 67.1047C49.4263 72.4415 49.8567 79.1523 47.5792 84.8809Z" fill="black"/>
<path d="M138.024 111.695C138.009 118.227 135.253 124.575 130.611 129.147C130.19 129.563 129.615 129.312 129.416 128.828C128.493 126.598 126.307 125.151 123.904 125.112C122.71 125.093 121.51 125.417 120.495 126.046C120.006 126.351 119.465 127.057 118.885 127.159C116.921 127.497 114.61 123.627 113.831 122.267C111.878 118.851 111.544 115.092 111.389 111.236C111.259 107.955 111.549 104.597 112.637 101.482C113.208 99.8462 114.03 98.2689 115.06 96.8561C116.897 94.2047 119.523 92.1338 122.676 91.2387C122.845 91.1904 122.99 91.2049 123.116 91.2533C123.227 91.2242 123.343 91.2 123.454 91.1758C123.967 91.0742 124.305 91.471 124.344 91.8677C126.501 91.9016 128.643 92.7386 130.393 94.0982C135.538 98.0899 138.043 105.372 138.024 111.695Z" fill="black"/>
<path d="M164.79 197.857C151.593 214.061 131.492 224.41 108.973 224.41C100.133 224.41 91.6661 222.813 83.8421 219.896L84.2773 212.416C84.2773 212.416 77.7638 212.319 71.9805 204.171C66.202 196.028 69.7223 186.758 69.7223 186.758C69.7223 186.758 58.7068 187.861 46.9419 188.93C42.0145 189.38 36.9565 189.82 32.5174 190.174C17.4836 191.369 7.41597 191.19 1.15875 176.704C-3.59462 165.701 7.42081 139.322 13.5088 121.638C19.7854 103.397 22.619 95.4722 22.706 95.2303C22.706 95.2255 23.1944 95.3416 24.1035 95.569C26.4584 96.1496 31.6567 97.4463 38.5764 99.2655C48.1605 101.781 54.2291 101.109 54.2291 101.109L53.0976 107.021L45.2736 147.872C45.2736 147.872 65.2397 140.537 81.3131 141.345C97.3866 142.153 110.747 149.807 129.92 155.758C149.093 161.705 165.989 163.742 167.212 175.354C167.662 179.549 166.477 188.345 164.79 197.857Z" fill="#40C9FF"/>
<path d="M164.07 111.405C162.431 114.598 159.597 117.187 156.174 118.324C145.124 122.001 130.898 112.009 133.074 99.9668C134.36 92.835 141.923 86.4919 149.181 86.521C156.759 86.5548 163.156 92.3319 165.119 99.4636C166.203 103.407 165.946 107.742 164.07 111.405Z" fill="black"/>
<path d="M210.607 178.692C210.099 196.328 168.6 208.298 154.2 207.19C146.337 206.585 138.131 204.35 132.125 199.008C129.403 196.584 127.203 193.546 125.936 190.115C124.587 186.453 124.911 182.2 122.933 178.765C121.951 177.061 120.423 175.789 118.997 174.483C117.638 173.239 116.395 171.909 115.443 170.322C113.595 167.235 112.836 163.577 112.88 160.006C112.938 155.424 114.379 151.031 116.347 146.933C117.768 143.972 120.825 139.196 123.832 137.605C128.508 135.127 131.497 138.33 136.298 139.216C142.038 140.271 147.604 142.138 152.962 144.417C161.448 148.022 169.915 151.786 178.15 155.952C185.254 159.547 192.855 163.587 197.154 170.583C199.533 174.449 210.698 175.387 210.607 178.692Z" fill="black"/>
<path d="M103.621 103.01C102.035 104.534 99.5928 104.805 97.7021 103.697C96.9043 103.228 96.1838 104.467 96.9768 104.936C99.4284 106.373 102.586 105.991 104.631 104.026C105.299 103.388 104.283 102.372 103.621 103.01Z" fill="black"/>
<path d="M45.3032 146.309C37.5324 148.336 29.7568 150.358 21.9861 152.386C21.0963 152.618 21.4735 154.002 22.3681 153.769C30.1388 151.742 37.9144 149.72 45.6852 147.692C46.5749 147.455 46.1978 146.072 45.3032 146.309Z" fill="white"/>
<path d="M76.9322 0.770909C76.4728 1.24991 76.0135 1.72407 75.5492 2.20307C73.7504 4.07067 71.9516 5.93345 70.1527 7.80106L50.7621 27.9141C49.118 29.6221 47.4691 31.33 45.8202 33.038C44.7176 34.1798 43.325 35.5975 41.8888 34.0298C41.1635 33.2412 40.6364 32.2058 40.0513 31.3058C39.4662 30.4107 38.8763 29.5108 38.2912 28.6157C36.9904 26.6223 35.6848 24.6289 34.384 22.6306C34.1471 22.2678 34.2922 21.9194 34.563 21.7259C34.679 21.5662 34.8531 21.4501 35.0997 21.4307C37.1935 21.2662 39.2825 21.0969 41.3763 20.9324C41.6229 20.913 41.8743 21.0824 41.9952 21.2856C42.677 22.4274 43.354 23.5741 44.0358 24.716C50.588 17.2068 57.1402 9.6977 63.6973 2.18855C64.1131 1.71439 64.5241 1.23539 64.94 0.76123H76.9322V0.770909Z" fill="#40C9FF"/>
<path d="M154.403 88.3597C156.453 90.1451 157.899 92.4917 158.445 95.1625C158.629 96.0672 160.012 95.685 159.828 94.7802C158.76 89.55 154.359 85.3116 149.2 84.1068C143.856 82.8585 138.523 85.268 135.36 89.6371C133.586 92.0853 132.619 95.0899 132.744 98.1235C132.783 99.0428 134.214 99.0477 134.176 98.1235C133.973 93.2755 136.869 88.6645 141.139 86.4437C145.501 84.1842 150.762 85.1906 154.403 88.3597Z" fill="black"/>
<path d="M163.948 110.578C163.808 116.045 158.92 120.985 153.407 120.98C147.89 120.975 143.01 116.031 142.885 110.558C142.865 109.639 141.429 109.634 141.453 110.558C141.569 115.431 144.872 119.819 149.35 121.614C154.021 123.487 159.287 121.793 162.478 118.014C164.248 115.914 165.322 113.336 165.39 110.578C165.404 109.654 163.968 109.654 163.948 110.578Z" fill="black"/>
<path d="M162.464 72.3256C161.332 75.0205 160.201 77.7203 159.069 80.4153C158.711 81.2669 160.099 81.6346 160.452 80.7975C161.584 78.1026 162.715 75.4028 163.847 72.7078C164.205 71.8562 162.817 71.4885 162.464 72.3256Z" fill="#FFCF34"/>
<path d="M172.257 80.541C169.544 81.6296 166.827 82.7134 164.114 83.802C163.268 84.1407 163.635 85.5293 164.496 85.1858C167.209 84.0971 169.926 83.0133 172.639 81.9247C173.48 81.586 173.113 80.1974 172.257 80.541Z" fill="#FFCF34"/>
<path d="M177.328 90.7546C173.706 90.9191 170.089 91.0836 166.467 91.253C165.548 91.2965 165.544 92.7287 166.467 92.6851C170.089 92.5206 173.706 92.3561 177.328 92.1868C178.247 92.1432 178.252 90.7111 177.328 90.7546Z" fill="#FFCF34"/>
<path d="M61.1141 0.601445L43.0146 0.175671C40.1229 0.107933 37.2071 -0.0710875 34.3106 0.0305181C31.8444 0.11277 29.2719 0.553062 27.27 2.09166C25.3164 3.59156 24.0978 5.89946 24.5185 8.38638C24.6684 9.26212 26.0031 8.88957 25.8532 8.01866C25.3406 4.98984 28.1355 2.64324 30.7613 1.90297C33.8077 1.04658 37.1587 1.42397 40.2825 1.49655C47.2264 1.66105 54.1702 1.82071 61.1141 1.98522C62.0039 2.00457 62.0039 0.620799 61.1141 0.601445Z" fill="#40C9FF"/>
</svg>
