<svg width="43" height="49" viewBox="0 0 43 49" fill="none" xmlns="http://www.w3.org/2000/svg">
<path d="M41.1557 21.4965C40.4627 21.1179 34.521 17.6315 32.2915 16.3193L32.2851 16.3148L5.27942 0.548009C4.81934 0.263995 4.30345 0.0850692 3.76784 0.0237499C3.23223 -0.0375694 2.68984 0.0201985 2.17862 0.193012C2.12093 0.21396 2.06672 0.235041 2.01063 0.261003C1.88042 0.303924 1.75313 0.355453 1.6296 0.415258C1.11325 0.727365 0.689635 1.17445 0.403332 1.70946C0.117028 2.24448 -0.0213775 2.84764 0.00267717 3.45548V45.7639C-0.0137112 46.3302 0.118914 46.8907 0.386992 47.3882C0.655071 47.8856 1.04898 48.3022 1.52845 48.5952C1.63904 48.6499 1.75297 48.6973 1.86956 48.7372C1.93331 48.767 1.99409 48.7929 2.05986 48.8164C2.37545 48.9321 2.70782 48.9942 3.04347 49C3.68803 48.993 4.31949 48.8151 4.87485 48.4842C5.73135 47.9815 32.2851 32.4779 32.2851 32.4779L41.145 27.305C41.6927 27.0275 42.1551 26.6039 42.482 26.0799C42.809 25.556 42.9881 24.9516 43 24.3322C42.973 23.7355 42.7875 23.1572 42.4629 22.6582C42.1384 22.1592 41.6868 21.7579 41.1557 21.4965Z" fill="white"/>
</svg>
