<svg width="48" height="48" viewBox="0 0 48 48" fill="none" xmlns="http://www.w3.org/2000/svg">
<path fill-rule="evenodd" clip-rule="evenodd" d="M28 11C28 7.13401 31.134 4 35 4C38.866 4 42 7.13401 42 11C42 14.866 38.866 18 35 18C33.0457 18 31.2785 17.1991 30.0086 15.9077L19.7461 22.1253C19.9116 22.722 20 23.3507 20 24C20 24.5833 19.9286 25.15 19.7942 25.6917L30.2421 31.8655C31.4909 30.7078 33.1628 30 35 30C38.866 30 42 33.134 42 37C42 40.866 38.866 44 35 44C31.134 44 28 40.866 28 37C28 36.4167 28.0713 35.8501 28.2058 35.3084L17.7578 29.1346C16.509 30.2923 14.8371 31 13 31C9.13403 31 6 27.866 6 24C6 20.134 9.13403 17 13 17C14.769 17 16.3847 17.6562 17.617 18.7384L28.1334 12.3669C28.0459 11.9248 28 11.4678 28 11ZM35 8C33.3432 8 32 9.34315 32 11C32 12.6568 33.3432 14 35 14C36.6568 14 38 12.6568 38 11C38 9.34315 36.6568 8 35 8ZM13 21C11.3432 21 10 22.3432 10 24C10 25.6568 11.3432 27 13 27C14.6568 27 16 25.6568 16 24C16 22.3432 14.6568 21 13 21ZM35 34C33.3432 34 32 35.3432 32 37C32 38.6568 33.3432 40 35 40C36.6568 40 38 38.6568 38 37C38 35.3432 36.6568 34 35 34Z" fill="black" fill-opacity="0.65"/>
<path d="M32 11C32 9.34315 33.3432 8 35 8C36.6568 8 38 9.34315 38 11C38 12.6568 36.6568 14 35 14C33.3432 14 32 12.6568 32 11Z" fill="#91D5FF"/>
<path d="M10 24C10 22.3432 11.3432 21 13 21C14.6568 21 16 22.3432 16 24C16 25.6568 14.6568 27 13 27C11.3432 27 10 25.6568 10 24Z" fill="#91D5FF"/>
<path d="M32 37C32 35.3432 33.3432 34 35 34C36.6568 34 38 35.3432 38 37C38 38.6568 36.6568 40 35 40C33.3432 40 32 38.6568 32 37Z" fill="#91D5FF"/>
</svg>
