<svg width="116" height="116" viewBox="0 0 116 116" fill="none" xmlns="http://www.w3.org/2000/svg">
<path d="M75.9181 25.5827L61.4181 11.0827C60.9694 10.6338 60.4367 10.2777 59.8503 10.0347C59.264 9.79174 58.6355 9.66669 58.0008 9.66669C57.3661 9.66669 56.7376 9.79174 56.1512 10.0347C55.5649 10.2777 55.0321 10.6338 54.5835 11.0827L40.0834 25.5827C39.1866 26.491 38.6854 27.7172 38.6895 28.9937C38.6935 30.2702 39.2024 31.4932 40.105 32.3958C41.0076 33.2983 42.2307 33.8072 43.5072 33.8112C44.7836 33.8152 46.0098 33.314 46.9181 32.4171L53.1676 26.1679V82.1665C53.1676 83.4484 53.6768 84.6778 54.5832 85.5842C55.4897 86.4907 56.719 86.9999 58.0009 86.9999C59.2828 86.9999 60.5122 86.4907 61.4186 85.5842C62.325 84.6778 62.8342 83.4484 62.8342 82.1665V26.1679L69.0838 32.4173C69.992 33.3142 71.2183 33.8154 72.4947 33.8113C73.7712 33.8073 74.9942 33.2984 75.8968 32.3958C76.7994 31.4931 77.3082 30.2701 77.3122 28.9936C77.3162 27.7172 76.815 26.491 75.9181 25.5827Z" fill="#6563FF"/>
<path d="M87 43.5H62.8333V82.1667C62.8333 83.4486 62.3241 84.6779 61.4177 85.5844C60.5113 86.4908 59.2819 87 58 87C56.7181 87 55.4887 86.4908 54.5823 85.5844C53.6759 84.6779 53.1667 83.4486 53.1667 82.1667V43.5H29C25.1556 43.5042 21.47 45.0332 18.7516 47.7516C16.0332 50.47 14.5042 54.1557 14.5 58V91.8333C14.5042 95.6777 16.0332 99.3634 18.7516 102.082C21.47 104.8 25.1556 106.329 29 106.333H87C90.8444 106.329 94.53 104.8 97.2484 102.082C99.9668 99.3634 101.496 95.6777 101.5 91.8333V58C101.496 54.1557 99.9668 50.47 97.2484 47.7516C94.53 45.0332 90.8444 43.5042 87 43.5Z" fill="#A2A1FF"/>
</svg>
