<svg width="48" height="48" viewBox="0 0 48 48" fill="none" xmlns="http://www.w3.org/2000/svg">
<path fill-rule="evenodd" clip-rule="evenodd" d="M14 2C9.02943 2 5 6.02944 5 11C5 15.9706 9.02943 20 14 20C18.9706 20 23 15.9706 23 11C23 6.02944 18.9706 2 14 2ZM9 11C9 8.23858 11.2386 6 14 6C16.7614 6 19 8.23858 19 11C19 13.7614 16.7614 16 14 16C11.2386 16 9 13.7614 9 11Z" fill="black" fill-opacity="0.65"/>
<path fill-rule="evenodd" clip-rule="evenodd" d="M34 2C29.0294 2 25 6.02944 25 11C25 15.9706 29.0294 20 34 20C38.9706 20 43 15.9706 43 11C43 6.02944 38.9706 2 34 2ZM29 11C29 8.23858 31.2386 6 34 6C36.7614 6 39 8.23858 39 11C39 13.7614 36.7614 16 34 16C31.2386 16 29 13.7614 29 11Z" fill="black" fill-opacity="0.65"/>
<path d="M12.4211 27C9.18309 27 6 30.2459 6 35V44C6 45.1046 5.10457 46 4 46C2.89543 46 2 45.1046 2 44V35C2 28.7085 6.35737 23 12.4211 23H17.4737C20.199 23 22.2879 24.3425 23.6051 25.5254C23.7379 25.6447 23.8645 25.7638 23.9849 25.8816C24.0986 25.7685 24.2178 25.6542 24.3425 25.5398C25.6278 24.3605 27.6838 23 30.3658 23H35.4785C41.5774 23 45.9998 28.6847 45.9998 35V44C45.9998 45.1046 45.1044 46 43.9998 46C42.8952 46 41.9998 45.1046 41.9998 44V35C41.9998 30.2697 38.792 27 35.4785 27H30.3658C29.0866 27 27.9559 27.653 27.0467 28.4871C26.6053 28.8921 26.2596 29.3016 26.0267 29.608C25.9113 29.7598 25.8271 29.8817 25.7762 29.9586C25.3607 30.5856 24.7866 31.0269 24.0001 31.0269C23 31 22.5163 30.3953 22.2324 29.9771C22.1787 29.8979 22.092 29.7751 21.9742 29.6232C21.7364 29.3165 21.3839 28.9069 20.9324 28.5015C20.0077 27.671 18.8334 27 17.4737 27H12.4211Z" fill="black" fill-opacity="0.65"/>
<path d="M15.7405 37.6495C16.5233 36.8702 16.5262 35.6039 15.7469 34.8211C14.9676 34.0383 13.7013 34.0354 12.9185 34.8147L9.14086 38.5754C8.36013 39.3527 8.35494 40.6149 9.12925 41.3985L12.9068 45.2216C13.6832 46.0073 14.9495 46.0149 15.7352 45.2386C16.5209 44.4622 16.5285 43.1959 15.7522 42.4102L15.3469 42H33.2949L32.8583 42.4512C32.0901 43.2449 32.1108 44.5111 32.9045 45.2792C33.6982 46.0474 34.9644 46.0267 35.7325 45.233L39.4512 41.3907C40.2089 40.6079 40.2006 39.3626 39.4326 38.5899L35.7139 34.8484C34.9353 34.065 33.6689 34.0611 32.8855 34.8398C32.1021 35.6184 32.0982 36.8848 32.8769 37.6682L33.2067 38H15.3884L15.7405 37.6495Z" fill="black" fill-opacity="0.65"/>
<path d="M14 6C11.2386 6 9 8.23858 9 11C9 13.7614 11.2386 16 14 16C16.7614 16 19 13.7614 19 11C19 8.23858 16.7614 6 14 6Z" fill="#91D5FF"/>
<path d="M34 6C31.2386 6 29 8.23858 29 11C29 13.7614 31.2386 16 34 16C36.7614 16 39 13.7614 39 11C39 8.23858 36.7614 6 34 6Z" fill="#91D5FF"/>
</svg>
