<svg width="95" height="61" viewBox="0 0 95 61" fill="none" xmlns="http://www.w3.org/2000/svg">
<path d="M22.4862 60.1081C17.8082 60.1081 13.793 58.9244 10.4407 56.5569C7.10741 54.1706 4.54112 50.7331 2.74188 46.2444C0.961574 41.7369 0.0714223 36.3107 0.0714223 29.966C0.0903617 23.6213 0.989983 18.2236 2.77029 13.7728C4.56953 9.30315 7.13582 5.89406 10.4691 3.54558C13.8214 1.19709 17.8271 0.0228472 22.4862 0.0228472C27.1453 0.0228472 31.151 1.19709 34.5032 3.54558C37.8555 5.89406 40.4218 9.30315 42.2021 13.7728C44.0013 18.2425 44.901 23.6403 44.901 29.966C44.901 36.3297 44.0013 41.7653 42.2021 46.2728C40.4218 50.7615 37.8555 54.1895 34.5032 56.5569C31.1699 58.9244 27.1642 60.1081 22.4862 60.1081ZM22.4862 51.216C26.1226 51.216 28.9919 49.4263 31.0942 45.8467C33.2154 42.2482 34.276 36.9547 34.276 29.966C34.276 25.3448 33.793 21.4622 32.8271 18.3183C31.8612 15.1744 30.4976 12.8069 28.7362 11.216C26.9748 9.60618 24.8915 8.80126 22.4862 8.80126C18.8688 8.80126 16.0089 10.6005 13.9066 14.199C11.8044 17.7785 10.7438 23.0342 10.7248 29.966C10.7059 34.6062 11.1699 38.5077 12.1169 41.6706C13.0828 44.8335 14.4464 47.2198 16.2078 48.8297C17.9691 50.4206 20.062 51.216 22.4862 51.216ZM54.3399 59.0001V51.3865L74.5388 31.5853C76.4706 29.6346 78.0804 27.9016 79.3683 26.3865C80.6562 24.8713 81.6221 23.4035 82.266 21.9831C82.91 20.5626 83.2319 19.0475 83.2319 17.4376C83.2319 15.6005 82.8153 14.0285 81.9819 12.7217C81.1486 11.396 80.0028 10.3732 78.5444 9.65353C77.0861 8.93383 75.4289 8.57398 73.5728 8.57398C71.66 8.57398 69.9838 8.97171 68.5444 9.76717C67.105 10.5437 65.9876 11.6516 65.1922 13.091C64.4156 14.5304 64.0274 16.2444 64.0274 18.2331H53.999C53.999 14.5399 54.8418 11.3297 56.5274 8.60239C58.213 5.87512 60.5331 3.76338 63.4876 2.26717C66.4611 0.770954 69.8702 0.0228472 73.7149 0.0228472C77.6164 0.0228472 81.0444 0.752014 83.999 2.21035C86.9535 3.66868 89.2452 5.66679 90.874 8.20467C92.5217 10.7425 93.3456 13.6403 93.3456 16.8978C93.3456 19.0759 92.9289 21.216 92.0956 23.3183C91.2622 25.4206 89.7944 27.7501 87.6922 30.3069C85.6088 32.8638 82.6827 35.9603 78.9138 39.5967L68.8853 49.7956V50.1933H94.2263V59.0001H54.3399Z" fill="url(#paint0_linear_84_1501)"/>
<defs>
<linearGradient id="paint0_linear_84_1501" x1="47.3335" y1="-17.9999" x2="47.3335" y2="78.0001" gradientUnits="userSpaceOnUse">
<stop stopColor="#FFC300"/>
<stop offset="1" stopColor="#FFC300" stopOpacity="0"/>
</linearGradient>
</defs>
</svg>
