<svg width="37" height="37" viewBox="0 0 37 37" fill="none" xmlns="http://www.w3.org/2000/svg">
<circle cx="18.5" cy="18.5" r="18.5" fill="#FD6C36"/>
<path fillRule="evenodd" clipRule="evenodd" d="M17.9918 21.8992C18.3836 22.8113 18.6903 23.6065 19.1029 24.3703C19.4943 25.0957 20.0073 25.7697 20.3328 26.5544C20.3003 26.6314 20.2876 26.6737 20.2437 26.7694C20.2186 26.8241 20.1944 26.9281 20.1547 26.9844C20.1411 27.0038 20.0556 26.9977 20.0496 27.0196C20.0419 27.0453 20.0046 27.147 19.9896 27.1628C19.9745 27.1786 19.8904 27.1778 19.8845 27.198C19.8438 27.3373 19.2199 27.8371 18.9152 27.8936C18.8704 27.902 18.8023 27.9521 18.7572 27.9465C18.7224 27.9425 18.6889 27.8636 18.6582 27.8557C18.4814 27.8132 18.1481 27.723 17.9465 27.5995C17.9237 27.5857 17.9245 27.5003 17.9007 27.4917C17.8307 27.4655 17.8123 27.4676 17.7487 27.4186C17.6556 27.3473 17.6128 27.2864 17.5509 27.2376C17.4755 27.1777 17.379 27.1745 17.3237 27.1277C17.2537 27.0692 17.2492 26.9922 17.1788 26.929C16.9538 26.7257 16.7197 26.5428 16.4877 26.2948C16.4717 26.2778 16.4616 26.1936 16.4419 26.1869C16.2388 26.1111 15.8575 25.5989 15.6819 25.3906C14.1807 23.6148 12.9825 21.5962 11.9856 18.9654C11.764 18.3815 11.5704 17.8031 11.4076 17.1814C11.2086 16.4196 11.0351 15.4865 10.87 14.6415C10.8654 14.6174 10.8979 14.5743 10.8768 14.5153C10.839 14.4113 10.8575 14.2803 10.8444 14.1549C10.8191 13.9096 10.7591 13.6643 10.7563 13.3809C10.756 13.3537 10.8072 13.368 10.7861 13.3089C10.7737 13.2759 10.7746 12.973 10.7832 12.8775C10.7968 12.7258 10.8012 12.5524 10.9091 12.465C11.4503 11.9904 12.527 11.8507 12.992 12.2621C13.1336 12.4701 13.1126 12.7012 13.1629 12.9464C13.2232 13.2437 13.282 13.4976 13.3498 13.8106C13.4071 14.0742 13.4897 14.5376 13.5761 14.9096C13.6874 15.3873 13.8885 15.9417 13.9634 16.387C13.9787 16.4761 14.0488 16.5709 14.0784 16.6577C14.1536 16.8781 14.2917 17.1972 14.3935 17.5409C14.41 17.5966 14.3841 17.659 14.3868 17.6672C15.1056 19.6611 16.0781 21.5354 17.066 23.2599C17.113 23.1052 16.986 22.9353 16.9349 22.8094C16.0325 20.5942 15.5088 18.3977 15.308 16.4321C15.206 15.4304 15.2256 14.4169 15.3111 13.464C15.3182 13.384 15.2934 13.4014 15.3179 13.3378C15.336 13.2912 15.354 13 15.3679 12.8887C15.3744 12.8377 15.342 12.7692 15.3519 12.7089C15.3556 12.6836 15.4338 12.6401 15.4346 12.6192C15.4375 12.3512 15.5247 11.9954 15.5871 11.7026C15.6121 11.5851 15.6004 11.4873 15.6301 11.379C15.6456 11.3209 15.7267 11.2747 15.7419 11.2176C15.7715 11.1052 15.7833 10.8904 15.8448 10.7508C15.898 10.6296 16.0063 10.5355 16.0688 10.4286C16.0799 10.4092 16.0634 10.3155 16.0759 10.3031C16.2653 10.1156 16.4989 9.77621 16.7124 9.53361C17.1266 9.4181 17.3607 9.35462 17.5859 9.17922C17.7532 9.04964 17.9885 8.97582 18.3244 8.932C18.9536 8.85033 19.4308 9.00804 19.9347 9.31965C20.7166 9.8036 21.3966 10.6523 21.8625 12.0117C22.1475 12.843 22.2201 13.7206 22.2719 14.5325C22.344 15.6781 22.206 16.8015 21.939 17.8581C21.769 18.5292 21.5246 19.2013 21.2117 19.8318C21.1725 19.9102 21.0896 20.2364 20.981 20.2802C20.9382 20.297 20.8306 20.4628 20.7861 20.5307C20.754 20.5803 20.685 20.6587 20.697 20.7457C20.407 20.9163 20.1808 21.2921 19.8265 21.5314C19.2817 21.899 18.6264 22.0671 17.9918 21.8992ZM18.3691 20.6602C18.406 20.6106 18.4631 20.6064 18.504 20.553C18.6782 20.3261 18.7582 20.1199 18.8768 19.8719C19.0222 19.5678 19.1335 19.2932 19.2335 19.0109C19.2829 18.8712 19.3702 18.7205 19.4123 18.5807C19.4356 18.5027 19.3993 18.423 19.4254 18.3291C19.4459 18.2578 19.4981 18.1816 19.5145 18.1141C19.5513 17.9638 19.5882 17.7985 19.6174 17.6473C19.6442 17.5094 19.7293 17.2131 19.6972 17.1263C19.6648 17.0387 19.7939 16.6524 19.777 16.6052C19.7341 16.4889 19.8486 15.9339 19.8177 15.85C19.7953 15.7897 19.8466 15.8081 19.8476 15.778C19.8517 15.6551 19.7987 15.5001 19.7924 15.3641C19.7921 15.3576 19.8416 15.3526 19.8454 15.3464C19.8549 15.3291 19.7997 15.26 19.7992 15.2379C19.7942 15.0725 19.7641 14.6379 19.8101 14.5547C19.8197 14.5374 19.7645 14.4682 19.7639 14.4461C19.7544 14.1376 19.7156 13.834 19.6597 13.4923C19.4836 12.4261 19.0118 10.9183 18.1378 10.4792C18.1025 10.491 18.0672 10.5028 18.032 10.5146C17.916 10.6568 17.8063 10.7381 17.7022 10.8722C17.518 11.1099 17.414 11.3374 17.2993 11.6246C17.1063 12.1108 17.0047 12.6847 16.932 13.1695C16.9085 13.3245 16.8996 13.4647 16.882 13.6186C16.8713 13.7147 16.8255 13.7946 16.816 13.8878C16.8072 13.9751 16.8341 14.1066 16.826 14.1937C16.7754 14.719 16.7651 15.2863 16.7914 15.8123C16.8724 17.4394 17.0976 19.1307 17.7083 20.9442C17.7496 21.066 17.6638 21.2319 17.8461 21.2685C18.0221 21.0665 18.258 20.8082 18.3691 20.6602Z" fill="white"/>
</svg>
