<svg width="97" height="61" viewBox="0 0 97 61" fill="none" xmlns="http://www.w3.org/2000/svg">
<path d="M22.6083 60.1081C17.9302 60.1081 13.9151 58.9244 10.5628 56.5569C7.22948 54.1706 4.66319 50.7331 2.86395 46.2444C1.08364 41.7369 0.193493 36.3107 0.193493 29.966C0.212432 23.6213 1.11205 18.2236 2.89236 13.7728C4.6916 9.30315 7.25789 5.89406 10.5912 3.54558C13.9435 1.19709 17.9492 0.0228472 22.6083 0.0228472C27.2674 0.0228472 31.273 1.19709 34.6253 3.54558C37.9776 5.89406 40.5439 9.30315 42.3242 13.7728C44.1234 18.2425 45.023 23.6403 45.023 29.966C45.023 36.3297 44.1234 41.7653 42.3242 46.2728C40.5439 50.7615 37.9776 54.1895 34.6253 56.5569C31.292 58.9244 27.2863 60.1081 22.6083 60.1081ZM22.6083 51.216C26.2446 51.216 29.1139 49.4263 31.2162 45.8467C33.3374 42.2482 34.398 36.9547 34.398 29.966C34.398 25.3448 33.9151 21.4622 32.9492 18.3183C31.9833 15.1744 30.6196 12.8069 28.8583 11.216C27.0969 9.60618 25.0136 8.80126 22.6083 8.80126C18.9908 8.80126 16.131 10.6005 14.0287 14.199C11.9264 17.7785 10.8658 23.0342 10.8469 29.966C10.828 34.6062 11.292 38.5077 12.2389 41.6706C13.2049 44.8335 14.5685 47.2198 16.3299 48.8297C18.0912 50.4206 20.184 51.216 22.6083 51.216ZM75.3426 59.7956C71.2517 59.7956 67.6154 59.0948 64.4336 57.6933C61.2707 56.2918 58.7707 54.341 56.9335 51.841C55.0964 49.341 54.121 46.4528 54.0074 43.1763H64.6892C64.7839 44.7482 65.3048 46.1213 66.2517 47.2956C67.1987 48.4509 68.4582 49.3505 70.0301 49.9944C71.6021 50.6384 73.3635 50.9603 75.3142 50.9603C77.3976 50.9603 79.2442 50.6005 80.854 49.8808C82.4639 49.1422 83.7233 48.1194 84.6324 46.8126C85.5415 45.5058 85.9866 44.0001 85.9676 42.2956C85.9866 40.5342 85.532 38.9812 84.604 37.6365C83.676 36.2918 82.3313 35.2407 80.5699 34.4831C78.8275 33.7255 76.7252 33.3467 74.2631 33.3467H69.1211V25.2217H74.2631C76.2896 25.2217 78.0604 24.8713 79.5756 24.1706C81.1097 23.4698 82.3123 22.485 83.1836 21.216C84.0548 19.9282 84.4809 18.4414 84.462 16.7558C84.4809 15.1081 84.1116 13.6782 83.354 12.466C82.6154 11.235 81.5642 10.2785 80.2006 9.59671C78.8559 8.91489 77.2745 8.57398 75.4563 8.57398C73.676 8.57398 72.0282 8.89595 70.5131 9.53989C68.9979 10.1838 67.7764 11.1024 66.8483 12.2956C65.9203 13.4698 65.4279 14.8713 65.3711 16.5001H55.229C55.3048 13.2425 56.2423 10.3827 58.0415 7.92058C59.8597 5.43951 62.2839 3.5077 65.3142 2.12512C68.3445 0.723605 71.7442 0.0228472 75.5131 0.0228472C79.3957 0.0228472 82.7669 0.752014 85.6267 2.21035C88.5055 3.64974 90.7309 5.59103 92.3029 8.03421C93.8748 10.4774 94.6608 13.1763 94.6608 16.1308C94.6798 19.4073 93.7139 22.1535 91.7631 24.3694C89.8313 26.5853 87.2934 28.0342 84.1495 28.716V29.1706C88.2404 29.7388 91.3748 31.2539 93.5529 33.716C95.7498 36.1592 96.8389 39.199 96.8199 42.8353C96.8199 46.0929 95.8919 49.0096 94.0358 51.5853C92.1987 54.1422 89.6608 56.1497 86.4222 57.6081C83.2025 59.0664 79.5093 59.7956 75.3426 59.7956Z" fill="url(#paint0_linear_84_1506)"/>
<defs>
<linearGradient id="paint0_linear_84_1506" x1="48.6665" y1="-17.9999" x2="48.6665" y2="78.0001" gradientUnits="userSpaceOnUse">
<stop stopColor="#FFC300"/>
<stop offset="1" stopColor="#FFC300" stopOpacity="0"/>
</linearGradient>
</defs>
</svg>
