<svg width="79" height="61" viewBox="0 0 79 61" fill="none" xmlns="http://www.w3.org/2000/svg">
<path d="M22.7777 60.1081C18.0997 60.1081 14.0845 58.9244 10.7322 56.5569C7.39891 54.1706 4.83262 50.7331 3.03338 46.2444C1.25308 41.7369 0.362926 36.3107 0.362926 29.966C0.381866 23.6213 1.28149 18.2236 3.06179 13.7728C4.86103 9.30315 7.42732 5.89406 10.7607 3.54558C14.1129 1.19709 18.1186 0.0228472 22.7777 0.0228472C27.4368 0.0228472 31.4425 1.19709 34.7947 3.54558C38.147 5.89406 40.7133 9.30315 42.4936 13.7728C44.2929 18.2425 45.1925 23.6403 45.1925 29.966C45.1925 36.3297 44.2929 41.7653 42.4936 46.2728C40.7133 50.7615 38.147 54.1895 34.7947 56.5569C31.4614 58.9244 27.4557 60.1081 22.7777 60.1081ZM22.7777 51.216C26.4141 51.216 29.2834 49.4263 31.3857 45.8467C33.5069 42.2482 34.5675 36.9547 34.5675 29.966C34.5675 25.3448 34.0845 21.4622 33.1186 18.3183C32.1527 15.1744 30.7891 12.8069 29.0277 11.216C27.2663 9.60618 25.183 8.80126 22.7777 8.80126C19.1603 8.80126 16.3004 10.6005 14.1982 14.199C12.0959 17.7785 11.0353 23.0342 11.0163 29.966C10.9974 34.6062 11.4614 38.5077 12.4084 41.6706C13.3743 44.8335 14.7379 47.2198 16.4993 48.8297C18.2607 50.4206 20.3535 51.216 22.7777 51.216ZM78.2962 0.818302V59.0001H67.7564V11.074H67.4155L53.8075 19.7672V10.1081L68.2678 0.818302H78.2962Z" fill="url(#paint0_linear_84_1496)"/>
<defs>
<linearGradient id="paint0_linear_84_1496" x1="42" y1="-17.9999" x2="42" y2="78.0001" gradientUnits="userSpaceOnUse">
<stop stopColor="#FFC300"/>
<stop offset="1" stopColor="#FFC300" stopOpacity="0"/>
</linearGradient>
</defs>
</svg>
