<svg width="11" height="36" viewBox="0 0 11 36" fill="none" xmlns="http://www.w3.org/2000/svg">
<path d="M7.8923 8.19585V1.42235C7.8923 0.55808 7.23279 0 6.21128 0H4.91789C3.89675 0 3.23686 0.55808 3.23686 1.42235V8.19321C2.86808 9.01751 0 15.5316 0 18.5818V33.3392C0 34.3159 0.79451 35.11 1.77077 35.11H9.10009C10.0764 35.11 10.8712 34.3159 10.8712 33.3392V18.5818C10.8709 15.2047 8.23545 8.98923 7.8923 8.19585ZM3.97858 8.43605L4.01327 8.35988V1.42235C4.01327 0.859744 4.5804 0.776033 4.91826 0.776033H6.21165C6.54952 0.776033 7.11665 0.860121 7.11665 1.42235V8.35762L7.14908 8.43191C7.17849 8.4994 10.0945 15.2073 10.0945 18.5818V19.7858H0.776409V18.5818C0.776409 15.558 3.9469 8.50694 3.97858 8.43605ZM9.10009 34.334H1.77115C1.2225 34.334 0.776409 33.8871 0.776409 33.3389V31.2302H10.0948V33.3389C10.0948 33.8871 9.64837 34.334 9.10009 34.334Z" fill="black"/>
</svg>
