<svg width="11" height="28" viewBox="0 0 11 28" fill="none" xmlns="http://www.w3.org/2000/svg">
<path d="M5.14994 12.3162C7.07428 12.3162 8.63423 10.7562 8.63423 8.83187V4.01405H1.66565V8.83187C1.66565 10.7562 3.22512 12.3162 5.14994 12.3162Z" fill="black"/>
<path d="M9.35345 0H8.63429H1.66571H0.947508H0V0.947508V8.87513C0 11.5552 2.05798 13.7627 4.67649 14.003V24.9068L0.82252 26.8749C0.627346 26.9744 0.525913 27.1946 0.576869 27.4071C0.627826 27.6195 0.818193 27.77 1.03692 27.77H9.26307C9.48132 27.77 9.67217 27.6195 9.72409 27.4071C9.77409 27.1946 9.67314 26.9744 9.47748 26.8749L5.62303 24.9068V14.003C8.24106 13.7627 10.3 11.5552 10.3 8.87513V0.947508V0H9.35345ZM7.29403 26.823H3.00645L5.15 25.7284L7.29403 26.823ZM9.35345 8.87513C9.35345 11.1927 7.46757 13.0786 5.15 13.0786C2.83291 13.0786 0.947508 11.1927 0.947508 8.87513V0.947508H9.35345V8.87513Z" fill="black"/>
</svg>
