<svg width="22" height="38" viewBox="0 0 22 38" fill="none" xmlns="http://www.w3.org/2000/svg">
<path d="M17.1953 24.2975C18.7907 24.2975 20.0841 23.0041 20.0841 21.4087V17.4143H14.3065V21.4087C14.3065 23.0041 15.5994 24.2975 17.1953 24.2975Z" fill="black"/>
<path d="M20.6803 14.0863H20.0841H14.3066H13.7111H12.9255V14.8719V21.4445C12.9255 23.6665 14.6318 25.4967 16.8027 25.696V34.7361L13.6075 36.3678C13.4457 36.4503 13.3616 36.6329 13.4038 36.8091C13.4461 36.9852 13.6039 37.11 13.7852 37.11H20.6054C20.7864 37.11 20.9446 36.9852 20.9876 36.8091C21.0291 36.6329 20.9454 36.4503 20.7832 36.3678L17.5875 34.7361V25.696C19.7581 25.4967 21.4651 23.6665 21.4651 21.4445V14.8719V14.0863H20.6803ZM18.9729 36.3248H15.4181L17.1953 35.4173L18.9729 36.3248ZM20.6803 21.4445C20.6803 23.366 19.1168 24.9296 17.1953 24.9296C15.2743 24.9296 13.7111 23.366 13.7111 21.4445V14.8719H20.6803V21.4445Z" fill="black"/>
<path d="M8.34187 8.66272V1.50337C8.34187 0.58987 7.64479 0 6.56509 0H5.19803C4.11873 0 3.42124 0.58987 3.42124 1.50337V8.65993C3.03145 9.53118 0 16.4163 0 19.6403V35.2384C0 36.2706 0.839768 37.11 1.87164 37.11H9.61846C10.6503 37.11 11.4905 36.2706 11.4905 35.2384V19.6403C11.4901 16.0708 8.70457 9.50129 8.34187 8.66272ZM4.20521 8.9166L4.24188 8.83609V1.50337C4.24188 0.908719 4.84132 0.820238 5.19843 0.820238H6.56549C6.9226 0.820238 7.52204 0.909117 7.52204 1.50337V8.8337L7.55631 8.91222C7.5874 8.98356 10.6695 16.0736 10.6695 19.6403V20.9129H0.820636V19.6403C0.820636 16.4442 4.17173 8.99153 4.20521 8.9166ZM9.61846 36.2898H1.87204C1.29213 36.2898 0.820636 35.8175 0.820636 35.238V33.0092H10.6699V35.238C10.6699 35.8175 10.198 36.2898 9.61846 36.2898Z" fill="black"/>
</svg>
