<?xml version="1.0" encoding="utf-8"?><svg width="102" height="96" viewBox="0 0 102 96" xmlns="http://www.w3.org/2000/svg" xmlns:xlink="http://www.w3.org/1999/xlink"><svg width="34" height="24" fill="none" viewBox="0 0 34 24" id="amex" xmlns="http://www.w3.org/2000/svg"><path fill-rule="evenodd" clip-rule="evenodd" d="M6.095 8.5l-3.18 7.247h3.808l.472-1.156h1.079l.472 1.156h4.192v-.882l.373.882h2.168l.374-.9v.9h8.718l1.06-1.126.992 1.126 4.478.01-3.191-3.613L31.101 8.5h-4.408L25.66 9.605 24.7 8.5h-9.484l-.814 1.87-.834-1.87h-3.8v.852L9.345 8.5h-3.25zm.737 1.029H8.69l2.11 4.914V9.53h2.033l1.63 3.523 1.502-3.523h2.023v5.2h-1.23l-.011-4.075-1.795 4.075H13.85l-1.805-4.075v4.075H9.512l-.48-1.166H6.438l-.48 1.165H4.602l2.231-5.199zm17.288 0h-5.006v5.197h4.928l1.589-1.722 1.531 1.722h1.6l-2.326-2.583 2.327-2.614H27.23l-1.58 1.703-1.531-1.703zm-16.385.88l-.854 2.077h1.708l-.854-2.077zm12.615 1.146v-.95h3.124l1.363 1.518-1.424 1.526H20.35v-1.036h2.731v-1.058H20.35z" fill="#fff"/></svg><svg width="34" height="24" fill="none" viewBox="0 0 34 24" id="applepay" x="34" xmlns="http://www.w3.org/2000/svg"><path fill-rule="evenodd" clip-rule="evenodd" d="M9.45 8.343c-.286.352-.743.63-1.2.59-.056-.476.167-.981.429-1.294.285-.361.784-.62 1.189-.639.047.496-.138.981-.419 1.343zm.413.684c-.402-.024-.77.126-1.066.248-.19.078-.352.144-.475.144-.138 0-.306-.07-.495-.148-.248-.103-.53-.22-.827-.214-.68.01-1.313.411-1.66 1.05-.714 1.28-.186 3.173.504 4.213.338.516.742 1.08 1.275 1.061.234-.01.402-.084.577-.16.2-.09.41-.182.735-.182.315 0 .514.09.706.176.182.082.357.161.617.156.551-.01.899-.515 1.236-1.03.365-.554.525-1.094.55-1.176l.002-.01-.013-.006a1.853 1.853 0 01-1.062-1.693c-.009-1 .739-1.507.856-1.586l.014-.01c-.475-.734-1.217-.813-1.474-.833zm3.82 6.29V7.59h2.782c1.436 0 2.44 1.03 2.44 2.537s-1.023 2.548-2.478 2.548h-1.594v2.642h-1.15zm1.15-6.716h1.327c1 0 1.57.555 1.57 1.531 0 .977-.57 1.537-1.574 1.537h-1.323V8.6zm7.872 5.789c-.304.604-.975.986-1.698.986-1.07 0-1.817-.664-1.817-1.665 0-.991.723-1.561 2.06-1.646l1.436-.089v-.426c0-.63-.395-.972-1.099-.972-.58 0-1.003.313-1.089.789h-1.037c.034-1.002.937-1.73 2.16-1.73 1.317 0 2.174.718 2.174 1.834v3.846h-1.066v-.927h-.024zm-1.389.07c-.613 0-1.003-.308-1.003-.779 0-.486.376-.768 1.094-.813l1.28-.084v.436c0 .724-.59 1.24-1.37 1.24zm6.012 1.159c-.461 1.353-.989 1.8-2.111 1.8-.086 0-.371-.01-.438-.03v-.927c.071.01.247.02.338.02.509 0 .794-.224.97-.803l.105-.343-1.95-5.625h1.203l1.355 4.565h.024L28.18 9.71h1.17l-2.022 5.908z" fill="#fff"/></svg><svg width="34" height="24" fill="none" viewBox="0 0 34 24" id="dinersclub" y="24" xmlns="http://www.w3.org/2000/svg"><path fill-rule="evenodd" clip-rule="evenodd" d="M15.838 19.3h2.597c4.052 0 7.281-3.215 7.408-7.187v-.063c-.063-4.034-3.356-7.312-7.408-7.25h-2.913c-3.863.127-6.902 3.405-6.775 7.314 0 3.908 3.166 7.123 7.091 7.186zm-5.825-7.25c0-3.278 2.723-5.988 6.015-5.988 3.293 0 6.016 2.71 6.016 5.988 0 3.278-2.723 5.99-6.016 5.99-3.292 0-6.015-2.711-6.015-5.99zm6.965 4.035V8.079c2.216.567 3.61 2.774 3.04 4.98a4.114 4.114 0 01-3.04 3.026zm-4.875-5.043a4.142 4.142 0 002.976 5.043V8.079a4.155 4.155 0 00-2.976 2.963z" fill="#0079BE"/></svg><svg width="34" height="24" fill="none" viewBox="0 0 34 24" id="discover" x="34" y="24" xmlns="http://www.w3.org/2000/svg"><path fill-rule="evenodd" clip-rule="evenodd" d="M29.394 9.11c1.045 0 1.62.484 1.62 1.398.052.698-.418 1.29-1.045 1.397l1.41 1.988h-1.097l-1.202-1.935h-.104v1.934h-.889V9.111h1.307zm-.418 2.204h.26c.576 0 .837-.269.837-.752 0-.43-.261-.699-.836-.699h-.261v1.45zm-3.973 2.579h2.51v-.806h-1.621v-1.29h1.568v-.806h-1.568V9.917h1.62V9.11h-2.509v4.781zm-2.613-1.559l-1.202-3.223h-.94L22.18 14h.47l1.934-4.89h-.94l-1.255 3.225zm-10.61-.805c0 1.343 1.046 2.471 2.352 2.471.418 0 .784-.107 1.15-.269v-1.074c-.261.322-.627.537-1.045.537-.836 0-1.516-.645-1.516-1.504v-.108a1.591 1.591 0 011.464-1.665c.418 0 .836.215 1.097.537V9.379c-.313-.214-.732-.268-1.097-.268-1.36-.108-2.405 1.02-2.405 2.418zm-1.62-.591c-.522-.215-.68-.323-.68-.591.053-.323.314-.591.628-.538.261 0 .523.161.732.376l.47-.644c-.366-.323-.836-.538-1.306-.538-.732-.053-1.36.538-1.412 1.29v.054c0 .644.262 1.02 1.098 1.289.209.054.418.161.627.269a.568.568 0 01.261.483c0 .376-.313.699-.627.699H9.9c-.418 0-.784-.269-.94-.645l-.576.59c.314.592.941.914 1.568.914.836.054 1.516-.59 1.568-1.45v-.162c-.052-.644-.313-.967-1.359-1.396zM7.13 13.892h.888V9.111H7.13v4.781zM3 9.111h1.567c1.255.054 2.248 1.128 2.196 2.418 0 .698-.314 1.343-.836 1.826-.47.376-1.045.591-1.62.538H3V9.11zm1.15 3.976c.418.053.888-.108 1.202-.377.313-.322.47-.752.47-1.235 0-.43-.157-.86-.47-1.182-.314-.269-.784-.43-1.202-.376h-.262v3.17h.262z" fill="#fff"/><path fill-rule="evenodd" clip-rule="evenodd" d="M17.948 9c-1.307 0-2.405 1.075-2.405 2.471 0 1.344 1.046 2.472 2.405 2.526 1.358.053 2.404-1.075 2.456-2.472C20.352 10.128 19.306 9 17.948 9z" fill="#FD6020"/></svg><svg width="34" height="24" fill="none" viewBox="0 0 34 24" id="elo" x="68" xmlns="http://www.w3.org/2000/svg"><path d="M7.824 9.496c.288-.095.596-.146.916-.146 1.397 0 2.563.974 2.83 2.268l1.98-.396c-.454-2.2-2.435-3.854-4.81-3.854-.544 0-1.068.087-1.556.247l.64 1.88z" fill="#FECA2F"/><path d="M5.467 15.868l1.186-1.531c-.53-.536-.863-1.317-.863-2.189 0-.87.333-1.652.863-2.187l-1.187-1.53C4.566 9.34 4 10.668 4 12.147c0 1.481.568 2.81 1.467 3.72z" fill="#1BA7DE"/><path d="M11.571 12.68c-.268 1.294-1.433 2.266-2.83 2.266a2.93 2.93 0 01-.916-.146l-.641 1.882a4.98 4.98 0 001.557.248c2.374 0 4.354-1.654 4.81-3.852l-1.98-.398z" fill="#EC412A"/><path fill-rule="evenodd" clip-rule="evenodd" d="M23.08 8.43v5.442l.976.391-.462 1.073-.966-.388a1.085 1.085 0 01-.475-.386 1.186 1.186 0 01-.187-.675V8.43h1.114zm-7.406 4.044c.024-1.556 1.35-2.798 2.957-2.774 1.365.02 2.496.945 2.793 2.175l-5.279 2.181a2.735 2.735 0 01-.471-1.582zm1.208.219a1.436 1.436 0 01-.01-.2c.014-.917.795-1.649 1.742-1.633a1.73 1.73 0 011.283.588l-3.015 1.245zm2.904 1.01a1.747 1.747 0 01-2.112.218l-.638.982c.437.267.952.425 1.507.433a2.955 2.955 0 002.08-.802l-.837-.831zm7.357-2.843c-.19 0-.373.03-.543.085l-.38-1.101c.29-.094.6-.145.924-.145 1.41 0 2.586.97 2.856 2.256l-1.176.232c-.159-.758-.85-1.327-1.68-1.327zm-1.93 3.769l.794-.869a1.631 1.631 0 01-.578-1.242c0-.495.223-.938.578-1.242l-.796-.869a2.773 2.773 0 00-.982 2.11c0 .841.38 1.596.983 2.112zm1.93-.453c.83 0 1.521-.569 1.68-1.325l1.177.233c-.271 1.285-1.448 2.252-2.857 2.252a3 3 0 01-.925-.145l.381-1.1c.171.055.354.085.544.085z" fill="#fff"/></svg><svg width="34" height="24" fill="none" viewBox="0 0 34 24" id="googlepay" x="68" y="24" xmlns="http://www.w3.org/2000/svg"><path fill-rule="evenodd" clip-rule="evenodd" d="M16.058 15.528v-2.935h1.515c.62 0 1.144-.208 1.571-.618l.103-.104c.78-.849.728-2.172-.103-2.958a2.162 2.162 0 00-1.571-.63H15.14v7.245h.917zm0-3.824v-2.53h1.538c.33 0 .643.126.877.357.495.486.507 1.294.028 1.797a1.19 1.19 0 01-.905.376h-1.538zm7.465-.746c-.393-.364-.928-.548-1.606-.548-.871 0-1.526.323-1.959.964l.809.514c.296-.438.7-.658 1.213-.658.324 0 .637.121.882.34.24.209.376.51.376.827v.214c-.353-.197-.797-.3-1.344-.3-.637 0-1.15.15-1.531.456-.382.306-.575.71-.575 1.224-.012.468.187.913.54 1.213.36.324.815.486 1.35.486.632 0 1.133-.283 1.515-.85h.04v.688h.876v-3.056c0-.641-.193-1.15-.586-1.514zm-2.488 3.657a.753.753 0 01-.302-.606c0-.272.125-.497.37-.676.25-.18.564-.272.934-.272.512-.006.911.11 1.196.341 0 .393-.154.734-.456 1.023a1.447 1.447 0 01-1.03.433 1.11 1.11 0 01-.712-.243zm5.044 3.09l3.064-7.134h-.997L26.73 14.13h-.017l-1.453-3.559h-.996l2.01 4.64-1.139 2.495h.945z" fill="#fff"/><path d="M12.893 11.958c0-.283-.023-.566-.069-.844H8.959v1.6h2.215a1.928 1.928 0 01-.82 1.266v1.04h1.321c.775-.723 1.219-1.791 1.219-3.062z" fill="#4285F4"/><path d="M8.958 16.025c1.105 0 2.039-.37 2.716-1.005l-1.32-1.04c-.37.254-.843.398-1.396.398-1.07 0-1.975-.733-2.3-1.715h-1.36v1.074a4.09 4.09 0 003.66 2.288z" fill="#34A853"/><path d="M6.658 12.663a2.544 2.544 0 010-1.595V10h-1.36a4.177 4.177 0 000 3.731l1.36-1.068z" fill="#FBBC04"/><path d="M8.958 9.352a2.19 2.19 0 011.572.624l1.173-1.19a3.926 3.926 0 00-2.745-1.08c-1.548 0-2.966.89-3.66 2.293l1.36 1.075c.325-.988 1.23-1.722 2.3-1.722z" fill="#EA4335"/></svg><svg width="34" height="24" fill="none" viewBox="0 0 34 24" id="maestro" y="48" xmlns="http://www.w3.org/2000/svg"><path d="M19.258 11.706c0 3.703-2.968 6.706-6.63 6.706-3.66 0-6.628-3.003-6.628-6.706C6 8.002 8.968 5 12.629 5c3.66 0 6.629 3.002 6.629 6.706z" fill="#ED0006"/><path d="M27.857 11.706c0 3.703-2.968 6.706-6.629 6.706-3.66 0-6.628-3.003-6.628-6.706C14.6 8.002 17.567 5 21.228 5s6.63 3.002 6.63 6.706z" fill="#0099DF"/><path fill-rule="evenodd" clip-rule="evenodd" d="M16.929 6.602a6.723 6.723 0 012.329 5.104 6.723 6.723 0 01-2.33 5.104 6.723 6.723 0 01-2.328-5.104c0-2.044.903-3.874 2.329-5.104z" fill="#6C6BBD"/></svg><svg width="34" height="24" fill="none" viewBox="0 0 34 24" id="master" x="34" y="48" xmlns="http://www.w3.org/2000/svg"><path fill-rule="evenodd" clip-rule="evenodd" d="M17.179 16.83a6.803 6.803 0 01-4.398 1.6c-3.745 0-6.781-3-6.781-6.7s3.036-6.7 6.78-6.7c1.679 0 3.215.603 4.399 1.6a6.802 6.802 0 014.398-1.6c3.745 0 6.781 3 6.781 6.7s-3.036 6.7-6.78 6.7a6.802 6.802 0 01-4.399-1.6z" fill="#ED0006"/><path fill-rule="evenodd" clip-rule="evenodd" d="M17.179 16.83a6.653 6.653 0 002.382-5.1c0-2.042-.924-3.87-2.382-5.1a6.802 6.802 0 014.398-1.6c3.745 0 6.78 3 6.78 6.7s-3.035 6.7-6.78 6.7a6.802 6.802 0 01-4.398-1.6z" fill="#F9A000"/><path fill-rule="evenodd" clip-rule="evenodd" d="M17.179 16.83a6.653 6.653 0 002.382-5.1c0-2.042-.924-3.87-2.382-5.1a6.653 6.653 0 00-2.382 5.1c0 2.042.924 3.87 2.382 5.1z" fill="#FF5E00"/></svg><svg width="34" height="24" fill="none" viewBox="0 0 34 24" id="paypal" x="68" y="48" xmlns="http://www.w3.org/2000/svg"><path fill-rule="evenodd" clip-rule="evenodd" d="M14.614 18.448l.22-1.449-.49-.012h-2.349l1.632-10.693a.143.143 0 01.045-.084.13.13 0 01.087-.033h3.96c1.314 0 2.22.282 2.694.84.222.262.364.536.432.837.072.316.073.693.003 1.153l-.005.034v.295l.222.13c.187.102.336.22.45.354.19.224.312.508.364.845.054.347.036.76-.052 1.227-.101.538-.265 1.006-.486 1.389a2.823 2.823 0 01-.77.872c-.294.216-.643.38-1.038.484a5.016 5.016 0 01-1.296.155h-.308a.916.916 0 00-.603.229.973.973 0 00-.314.579l-.023.13-.39 2.555-.018.093c-.004.03-.012.045-.024.055a.064.064 0 01-.04.015h-1.903z" fill="#28356A"/><path fill-rule="evenodd" clip-rule="evenodd" d="M21.276 9.075a7.29 7.29 0 01-.04.24c-.523 2.77-2.31 3.727-4.59 3.727h-1.162a.57.57 0 00-.557.494l-.764 5.003a.304.304 0 00.294.355h2.06a.501.501 0 00.49-.431l.02-.109.387-2.544.025-.14a.5.5 0 01.49-.432h.308c1.996 0 3.559-.838 4.015-3.261.191-1.013.092-1.859-.412-2.453a1.977 1.977 0 00-.564-.45z" fill="#298FC2"/><path fill-rule="evenodd" clip-rule="evenodd" d="M20.73 8.85a3.991 3.991 0 00-.509-.117 6.252 6.252 0 00-1.024-.077h-3.103a.48.48 0 00-.214.05.51.51 0 00-.275.383l-.66 4.321-.019.126a.57.57 0 01.558-.494h1.161c2.281 0 4.068-.957 4.59-3.727.015-.082.028-.162.04-.24a2.727 2.727 0 00-.546-.225z" fill="#22284F"/><path fill-rule="evenodd" clip-rule="evenodd" d="M15.605 9.089a.508.508 0 01.276-.382.48.48 0 01.214-.05h3.103c.367 0 .71.024 1.024.077a4.544 4.544 0 01.507.116l.118.037c.154.053.297.116.429.188.155-1.024-.001-1.721-.537-2.353-.59-.695-1.656-.992-3.02-.992H13.76a.572.572 0 00-.56.494l-1.648 10.804a.348.348 0 00.335.406h2.444l1.274-8.345z" fill="#28356A"/></svg><svg width="34" height="24" fill="none" viewBox="0 0 34 24" id="visa" y="72" xmlns="http://www.w3.org/2000/svg"><path fill-rule="evenodd" clip-rule="evenodd" d="M10.75 15.858H8.69L7.147 9.792c-.073-.279-.229-.525-.458-.642A6.573 6.573 0 004.8 8.508v-.233h3.318c.458 0 .802.35.859.758l.801 4.376 2.059-5.134h2.002l-3.089 7.583zm4.234 0H13.04l1.602-7.583h1.945l-1.602 7.583zm4.119-5.482c.057-.409.4-.642.801-.642a3.535 3.535 0 011.888.35l.344-1.633a4.8 4.8 0 00-1.774-.351c-1.888 0-3.262 1.05-3.262 2.508 0 1.11.973 1.692 1.66 2.042.743.35 1.03.584.972.934 0 .524-.572.758-1.143.758a4.788 4.788 0 01-2.003-.467l-.343 1.633c.687.292 1.43.409 2.117.409 2.117.058 3.432-.992 3.432-2.567 0-1.984-2.69-2.1-2.69-2.974zm9.497 5.482l-1.545-7.583h-1.659a.862.862 0 00-.8.583l-2.861 7h2.002l.4-1.108h2.46l.23 1.108H28.6zm-2.917-5.54l.571 2.857h-1.602l1.03-2.858z" fill="#172B85"/></svg></svg>