<svg width="28" height="16" viewBox="0 0 28 16" fill="none" xmlns="http://www.w3.org/2000/svg">
<path d="M26.7069 1.53333C26.5042 1.41631 26.2743 1.3547 26.0402 1.3547C25.8062 1.3547 25.5762 1.41631 25.3735 1.53333L20.6669 3.85333C20.6289 2.81809 20.1908 1.83796 19.4447 1.11925C18.6986 0.40054 17.7028 -0.0006957 16.6669 9.05542e-07H4.66687C3.606 9.05542e-07 2.58859 0.421428 1.83844 1.17157C1.0883 1.92172 0.66687 2.93913 0.66687 4V12C0.66687 13.0609 1.0883 14.0783 1.83844 14.8284C2.58859 15.5786 3.606 16 4.66687 16H16.6669C17.7028 16.0007 18.6986 15.5995 19.4447 14.8807C20.1908 14.162 20.6289 13.1819 20.6669 12.1467L25.4135 14.52C25.5953 14.6132 25.796 14.6634 26.0002 14.6667C26.2498 14.6675 26.4947 14.5982 26.7069 14.4667C26.899 14.3466 27.0574 14.1795 27.167 13.9812C27.2767 13.7829 27.334 13.5599 27.3335 13.3333V2.66667C27.334 2.44008 27.2767 2.21711 27.167 2.01881C27.0574 1.82051 26.899 1.65343 26.7069 1.53333ZM18.0002 12C18.0002 12.3536 17.8597 12.6928 17.6097 12.9428C17.3596 13.1929 17.0205 13.3333 16.6669 13.3333H4.66687C4.31325 13.3333 3.97411 13.1929 3.72406 12.9428C3.47401 12.6928 3.33354 12.3536 3.33354 12V4C3.33354 3.64638 3.47401 3.30724 3.72406 3.05719C3.97411 2.80714 4.31325 2.66667 4.66687 2.66667H16.6669C17.0205 2.66667 17.3596 2.80714 17.6097 3.05719C17.8597 3.30724 18.0002 3.64638 18.0002 4V12ZM24.6669 11.1733L20.6669 9.17333V6.82667L24.6669 4.82667V11.1733Z" fill="#7A7A7A"/>
</svg>
