<svg width="16" height="16" viewBox="0 0 16 16" fill="none" xmlns="http://www.w3.org/2000/svg">
<path d="M16 5.77455C15.9998 4.71972 15.7132 3.68475 15.1709 2.78L13.7164 0.35273C13.6515 0.244841 13.5598 0.15562 13.4502 0.0937934C13.3406 0.0319664 13.2168 -0.000350489 13.0909 2.86688e-06H2.90909C2.78354 -3.60293e-05 2.66011 0.0324303 2.55083 0.0942421C2.44154 0.156054 2.35012 0.245106 2.28546 0.35273L0.830913 2.78C0.287978 3.68457 0.000795175 4.71955 4.60652e-06 5.77455V6.07818C-0.000910136 6.57146 0.134426 7.05541 0.391088 7.47666C0.64775 7.8979 1.01577 8.24008 1.45455 8.46546V13.8182C1.45455 14.3968 1.68442 14.9518 2.09359 15.361C2.50276 15.7701 3.05771 16 3.63637 16H12.3636C12.9423 16 13.4972 15.7701 13.9064 15.361C14.3156 14.9518 14.5454 14.3968 14.5454 13.8182V8.46546C14.9842 8.24008 15.3522 7.8979 15.6089 7.47666C15.8656 7.05541 16.0009 6.57146 16 6.07818V5.77455ZM6.54546 14.5455V11.6364H9.45454V14.5455H6.54546ZM12.3636 14.5455H10.9091V10.9091C10.9091 10.7162 10.8325 10.5312 10.6961 10.3948C10.5597 10.2584 10.3747 10.1818 10.1818 10.1818H5.81818C5.6253 10.1818 5.44031 10.2584 5.30392 10.3948C5.16753 10.5312 5.09091 10.7162 5.09091 10.9091V14.5455H3.63637C3.44348 14.5455 3.2585 14.4688 3.12211 14.3324C2.98572 14.1961 2.90909 14.0111 2.90909 13.8182V8.69273C3.40889 8.62265 3.87658 8.40558 4.25273 8.06909C4.29091 8.03455 4.32909 7.99818 4.36364 7.96182C4.60064 8.20371 4.88353 8.39588 5.19573 8.52707C5.50793 8.65825 5.84317 8.72583 6.18182 8.72583C6.52046 8.72583 6.85571 8.65825 7.16791 8.52707C7.48011 8.39588 7.763 8.20371 8 7.96182C8.237 8.20371 8.51989 8.39588 8.83209 8.52707C9.14429 8.65825 9.47954 8.72583 9.81818 8.72583C10.1568 8.72583 10.4921 8.65825 10.8043 8.52707C11.1165 8.39588 11.3994 8.20371 11.6364 7.96182C11.6709 7.99818 11.7091 8.03455 11.7473 8.06909C12.1234 8.40558 12.5911 8.62265 13.0909 8.69273V13.8182C13.0909 14.0111 13.0143 14.1961 12.8779 14.3324C12.7415 14.4688 12.5565 14.5455 12.3636 14.5455ZM14.5454 6.07818C14.5454 6.68909 14.1164 7.21273 13.5691 7.26727C13.417 7.28334 13.2632 7.26723 13.1177 7.21999C12.9722 7.17275 12.8382 7.09544 12.7246 6.99308C12.6109 6.89072 12.52 6.7656 12.4578 6.62583C12.3956 6.48607 12.3636 6.33479 12.3636 6.18182C12.3636 5.98894 12.287 5.80395 12.1506 5.66756C12.0142 5.53117 11.8292 5.45455 11.6364 5.45455C11.4435 5.45455 11.2585 5.53117 11.1221 5.66756C10.9857 5.80395 10.9091 5.98894 10.9091 6.18182C10.9091 6.47115 10.7942 6.74862 10.5896 6.95321C10.385 7.15779 10.1075 7.27273 9.81818 7.27273C9.52885 7.27273 9.25138 7.15779 9.04679 6.95321C8.84221 6.74862 8.72727 6.47115 8.72727 6.18182C8.72727 5.98894 8.65065 5.80395 8.51426 5.66756C8.37787 5.53117 8.19288 5.45455 8 5.45455C7.80712 5.45455 7.62213 5.53117 7.48574 5.66756C7.34935 5.80395 7.27273 5.98894 7.27273 6.18182C7.27273 6.47115 7.15779 6.74862 6.95321 6.95321C6.74862 7.15779 6.47115 7.27273 6.18182 7.27273C5.89249 7.27273 5.61502 7.15779 5.41043 6.95321C5.20584 6.74862 5.09091 6.47115 5.09091 6.18182C5.09091 5.98894 5.01429 5.80395 4.8779 5.66756C4.74151 5.53117 4.55652 5.45455 4.36364 5.45455C4.17075 5.45455 3.98577 5.53117 3.84938 5.66756C3.71299 5.80395 3.63637 5.98894 3.63637 6.18182C3.63721 6.33525 3.60569 6.48713 3.54385 6.62755C3.482 6.76797 3.39124 6.89376 3.27747 6.99671C3.16371 7.09967 3.02951 7.17746 2.88364 7.22503C2.73776 7.27259 2.5835 7.28884 2.43091 7.27273C1.88546 7.21818 1.45455 6.69455 1.45455 6.08364V5.77455C1.45447 4.98354 1.66941 4.20738 2.07637 3.52909L3.32182 1.45455H12.6782L13.9236 3.52909C14.3306 4.20738 14.5455 4.98354 14.5454 5.77455V6.07818Z" fill="black"/>
</svg>
