<svg width="11" height="12" viewBox="0 0 11 12" fill="none" xmlns="http://www.w3.org/2000/svg">
<path fill-rule="evenodd" clip-rule="evenodd" d="M4.43478 2.86957L0 4.69565L0.26087 5.47826L3.3913 4.69565L2.34783 8.6087H3.65217L3.3913 11.2174L1.56522 11.4783V12H4.17391L4.95652 8.6087H5.47826H6L6.78261 12H9.3913V11.4783L7.56522 11.2174L7.30435 8.6087H8.6087L7.56522 4.69565L10.6957 5.47826L10.9565 4.69565L6.52174 2.86957L7.04348 2.34783H7.30435C7.72174 1.30435 6.78261 0.347826 6.26087 0H5.47826H4.69565C4.17391 0.347826 3.23478 1.30435 3.65217 2.34783H3.91304L4.43478 2.86957Z" fill="#3CC13B"/>
</svg>
