<?xml version="1.0" encoding="UTF-8" standalone="no"?>
<svg
   width="22"
   height="30"
   viewBox="0 0 22 30"
   fill="none"
   version="1.1"
   id="svg4"
   sodipodi:docname="donate.svg"
   inkscape:version="1.1 (c4e8f9e, 2021-05-24)"
   xmlns:inkscape="http://www.inkscape.org/namespaces/inkscape"
   xmlns:sodipodi="http://sodipodi.sourceforge.net/DTD/sodipodi-0.dtd"
   xmlns="http://www.w3.org/2000/svg"
   xmlns:svg="http://www.w3.org/2000/svg">
  <defs
     id="defs8" />
  <sodipodi:namedview
     id="namedview6"
     pagecolor="#505050"
     bordercolor="#eeeeee"
     borderopacity="1"
     inkscape:pageshadow="0"
     inkscape:pageopacity="0"
     inkscape:pagecheckerboard="0"
     showgrid="false"
     inkscape:zoom="20.833333"
     inkscape:cx="10.992"
     inkscape:cy="15"
     inkscape:window-width="1389"
     inkscape:window-height="847"
     inkscape:window-x="51"
     inkscape:window-y="25"
     inkscape:window-maximized="0"
     inkscape:current-layer="svg4" />
  <g
     id="path2">
    <path
       style="color:#000000;fill:#000000;stroke-width:4;-inkscape-stroke:none"
       d="m 11.87,20.152 c 3.2,-3.488 5.997,-7.712 5.833,-11.708 A 6.696,6.696 0 0 0 10.974,2 C 7.38,2 4.446,4.83 4.297,8.444 c -0.164,3.996 2.633,8.22 5.831,11.707 -3.746,3.864 -7.785,6.68 -7.862,6.733 a 0.603,0.603 0 0 0 -0.148,0.858 c 0.203,0.277 0.6,0.34 0.885,0.144 0.316,-0.218 4.269,-2.973 7.997,-6.812 3.728,3.839 7.681,6.594 7.997,6.812 a 0.647,0.647 0 0 0 0.885,-0.144 0.602,0.602 0 0 0 -0.149,-0.858 C 19.657,26.831 15.617,24.016 11.87,20.152 Z M 11,19.227 C 8,15.948 5.419,12.06 5.566,8.493 5.687,5.542 8.063,3.23 11.026,3.23 c 2.91,0 5.287,2.312 5.408,5.263 0.147,3.566 -2.436,7.454 -5.435,10.734 z"
       id="path375" />
    <path
       style="color:#000000;fill:#000000;-inkscape-stroke:none"
       d="M 10.96875,0.00195313 C 6.3277133,0.00534153 2.4904847,3.7126911 2.2988281,8.3613281 2.1214583,12.683096 4.5377275,16.605791 7.359375,19.962891 c -1.336037,1.268812 -2.7224326,2.567996 -3.7890625,3.423828 -1.4415284,1.156638 -2.57277056,1.942717 -2.4375,1.849609 l 0.015625,-0.0098 c -1.20483511,0.812594 -1.50056262,2.53138 -0.63867188,3.701172 0.85360528,1.157882 2.46462438,1.404825 3.62695308,0.605469 h 0.00195 C 4.4702432,29.304461 7.6483846,26.945798 11,23.763672 c 3.351615,3.182126 6.529757,5.540789 6.861328,5.769531 v -0.002 c 1.152194,0.795439 2.77856,0.531797 3.619141,-0.587891 l 0.0059,-0.0059 0.0039,-0.0059 c 0.86616,-1.171613 0.565926,-2.897997 -0.644531,-3.708985 l 0.03125,0.02148 c -0.08597,-0.05996 -3.113118,-2.314406 -6.236328,-5.279297 2.820977,-3.355583 5.234664,-7.277425 5.060547,-11.5957034 v -0.00195 C 19.524441,3.7005749 15.638149,-0.02096657 10.96875,0.00195313 Z m 0.05664,5.22851557 c 1.850662,0 3.33133,1.4213107 3.410156,3.3437501 v 0.00195 C 14.518664,10.592472 12.982533,13.271587 11,15.861328 9.0175805,13.272432 7.4812881,10.594197 7.5644531,8.5761719 v -0.00195 c 0.078844,-1.9228901 1.5383264,-3.34375 3.4609379,-3.3437501 z"
       id="path377" />
  </g>
</svg>
