<svg width="24" height="24" viewBox="0 0 24 24" fill="none" xmlns="http://www.w3.org/2000/svg">
<path d="M19.1667 4H5.83333C5.3725 4 5 4.3725 5 4.83333V6.99167C5 7.4275 5.1775 7.85583 5.48583 8.16417L10 12.6783V19C10 19.2892 10.15 19.5567 10.3958 19.7092C10.5292 19.7917 10.6808 19.8333 10.8333 19.8333C10.9608 19.8333 11.0883 19.8042 11.2058 19.7458L14.5392 18.0792C14.8217 17.9375 15 17.6492 15 17.3333V12.6783L19.5142 8.16417C19.8225 7.85583 20 7.4275 20 6.99167V4.83333C20 4.3725 19.6275 4 19.1667 4ZM13.5775 11.7442C13.4208 11.9 13.3333 12.1117 13.3333 12.3333V16.8183L11.6667 17.6517V12.3333C11.6667 12.1117 11.5792 11.9 11.4225 11.7442L6.66667 6.99167V5.66667H18.3342L18.3358 6.98583L13.5775 11.7442Z" fill="white"/>
</svg>
