<svg width="28" height="28" viewBox="0 0 28 28" fill="none" xmlns="http://www.w3.org/2000/svg">
<path d="M26.4 11.44C26.0254 10.9902 25.5566 10.6281 25.0267 10.3793C24.4968 10.1305 23.9187 10.001 23.3334 10H17.2534L18 8.09335C18.3106 7.25853 18.414 6.36083 18.3014 5.47725C18.1889 4.59367 17.8636 3.75059 17.3536 3.02032C16.8436 2.29006 16.1641 1.69441 15.3733 1.28448C14.5825 0.874539 13.7041 0.662547 12.8134 0.666685C12.5569 0.667221 12.306 0.741719 12.0908 0.881249C11.8756 1.02078 11.7052 1.21942 11.6 1.45335L7.80002 10H4.66669C3.60582 10 2.58841 10.4214 1.83826 11.1716C1.08811 11.9217 0.666687 12.9392 0.666687 14V23.3334C0.666687 24.3942 1.08811 25.4116 1.83826 26.1618C2.58841 26.9119 3.60582 27.3334 4.66669 27.3334H21.64C22.5758 27.333 23.4818 27.0047 24.2005 26.4054C24.9191 25.8061 25.4049 24.9738 25.5734 24.0534L27.2667 14.72C27.3714 14.1432 27.3481 13.5504 27.1983 12.9836C27.0485 12.4168 26.776 11.8898 26.4 11.44ZM7.33335 24.6667H4.66669C4.31307 24.6667 3.97393 24.5262 3.72388 24.2762C3.47383 24.0261 3.33335 23.687 3.33335 23.3334V14C3.33335 13.6464 3.47383 13.3073 3.72388 13.0572C3.97393 12.8072 4.31307 12.6667 4.66669 12.6667H7.33335V24.6667ZM24.6667 14.24L22.9734 23.5734C22.9166 23.884 22.7514 24.1643 22.5072 24.3646C22.263 24.5648 21.9557 24.6718 21.64 24.6667H10V11.6134L13.6267 3.45335C14 3.56219 14.3467 3.74723 14.6449 3.9968C14.9431 4.24637 15.1863 4.55504 15.3592 4.90334C15.5321 5.25164 15.6309 5.63201 15.6494 6.02042C15.6679 6.40883 15.6057 6.79686 15.4667 7.16002L14.76 9.06669C14.6094 9.46969 14.5586 9.90315 14.6119 10.3301C14.6651 10.757 14.8208 11.1647 15.0658 11.5183C15.3108 11.872 15.6376 12.1612 16.0186 12.3611C16.3995 12.5611 16.8231 12.6659 17.2534 12.6667H23.3334C23.5292 12.6664 23.7228 12.7092 23.9002 12.7922C24.0777 12.8751 24.2347 12.9962 24.36 13.1467C24.4885 13.2951 24.5826 13.4701 24.6356 13.6591C24.6886 13.8481 24.6992 14.0464 24.6667 14.24Z" fill="#7A7A7A"/>
</svg>
