<svg width="17" height="18" viewBox="0 0 17 18" fill="none" xmlns="http://www.w3.org/2000/svg">
<path fill-rule="evenodd" clip-rule="evenodd" d="M5.0603 0.774272C3.72477 0.83453 2.5672 1.16105 1.6325 2.09181C0.694525 3.02745 0.372061 4.1896 0.311652 5.51123C0.2741 6.33613 0.0545172 12.5681 0.691261 14.2024C1.12065 15.305 1.96636 16.1527 3.07903 16.5835C3.59822 16.7854 4.1909 16.9221 5.0603 16.9621C12.3298 17.291 15.0245 17.1119 16.1608 14.2024C16.3625 13.6845 16.5013 13.0923 16.5396 12.2251C16.8719 4.93699 16.4858 3.35725 15.2188 2.09181C14.2139 1.08939 13.0318 0.407017 5.0603 0.774272ZM5.12722 15.4963C4.33129 15.4605 3.89945 15.3278 3.61129 15.2163C2.88638 14.9345 2.34188 14.3923 2.06188 13.6716C1.57697 12.4298 1.7378 6.53171 1.78107 5.57733C1.82352 4.64249 2.0129 3.78812 2.6725 3.12853C3.48884 2.31421 4.54354 1.91512 11.7249 2.23922C12.662 2.28156 13.5184 2.47057 14.1796 3.12853C14.9959 3.94284 15.4008 5.00565 15.071 12.1594C15.0351 12.9534 14.9021 13.3842 14.7902 13.6716C14.0514 15.5649 12.3518 15.8277 5.12722 15.4963ZM11.8041 4.52098C11.8041 5.06006 12.2424 5.49841 12.7837 5.49841C13.3249 5.49841 13.7641 5.06006 13.7641 4.52098C13.7641 3.9819 13.3249 3.54394 12.7837 3.54394C12.2424 3.54394 11.8041 3.9819 11.8041 4.52098ZM4.23415 8.86776C4.23415 11.1772 6.11092 13.0495 8.42605 13.0495C10.7412 13.0495 12.618 11.1772 12.618 8.86776C12.618 6.55837 10.7412 4.68722 8.42605 4.68722C6.11092 4.68722 4.23415 6.55837 4.23415 8.86776ZM5.70519 8.86776C5.70519 7.36943 6.92318 6.15377 8.42605 6.15377C9.92893 6.15377 11.1469 7.36943 11.1469 8.86776C11.1469 10.3669 9.92893 11.583 8.42605 11.583C6.92318 11.583 5.70519 10.3669 5.70519 8.86776Z" fill="white"/>
</svg>
