<svg width="20" height="20" viewBox="0 0 20 20" fill="none" xmlns="http://www.w3.org/2000/svg">
<path fill-rule="evenodd" clip-rule="evenodd" d="M10.0025 0C12.7606 0 15.2612 1.11909 17.0735 2.93142C18.8809 4.7388 20 7.23942 20 10.0025C20 12.7606 18.8809 15.2612 17.0735 17.0735C15.2612 18.8809 12.7606 20 10.0025 20C7.23942 20 4.7388 18.8809 2.93142 17.0735C1.11909 15.2612 0 12.7606 0 10.0025C0 7.23942 1.11909 4.7388 2.93142 2.93142C4.7388 1.11909 7.23942 0 10.0025 0ZM15.9693 4.03565C15.3751 3.43649 14.6918 2.93142 13.944 2.53528C14.0629 2.71849 14.1768 2.90666 14.2857 3.10473C15.1721 4.70909 15.7514 6.84823 15.8554 9.2201H18.4055C18.2223 7.1998 17.3261 5.38747 15.9693 4.03565ZM15.9693 15.9693C17.3261 14.6125 18.2223 12.8002 18.4055 10.7799H15.8554C15.7514 13.1518 15.1721 15.2909 14.2857 16.8953C14.1768 17.0933 14.0629 17.2865 13.944 17.4647C14.6918 17.0686 15.3751 16.5635 15.9693 15.9693ZM4.03565 15.9693C4.62986 16.5635 5.30824 17.0686 6.06091 17.4647C5.94206 17.2865 5.82818 17.0933 5.71924 16.8953C4.83288 15.2909 4.25353 13.1518 4.14459 10.7799H1.59941C1.78262 12.8002 2.67888 14.6125 4.03565 15.9693ZM4.03565 4.03565C2.67888 5.38747 1.78262 7.1998 1.59941 9.2201H4.14459C4.25353 6.84823 4.83288 4.70909 5.71924 3.10473C5.82818 2.90666 5.94206 2.71849 6.06091 2.53528C5.30824 2.93142 4.62986 3.43649 4.03565 4.03565ZM10.7799 1.70834V9.2201H14.2956C14.1916 7.12057 13.6866 5.24387 12.919 3.85739C12.3248 2.77792 11.587 2.01535 10.7799 1.70834ZM10.7799 10.7799V18.2917C11.587 17.9846 12.3248 17.2221 12.919 16.1476C13.6866 14.7561 14.1916 12.8794 14.2956 10.7799H10.7799ZM9.2201 18.2917V10.7799H5.70933C5.80837 12.8794 6.3184 14.7561 7.08591 16.1476C7.68012 17.2221 8.41792 17.9846 9.2201 18.2917ZM9.2201 9.2201V1.70834C8.41792 2.01535 7.68012 2.77792 7.08591 3.85739C6.3184 5.24387 5.80837 7.12057 5.70933 9.2201H9.2201Z" fill="black"/>
</svg>
