<svg width="24" height="24" viewBox="0 0 24 24" fill="none" xmlns="http://www.w3.org/2000/svg">
<path d="M7.68649 20.35H4.10172V9.59568H7.68649V20.35ZM5.89411 8.09008C5.39972 8.09008 4.92559 7.89369 4.576 7.5441C4.22642 7.19452 4.03003 6.72039 4.03003 6.226C4.03003 5.73162 4.22642 5.25748 4.576 4.9079C4.92559 4.55832 5.39972 4.36192 5.89411 4.36192C6.15663 4.33215 6.42247 4.35817 6.67424 4.43826C6.92601 4.51836 7.15802 4.65073 7.35509 4.8267C7.55215 5.00268 7.70982 5.2183 7.81778 5.45944C7.92573 5.70058 7.98154 5.9618 7.98154 6.226C7.98154 6.4902 7.92573 6.75143 7.81778 6.99257C7.70982 7.23371 7.55215 7.44932 7.35509 7.6253C7.15802 7.80128 6.92601 7.93365 6.67424 8.01374C6.42247 8.09384 6.15663 8.11985 5.89411 8.09008ZM20.6155 20.35H17.0308V14.5785C17.0308 13.1326 16.517 12.1887 15.2145 12.1887C14.8114 12.1916 14.4189 12.318 14.0899 12.5509C13.7609 12.7838 13.5111 13.1119 13.3743 13.4911C13.2808 13.772 13.2403 14.0678 13.2548 14.3634V20.338H9.67006C9.67006 20.338 9.67006 10.5636 9.67006 9.58373H13.2548V11.1013C13.5805 10.5362 14.0541 10.0707 14.6247 9.75485C15.1953 9.43901 15.8413 9.28482 16.4931 9.3089C18.8829 9.3089 20.6155 10.8504 20.6155 14.1603V20.35Z" fill="white"/>
</svg>
