<svg width="24" height="24" viewBox="0 0 24 24" fill="none" xmlns="http://www.w3.org/2000/svg">
<path d="M12 2C13.9778 2 15.9112 2.58649 17.5557 3.6853C19.2002 4.78412 20.4819 6.3459 21.2388 8.17316C21.9957 10.0004 22.1937 12.0111 21.8079 13.9509C21.422 15.8907 20.4696 17.6725 19.0711 19.0711C17.6725 20.4696 15.8907 21.422 13.9509 21.8079C12.0111 22.1937 10.0004 21.9957 8.17317 21.2388C6.3459 20.4819 4.78412 19.2002 3.6853 17.5557C2.58649 15.9112 2 13.9778 2 12L4 12C4 13.5823 4.46919 15.129 5.34824 16.4446C6.22729 17.7602 7.47672 18.7855 8.93853 19.391C10.4003 19.9965 12.0089 20.155 13.5607 19.8463C15.1126 19.5376 16.538 18.7757 17.6569 17.6569C18.7757 16.538 19.5376 15.1126 19.8463 13.5607C20.155 12.0089 19.9965 10.4003 19.391 8.93853C18.7855 7.47672 17.7602 6.22729 16.4446 5.34824C15.129 4.46919 13.5822 4 12 4L12 2Z" fill="white"/>
</svg>
