<svg width="24" height="24" viewBox="0 0 24 24" fill="none" xmlns="http://www.w3.org/2000/svg">
<path d="M19.4999 4H9.99994C9.73472 4 9.48037 4.10536 9.29283 4.2929C9.1053 4.48043 8.99994 4.73479 8.99994 5C8.99994 5.26522 9.1053 5.51957 9.29283 5.70711C9.48037 5.89465 9.73472 6 9.99994 6H19.4999C19.7652 6 20.0195 6.10536 20.207 6.2929C20.3946 6.48043 20.4999 6.73479 20.4999 7V13.76L18.6199 11.88C18.2985 11.5602 17.9087 11.3175 17.4799 11.17C17.3552 11.128 17.2234 11.1109 17.092 11.1199C16.9607 11.1288 16.8324 11.1635 16.7145 11.222C16.5965 11.2805 16.4913 11.3616 16.4047 11.4608C16.3181 11.56 16.252 11.6752 16.2099 11.8C16.1679 11.9248 16.1509 12.0566 16.1598 12.1879C16.1687 12.3193 16.2034 12.4475 16.2619 12.5655C16.3204 12.6834 16.4016 12.7887 16.5007 12.8752C16.5999 12.9618 16.7152 13.028 16.8399 13.07C16.9782 13.1135 17.1024 13.1929 17.1999 13.3L20.5099 16.59C20.5042 16.6398 20.5042 16.6902 20.5099 16.74C20.5054 16.7899 20.5054 16.8401 20.5099 16.89C20.5475 16.954 20.591 17.0142 20.6399 17.07C20.6643 17.1109 20.6946 17.148 20.7299 17.18C20.7899 17.2355 20.8572 17.2826 20.9299 17.32C20.9644 17.3438 21.0013 17.3639 21.0399 17.38C21.1563 17.4323 21.2824 17.4596 21.4099 17.46C21.6752 17.46 21.9295 17.3546 22.117 17.1671C22.3046 16.9796 22.4099 16.7252 22.4099 16.46V7C22.4103 6.2197 22.1066 5.46997 21.5633 4.90988C21.02 4.34979 20.2799 4.02341 19.4999 4ZM3.20994 2.29C3.02164 2.1017 2.76624 1.99591 2.49994 1.99591C2.23364 1.99591 1.97824 2.1017 1.78994 2.29C1.60164 2.47831 1.49585 2.7337 1.49585 3C1.49585 3.2663 1.60164 3.5217 1.78994 3.71L3.17994 5.1C2.74067 5.63581 2.5004 6.30715 2.49994 7V17C2.49994 17.7957 2.81601 18.5587 3.37862 19.1213C3.94123 19.6839 4.70429 20 5.49994 20H18.0899L19.7899 21.71C19.8829 21.8037 19.9935 21.8781 20.1154 21.9289C20.2372 21.9797 20.3679 22.0058 20.4999 22.0058C20.632 22.0058 20.7627 21.9797 20.8845 21.9289C21.0064 21.8781 21.117 21.8037 21.2099 21.71C21.3037 21.617 21.3781 21.5064 21.4288 21.3846C21.4796 21.2627 21.5057 21.132 21.5057 21C21.5057 20.868 21.4796 20.7373 21.4288 20.6154C21.3781 20.4936 21.3037 20.383 21.2099 20.29L3.20994 2.29ZM4.49994 7C4.50238 6.83925 4.54355 6.68146 4.61994 6.54L7.33994 9.25C6.96813 9.39161 6.6282 9.60577 6.33994 9.88L4.49994 11.76V7ZM5.49994 18C5.23472 18 4.98037 17.8946 4.79283 17.7071C4.6053 17.5196 4.49994 17.2652 4.49994 17V14.58L7.79994 11.29C7.98687 11.1068 8.23819 11.0041 8.49994 11.0041C8.76169 11.0041 9.01301 11.1068 9.19994 11.29L15.9099 18H5.49994Z" fill="white"/>
</svg>
