<svg width="18" height="22" viewBox="0 0 18 22" fill="none" xmlns="http://www.w3.org/2000/svg">
<path d="M8.88363 14.7912C8.88947 14.7597 8.90628 14.7312 8.93115 14.7107C8.95602 14.6901 8.98739 14.6788 9.01983 14.6787H12.283C13.477 14.6772 14.6337 14.2681 15.5572 13.5206C16.4807 12.7732 17.1141 11.7334 17.3501 10.5774L17.9393 7.67302C18.0236 7.25626 18.02 6.82681 17.9287 6.41149C17.8374 5.99617 17.6604 5.60391 17.4087 5.25921C17.157 4.91451 16.836 4.62478 16.4658 4.40812C16.0956 4.19146 15.6841 4.05253 15.2571 4C15.2571 4.02196 15.2571 4.04392 15.2571 4.06863L14.6595 6.97301C14.4097 8.1905 13.7419 9.28546 12.769 10.0728C11.7961 10.8601 10.5778 11.2914 9.32001 11.2939H6.16803L4.70878 18.5027L4 22H7.42438L8.88363 14.7912Z" fill="white"/>
<path d="M3.4238 17L4.88678 10.1995C4.89269 10.17 4.90962 10.1435 4.93456 10.1245C4.95951 10.1055 4.99086 10.0954 5.02306 10.0959H8.28833C9.4828 10.0936 10.6398 9.70745 11.5636 9.00275C12.4875 8.29805 13.1216 7.31805 13.3587 6.22842L13.9455 3.49475C13.9455 3.49475 13.9455 3.47404 13.9455 3.46368C13.9455 3.45333 13.9455 3.37825 13.965 3.33425C13.9742 3.2915 13.9807 3.24828 13.9845 3.20481C14.028 2.7999 13.9799 2.391 13.8433 2.00443C13.7068 1.61786 13.4847 1.26218 13.1916 0.960297C12.8984 0.658411 12.5406 0.417004 12.1411 0.251613C11.7416 0.0862216 11.3094 0.0005117 10.8722 0H3.64075L0 17H3.4238Z" fill="white"/>
</svg>
