<svg width="20" height="28" viewBox="0 0 20 28" fill="none" xmlns="http://www.w3.org/2000/svg">
<path d="M10.9467 19.7198L10.7467 19.5598C10.6724 19.5094 10.5917 19.469 10.5067 19.4398L10.2667 19.3332C10.0505 19.288 9.82643 19.2972 9.61465 19.36C9.40286 19.4229 9.21001 19.5373 9.05342 19.6932C8.93564 19.8228 8.84094 19.9716 8.77341 20.1332C8.67251 20.3761 8.64572 20.6435 8.69642 20.9016C8.74712 21.1597 8.87305 21.3971 9.05834 21.5838C9.24364 21.7705 9.48003 21.8983 9.73776 21.9509C9.99549 22.0036 10.263 21.9789 10.5067 21.8798C10.6661 21.8025 10.8141 21.7038 10.9467 21.5865C11.1318 21.399 11.2571 21.1609 11.3069 20.9023C11.3568 20.6436 11.3289 20.376 11.2267 20.1332C11.1603 19.979 11.0653 19.8388 10.9467 19.7198ZM15.3334 0.666504H4.66675C3.60588 0.666504 2.58847 1.08793 1.83832 1.83808C1.08818 2.58822 0.666748 3.60564 0.666748 4.6665V23.3332C0.666748 24.394 1.08818 25.4115 1.83832 26.1616C2.58847 26.9117 3.60588 27.3332 4.66675 27.3332H15.3334C16.3943 27.3332 17.4117 26.9117 18.1618 26.1616C18.912 25.4115 19.3334 24.394 19.3334 23.3332V4.6665C19.3334 3.60564 18.912 2.58822 18.1618 1.83808C17.4117 1.08793 16.3943 0.666504 15.3334 0.666504ZM16.6667 23.3332C16.6667 23.6868 16.5263 24.0259 16.2762 24.276C16.0262 24.526 15.687 24.6665 15.3334 24.6665H4.66675C4.31313 24.6665 3.97399 24.526 3.72394 24.276C3.47389 24.0259 3.33341 23.6868 3.33341 23.3332V4.6665C3.33341 4.31288 3.47389 3.97374 3.72394 3.7237C3.97399 3.47365 4.31313 3.33317 4.66675 3.33317H15.3334C15.687 3.33317 16.0262 3.47365 16.2762 3.7237C16.5263 3.97374 16.6667 4.31288 16.6667 4.6665V23.3332Z" fill="#7A7A7A"/>
</svg>
