<svg width="24" height="24" viewBox="0 0 24 24" fill="none" xmlns="http://www.w3.org/2000/svg">
<path d="M18.5121 11.0193C18.2846 10.8956 16.3339 9.75723 15.6019 9.32874L15.5998 9.32728L6.73333 4.17894C6.58227 4.0862 6.4129 4.02778 6.23705 4.00776C6.0612 3.98773 5.88312 4.0066 5.71528 4.06302C5.69634 4.06986 5.67854 4.07675 5.66013 4.08523C5.61737 4.09924 5.57558 4.11607 5.53503 4.13559C5.3655 4.23751 5.22642 4.38349 5.13242 4.55819C5.03842 4.73289 4.99298 4.92984 5.00088 5.12832V18.9433C4.9955 19.1282 5.03904 19.3113 5.12706 19.4737C5.21507 19.6361 5.3444 19.7721 5.50182 19.8678C5.53812 19.8857 5.57553 19.9012 5.61381 19.9142C5.63474 19.9239 5.65469 19.9324 5.67629 19.94C5.7799 19.9778 5.88903 19.9981 5.99922 20C6.21084 19.9977 6.41816 19.9396 6.6005 19.8316C6.8817 19.6674 15.5998 14.605 15.5998 14.605L18.5086 12.9159C18.6884 12.8253 18.8402 12.687 18.9476 12.5159C19.0549 12.3448 19.1137 12.1475 19.1176 11.9452C19.1088 11.7504 19.0479 11.5615 18.9413 11.3986C18.8348 11.2357 18.6865 11.1046 18.5121 11.0193Z" fill="white"/>
</svg>
