<?xml version="1.0" encoding="UTF-8" standalone="no"?>
<svg
   width="24"
   height="24"
   viewBox="0 0 24 24"
   fill="none"
   version="1.1"
   id="svg63"
   sodipodi:docname="search.svg"
   inkscape:version="1.1 (c4e8f9e, 2021-05-24)"
   xmlns:inkscape="http://www.inkscape.org/namespaces/inkscape"
   xmlns:sodipodi="http://sodipodi.sourceforge.net/DTD/sodipodi-0.dtd"
   xmlns="http://www.w3.org/2000/svg"
   xmlns:svg="http://www.w3.org/2000/svg">
  <defs
     id="defs67" />
  <sodipodi:namedview
     id="namedview65"
     pagecolor="#505050"
     bordercolor="#eeeeee"
     borderopacity="1"
     inkscape:pageshadow="0"
     inkscape:pageopacity="0"
     inkscape:pagecheckerboard="0"
     showgrid="false"
     inkscape:zoom="32.125"
     inkscape:cx="11.984436"
     inkscape:cy="12"
     inkscape:window-width="1465"
     inkscape:window-height="997"
     inkscape:window-x="51"
     inkscape:window-y="25"
     inkscape:window-maximized="0"
     inkscape:current-layer="svg63" />
  <g
     id="g163">
    <path
       style="color:#000000;fill:#000000;stroke-linecap:round;stroke-linejoin:round;-inkscape-stroke:none"
       d="m 11,2 c -4.9587146,0 -9,4.0412854 -9,9 0,4.958732 4.0412884,9 9,9 4.958729,0 9,-4.041271 9,-9 0,-4.9587116 -4.041268,-9 -9,-9 z m 0,2 c 3.877859,0 7,3.1221604 7,7 0,3.877862 -3.122138,7 -7,7 C 7.1221604,18 4,14.877859 4,11 4,7.1221634 7.1221634,4 11,4 Z"
       id="path59" />
    <path
       style="color:#000000;fill:#000000;stroke-linecap:round;stroke-linejoin:round;-inkscape-stroke:none"
       d="m 15.943359,15.943359 a 1,1 0 0 0 0,1.414063 l 4.34961,4.349609 a 1,1 0 0 0 1.414062,0 1,1 0 0 0 0,-1.414062 l -4.349609,-4.34961 a 1,1 0 0 0 -1.414063,0 z"
       id="path61" />
  </g>
</svg>
