<svg width="17" height="17" viewBox="0 0 17 17" fill="none" xmlns="http://www.w3.org/2000/svg">
<path d="M12.5 5.83331C13.6046 5.83331 14.5 4.93788 14.5 3.83331C14.5 2.72874 13.6046 1.83331 12.5 1.83331C11.3954 1.83331 10.5 2.72874 10.5 3.83331C10.5 4.93788 11.3954 5.83331 12.5 5.83331Z" stroke="white" stroke-linecap="round" stroke-linejoin="round"/>
<path d="M4.5 10.5C5.60457 10.5 6.5 9.60457 6.5 8.5C6.5 7.39543 5.60457 6.5 4.5 6.5C3.39543 6.5 2.5 7.39543 2.5 8.5C2.5 9.60457 3.39543 10.5 4.5 10.5Z" stroke="white" stroke-linecap="round" stroke-linejoin="round"/>
<path d="M12.5 15.1667C13.6046 15.1667 14.5 14.2713 14.5 13.1667C14.5 12.0621 13.6046 11.1667 12.5 11.1667C11.3954 11.1667 10.5 12.0621 10.5 13.1667C10.5 14.2713 11.3954 15.1667 12.5 15.1667Z" stroke="white" stroke-linecap="round" stroke-linejoin="round"/>
<path d="M6.22668 9.50665L10.78 12.16" stroke="white" stroke-linecap="round" stroke-linejoin="round"/>
<path d="M10.7734 4.84003L6.22668 7.49336" stroke="white" stroke-linecap="round" stroke-linejoin="round"/>
</svg>
