<svg width="41" height="40" viewBox="0 0 41 40" fill="none" xmlns="http://www.w3.org/2000/svg">
<path d="M40.0009 15.34C39.8746 14.9742 39.6449 14.6529 39.3396 14.415C39.0343 14.1772 38.6665 14.033 38.2809 14L26.9009 12.34L21.8009 2.00002C21.6372 1.66187 21.3815 1.3767 21.0631 1.17716C20.7448 0.977626 20.3766 0.871796 20.0009 0.871796C19.6252 0.871796 19.2571 0.977626 18.9388 1.17716C18.6204 1.3767 18.3647 1.66187 18.2009 2.00002L13.1009 12.32L1.72093 14C1.35078 14.0526 1.00278 14.2079 0.716432 14.4483C0.430084 14.6887 0.216851 15.0046 0.100931 15.36C-0.00517862 15.7074 -0.0147007 16.0771 0.0733869 16.4294C0.161475 16.7818 0.343847 17.1035 0.600931 17.36L8.86093 25.36L6.86093 36.72C6.78953 37.095 6.82692 37.4825 6.96867 37.8369C7.11043 38.1913 7.35064 38.4977 7.66093 38.72C7.96337 38.9362 8.32008 39.0639 8.69103 39.0886C9.06197 39.1133 9.43247 39.0342 9.76093 38.86L20.0009 33.52L30.2009 38.88C30.4816 39.0384 30.7986 39.1211 31.1209 39.12C31.5446 39.1215 31.9578 38.9885 32.3009 38.74C32.6112 38.5177 32.8514 38.2113 32.9932 37.8569C33.1349 37.5025 33.1723 37.115 33.1009 36.74L31.1009 25.38L39.3609 17.38C39.6497 17.1354 39.8631 16.8138 39.9764 16.4527C40.0897 16.0916 40.0982 15.7058 40.0009 15.34ZM27.7009 23.34C27.4664 23.5669 27.2909 23.8477 27.1898 24.158C27.0887 24.4682 27.0651 24.7985 27.1209 25.12L28.5609 33.5L21.0409 29.5C20.7516 29.3459 20.4288 29.2653 20.1009 29.2653C19.7731 29.2653 19.4503 29.3459 19.1609 29.5L11.6409 33.5L13.0809 25.12C13.1368 24.7985 13.1132 24.4682 13.0121 24.158C12.911 23.8477 12.7355 23.5669 12.5009 23.34L6.50093 17.34L14.9209 16.12C15.2449 16.0749 15.5529 15.9511 15.8179 15.7593C16.0829 15.5675 16.2968 15.3137 16.4409 15.02L20.0009 7.40002L23.7609 15.04C23.905 15.3337 24.1189 15.5875 24.3839 15.7793C24.6489 15.9711 24.9569 16.0949 25.2809 16.14L33.7009 17.36L27.7009 23.34Z" fill="#404040"/>
</svg>
