<svg width="41" height="40" viewBox="0 0 41 40" fill="none" xmlns="http://www.w3.org/2000/svg">
<path d="M40 16.2C40.2 15.2 39.4 14 38.4 14L27 12.4L21.8 2C21.6 1.6 21.4 1.4 21 1.2C20 0.599999 18.8 0.999999 18.2 2L13.2 12.4L1.8 14C1.2 14 0.8 14.2 0.6 14.6C-0.2 15.4 -0.2 16.6 0.6 17.4L8.8 25.4L6.8 36.8C6.8 37.2 6.8 37.6 7 38C7.6 39 8.8 39.4 9.8 38.8L20 33.4L30.2 38.8C30.4 39 30.8 39 31.2 39C31.4 39 31.4 39 31.6 39C32.6 38.8 33.4 37.8 33.2 36.6L31.2 25.2L39.4 17.2C39.8 17 40 16.6 40 16.2Z" fill="#FFCF34"/>
</svg>
