<svg version="1.2" baseProfile="tiny-ps" xmlns="http://www.w3.org/2000/svg" viewBox="0 0 316 364" width="26" height="30"><title>7266659_tiktok_social media_video_movie_icon-svg</title><style>tspan { white-space:pre }.shp0 { fill: #000000 } </style><path class="shp0" d="M167.53 0.71L229.53 0.71C229.53 0.71 226.09 80.36 315.64 85.95L315.64 147.52C315.64 147.52 267.85 150.52 229.53 121.26L230.2 248.38C230.2 294.86 202.2 336.76 159.27 354.54C116.33 372.33 66.9 362.5 34.04 329.64C1.18 296.78 -8.66 247.35 9.12 204.41C26.91 161.47 68.8 133.47 115.28 133.47L131.4 133.47L131.4 195.11L131.4 196.42C109.85 189.7 86.42 197.58 73.32 215.96C60.21 234.34 60.39 259.06 73.77 277.25C87.14 295.43 110.69 302.97 132.14 295.93C153.58 288.89 168.09 268.87 168.09 246.3L167.53 0.71Z" /></svg>