<svg version="1.2" baseProfile="tiny-ps" xmlns="http://www.w3.org/2000/svg" viewBox="0 0 24 24" width="24" height="24">
	<title>down-arrow-svg</title>
	<style>
		tspan { white-space:pre }
		.shp0 { fill: #ffffff } 
	</style>
	<path id="Layer" class="shp0" d="M7 14.83C7.19 15.02 7.44 15.12 7.71 15.12C7.97 15.12 8.22 15.02 8.41 14.83L12 11.29L15.54 14.83C15.73 15.02 15.98 15.12 16.25 15.12C16.51 15.12 16.76 15.02 16.95 14.83C17.04 14.74 17.12 14.63 17.17 14.5C17.22 14.38 17.25 14.25 17.25 14.12C17.25 13.99 17.22 13.86 17.17 13.74C17.12 13.61 17.04 13.5 16.95 13.41L12.71 9.17C12.62 9.08 12.51 9 12.38 8.95C12.26 8.9 12.13 8.87 12 8.87C11.87 8.87 11.74 8.9 11.62 8.95C11.49 9 11.38 9.08 11.29 9.17L7 13.41C6.91 13.5 6.83 13.61 6.78 13.74C6.73 13.86 6.7 13.99 6.7 14.12C6.7 14.25 6.73 14.38 6.78 14.5C6.83 14.63 6.91 14.74 7 14.83Z" />
</svg>