<svg width="24" height="24" viewBox="0 0 24 24" fill="none" xmlns="http://www.w3.org/2000/svg">
<path d="M5.95823 18.4468C7.52571 19.8828 9.507 20.7652 11.6304 20.9608C13.4612 21.1314 15.3297 20.7402 16.9473 19.8828C20.099 18.2179 22.0928 14.8131 21.9967 11.2627C21.9089 7.74147 19.7897 4.43665 16.5795 2.92991C14.9618 2.16822 13.1394 1.84772 11.3587 2.06832C9.5488 2.28892 7.87264 2.99234 6.45146 4.12864C3.48788 6.48864 2.23808 10.5552 3.30814 14.1722C3.46698 14.7091 3.68016 15.2335 3.92677 15.7372C3.92677 15.529 3.92677 15.3168 3.92677 15.1087C3.38756 16.1409 2.84835 17.169 2.30914 18.2012C2.22972 18.3511 2.15448 18.4967 2.07506 18.6466C1.82426 19.1294 2.23808 19.6996 2.78147 19.5623C3.88497 19.2834 4.99266 19.0045 6.09617 18.7257C6.25082 18.6882 6.40966 18.6466 6.56432 18.6091C6.89453 18.5259 7.09099 18.1596 7.00321 17.8391C6.91125 17.5061 6.56014 17.3188 6.22992 17.4021C5.12642 17.6809 4.01873 17.9598 2.91523 18.2387C2.76057 18.2761 2.60173 18.3178 2.44707 18.3552C2.68115 18.6591 2.91941 18.9671 3.15348 19.2709C3.64254 18.3552 4.12323 17.4354 4.60393 16.5113C4.7126 16.3074 4.8171 16.1034 4.92578 15.8995C4.95086 15.8537 4.97594 15.8038 5.00102 15.758C5.01774 15.7247 5.0261 15.708 5.04282 15.6664C5.15568 15.3875 5.03446 15.1669 4.91742 14.9172C4.43255 13.8808 4.17757 12.6696 4.17757 11.5C4.17757 11.2586 4.18593 11.013 4.20683 10.7716C4.21519 10.6551 4.22773 10.5427 4.24027 10.4261C4.24445 10.397 4.24863 10.3679 4.25281 10.3387C4.25281 10.347 4.24027 10.4386 4.24863 10.3637C4.25699 10.2971 4.26953 10.2305 4.27789 10.1681C4.35731 9.69773 4.47853 9.23156 4.63318 8.77787C4.6708 8.67382 4.70842 8.56976 4.74604 8.46571C4.76694 8.41576 4.78784 8.36165 4.80874 8.3117C4.83382 8.24511 4.80456 8.32419 4.80038 8.33251C4.81292 8.29922 4.82964 8.26592 4.84636 8.23262C4.93832 8.02451 5.04282 7.81639 5.1515 7.61244C5.36885 7.20871 5.61965 6.82578 5.89553 6.46366C5.93733 6.40539 5.88717 6.47199 5.88299 6.48031C5.89971 6.4595 5.91643 6.43869 5.93315 6.41788C5.96659 6.37625 6.00003 6.33463 6.03765 6.28885C6.11288 6.19728 6.1923 6.10987 6.27172 6.0183C6.4222 5.84765 6.58104 5.68532 6.74824 5.52716C6.91961 5.36483 7.09935 5.20666 7.28327 5.05682C7.32507 5.02352 7.36687 4.99022 7.41285 4.95276C7.46719 4.90698 7.40031 4.96109 7.39613 4.96525C7.41703 4.9486 7.43793 4.93195 7.46301 4.9153C7.55914 4.84455 7.65528 4.77379 7.75142 4.70719C8.1318 4.44913 8.52889 4.22021 8.94271 4.02042C9.04303 3.97463 9.14334 3.92885 9.24366 3.88307C9.35234 3.83312 9.18514 3.90388 9.298 3.86225C9.35652 3.83728 9.41922 3.81647 9.47774 3.7915C9.6951 3.70825 9.91663 3.63333 10.1424 3.5709C10.3681 3.5043 10.598 3.45019 10.8279 3.40024C10.9491 3.37527 11.0703 3.35446 11.1915 3.33365C11.25 3.32532 11.3044 3.317 11.3629 3.30867C11.2459 3.32532 11.4131 3.30451 11.4549 3.29619C11.9397 3.24208 12.4288 3.22543 12.9137 3.2504C13.1561 3.26289 13.3943 3.2837 13.6368 3.31284C13.5281 3.30035 13.6577 3.317 13.6953 3.32116C13.7538 3.32949 13.8082 3.33781 13.8625 3.3503C13.9837 3.37111 14.1049 3.39608 14.2262 3.42106C14.6818 3.52095 15.1332 3.6583 15.5679 3.82896C15.593 3.83728 15.7268 3.89139 15.6724 3.87058C15.6181 3.84977 15.7518 3.90388 15.7769 3.91636C15.894 3.97047 16.011 4.02458 16.128 4.08285C16.3328 4.18691 16.5335 4.29513 16.7341 4.41167C16.9306 4.52821 17.1229 4.65308 17.311 4.78627C17.3569 4.81957 17.3987 4.84871 17.4447 4.88201C17.4656 4.89865 17.5785 4.9819 17.5325 4.9486C17.4865 4.9153 17.5994 5.00271 17.6203 5.01936C17.6704 5.06098 17.7206 5.09844 17.7666 5.14007C18.1135 5.43142 18.4437 5.75192 18.7405 6.09322C18.8116 6.17647 18.8826 6.25971 18.9537 6.34296C18.9871 6.38458 19.0206 6.4262 19.0582 6.47199C18.9871 6.38458 19.0874 6.51361 19.1083 6.54274C19.2463 6.72588 19.3717 6.91318 19.4929 7.10881C19.6183 7.3086 19.7395 7.51671 19.8482 7.72899C19.8983 7.82888 19.9485 7.92461 19.9945 8.02451C20.0196 8.07445 20.0405 8.1244 20.0655 8.17435C20.0781 8.19932 20.0864 8.2243 20.099 8.24927C20.1032 8.26176 20.1491 8.36581 20.1199 8.30338C20.099 8.24927 20.1533 8.38662 20.1617 8.40743C20.1826 8.45738 20.2035 8.51149 20.2202 8.56144C20.262 8.67382 20.3038 8.79036 20.3414 8.90274C20.4125 9.12334 20.4794 9.3481 20.5337 9.57703C20.588 9.80595 20.634 10.039 20.6716 10.2721C20.6758 10.3096 20.6967 10.4428 20.68 10.3304C20.6883 10.3887 20.6925 10.4428 20.7009 10.501C20.7134 10.6259 20.726 10.7508 20.7343 10.8756C20.7678 11.371 20.7594 11.8663 20.7134 12.3616C20.7092 12.4198 20.7009 12.474 20.6967 12.5322C20.6925 12.5738 20.6716 12.7029 20.6883 12.5947C20.6716 12.7154 20.6507 12.8402 20.6298 12.9609C20.588 13.194 20.5337 13.4229 20.471 13.6477C20.4083 13.8725 20.3414 14.0931 20.262 14.3137C20.2244 14.4177 20.1826 14.5218 20.145 14.6258C20.1366 14.6508 20.1241 14.6758 20.1115 14.7049C20.1157 14.6966 20.1491 14.6175 20.1199 14.6841C20.0948 14.7424 20.0697 14.8007 20.0405 14.8589C19.8482 15.2752 19.6266 15.6789 19.3717 16.0577C19.3131 16.1492 19.2504 16.2408 19.1836 16.3282C19.1501 16.374 19.1209 16.4156 19.0874 16.4614C19.0707 16.4822 19.054 16.503 19.0373 16.528C18.9788 16.6029 19.0958 16.4572 19.0331 16.5321C18.8868 16.7195 18.7321 16.8984 18.5691 17.0732C18.2598 17.4062 17.9254 17.7142 17.5659 18.0014C17.545 18.0181 17.5241 18.0347 17.5032 18.0514C17.5116 18.0472 17.5785 17.9931 17.52 18.0389C17.474 18.0722 17.4322 18.1055 17.3862 18.1346C17.2901 18.2054 17.1939 18.272 17.0936 18.3386C16.9013 18.4676 16.709 18.5841 16.5084 18.6965C16.3078 18.8089 16.103 18.913 15.894 19.0087C15.8438 19.0337 15.7936 19.0545 15.7435 19.0753C15.71 19.0919 15.5888 19.1377 15.6891 19.1003C15.5763 19.146 15.4634 19.1877 15.3506 19.2293C14.8991 19.3916 14.4352 19.5206 13.967 19.6081C13.8541 19.6289 13.7413 19.6455 13.6284 19.6663C13.5072 19.6871 13.6911 19.6622 13.5657 19.6747C13.4988 19.683 13.432 19.6913 13.3651 19.6955C13.1227 19.7204 12.8802 19.7329 12.6378 19.7371C12.3577 19.7412 12.0777 19.7371 11.8018 19.7163C11.6638 19.7079 11.5259 19.6913 11.3922 19.6788C11.3169 19.6705 11.3754 19.6788 11.388 19.6788C11.3545 19.6747 11.3211 19.6705 11.2877 19.6622C11.2082 19.6497 11.133 19.6372 11.0536 19.6247C9.92081 19.4249 8.99287 19.067 8.03566 18.4676C7.81412 18.3302 7.60094 18.1804 7.39195 18.0222C7.33343 17.9806 7.37941 18.0098 7.39195 18.0222C7.36687 18.0014 7.34179 17.9806 7.31671 17.9598C7.26655 17.9182 7.21639 17.8766 7.16623 17.8349C7.05755 17.7434 6.95305 17.6518 6.84856 17.5561C6.59776 17.3271 6.20902 17.3105 5.96241 17.5561C5.72833 17.7975 5.70743 18.2179 5.95823 18.4468Z" fill="white" stroke="white" stroke-width="0.2"/>
<path d="M16.1293 15.891C16.4175 15.6885 16.6601 15.4277 16.8413 15.1256V15.0841C16.9648 14.7385 16.9981 14.3672 16.9381 14.0052C16.8689 13.8946 16.7168 13.8393 16.4678 13.7148C16.2189 13.5903 14.9879 12.9955 14.7666 12.9125C14.5453 12.8296 14.3793 12.7881 14.2133 13.037C14.0473 13.286 13.5632 13.8946 13.4249 14.0052C13.2866 14.1159 13.1345 14.1297 12.8855 14.0052C12.1564 13.7111 11.4829 13.2948 10.8938 12.7742C10.3528 12.2719 9.88695 11.6943 9.51062 11.0591C9.37231 10.8102 9.51062 10.6719 9.62127 10.5612C9.73192 10.4506 9.87024 10.2707 9.99472 10.1186C10.0986 9.99392 10.1825 9.85396 10.2437 9.70366C10.2777 9.6373 10.2954 9.56382 10.2954 9.48927C10.2954 9.41472 10.2777 9.34124 10.2437 9.27488C10.1745 9.1504 9.66276 7.86408 9.46912 7.4353C9.27548 7.00653 9.06801 7.00653 8.91587 7.00653H8.52859C8.4028 7.00798 8.27871 7.03581 8.16434 7.08822C8.04998 7.14064 7.94789 7.21647 7.86468 7.31082C7.58217 7.57628 7.35861 7.89815 7.2085 8.25557C7.05838 8.61299 6.98506 8.99796 6.9933 9.38553C7.07378 10.3185 7.42468 11.2078 8.00299 11.9443C9.06724 13.5341 10.5255 14.8208 12.2354 15.6788C12.6855 15.8816 13.1474 16.0571 13.6186 16.2044C14.1193 16.3624 14.6511 16.3957 15.1677 16.3012C15.5134 16.2333 15.841 16.0936 16.1293 15.891Z" fill="white"/>
</svg>
