<svg width="57" height="57" viewBox="0 0 57 57" fill="none" xmlns="http://www.w3.org/2000/svg">
<circle cx="28.5" cy="28.5" r="28" fill="black" stroke="white"/>
<path fill-rule="evenodd" clip-rule="evenodd" d="M28.6996 34.284C29.3838 35.8765 29.9191 37.2648 30.6395 38.5984C31.3229 39.865 32.2186 41.0418 32.787 42.4118C32.7302 42.5463 32.7081 42.6201 32.6315 42.7872C32.5876 42.8827 32.5453 43.0643 32.4759 43.1626C32.4523 43.1965 32.3029 43.1859 32.2924 43.224C32.2791 43.2689 32.214 43.4466 32.1877 43.4741C32.1615 43.5017 32.0146 43.5003 32.0042 43.5356C31.9332 43.7787 30.8439 44.6514 30.3119 44.7502C30.2337 44.7648 30.1147 44.8522 30.036 44.8425C29.9753 44.8354 29.9167 44.6977 29.8631 44.6839C29.5544 44.6097 28.9725 44.4523 28.6206 44.2367C28.5807 44.2125 28.5821 44.0633 28.5405 44.0484C28.4184 44.0027 28.3862 44.0062 28.2752 43.9207C28.1125 43.7962 28.0378 43.6898 27.9299 43.6047C27.7982 43.5001 27.6297 43.4945 27.5331 43.4128C27.411 43.3108 27.403 43.1763 27.2801 43.0659C26.8872 42.711 26.4785 42.3917 26.0735 41.9586C26.0455 41.929 26.0279 41.7818 25.9935 41.7703C25.6389 41.6378 24.9731 40.7435 24.6666 40.3799C22.0455 37.2793 19.9534 33.7548 18.2128 29.1614C17.8259 28.142 17.4879 27.1322 17.2037 26.0467C16.8563 24.7167 16.5533 23.0875 16.2651 21.6121C16.257 21.57 16.3137 21.4948 16.2768 21.3916C16.2109 21.2102 16.2431 20.9814 16.2204 20.7624C16.1761 20.3341 16.0714 19.9059 16.0664 19.411C16.0659 19.3635 16.1553 19.3885 16.1185 19.2853C16.0968 19.2276 16.0984 18.6988 16.1134 18.5321C16.1372 18.2672 16.145 17.9644 16.3333 17.8119C17.2781 16.9832 19.1581 16.7393 19.97 17.4576C20.2173 17.8209 20.1806 18.2243 20.2684 18.6525C20.3737 19.1715 20.4764 19.6149 20.5947 20.1613C20.6947 20.6215 20.8389 21.4306 20.9899 22.0801C21.1842 22.9143 21.5352 23.8822 21.666 24.6597C21.6928 24.8153 21.8151 24.9807 21.8669 25.1323C21.9981 25.517 22.2393 26.0743 22.4171 26.6744C22.4457 26.7716 22.4006 26.8806 22.4053 26.8949C23.6603 30.3762 25.3584 33.6487 27.0831 36.6596C27.1653 36.3896 26.9434 36.0929 26.8542 35.8731C25.2787 32.0054 24.3643 28.1704 24.0137 24.7384C23.8357 22.9894 23.8698 21.2199 24.0192 19.5562C24.0315 19.4164 23.9881 19.4468 24.031 19.3358C24.0625 19.2545 24.0939 18.746 24.1182 18.5516C24.1297 18.4627 24.0732 18.343 24.0903 18.2377C24.0969 18.1936 24.2334 18.1176 24.2347 18.0811C24.2398 17.6132 24.3921 16.992 24.5011 16.4807C24.5447 16.2755 24.5242 16.1049 24.576 15.9158C24.6032 15.8143 24.7448 15.7337 24.7713 15.6339C24.8229 15.4376 24.8436 15.0626 24.951 14.8188C25.0439 14.6073 25.2329 14.443 25.3421 14.2563C25.3614 14.2224 25.3327 14.0589 25.3544 14.0371C25.6852 13.7099 26.093 13.1173 26.4658 12.6937C27.189 12.492 27.5977 12.3812 27.9908 12.0749C28.2829 11.8487 28.6938 11.7198 29.2803 11.6433C30.3789 11.5007 31.2121 11.7761 32.092 12.3201C33.4571 13.1651 34.6443 14.647 35.4578 17.0204C35.9554 18.4719 36.0821 20.0042 36.1726 21.4216C36.2986 23.4219 36.0576 25.3833 35.5913 27.2282C35.2946 28.3999 34.8678 29.5734 34.3216 30.6743C34.2532 30.8112 34.1084 31.3807 33.9187 31.4572C33.8439 31.4866 33.6561 31.7761 33.5784 31.8944C33.5224 31.981 33.4019 32.1181 33.4229 32.2698C32.9165 32.5678 32.5216 33.224 31.9029 33.6418C30.9518 34.2835 29.8076 34.577 28.6996 34.284ZM29.3583 32.1206C29.4228 32.0341 29.5224 32.0267 29.5939 31.9335C29.8981 31.5372 30.0377 31.1773 30.2447 30.7443C30.4987 30.2132 30.693 29.7339 30.8675 29.241C30.9538 28.9971 31.1063 28.7339 31.1798 28.4899C31.2204 28.3536 31.1571 28.2146 31.2027 28.0506C31.2384 27.9261 31.3296 27.7931 31.3583 27.6752C31.4225 27.4127 31.4869 27.1241 31.5379 26.8602C31.5846 26.6194 31.7332 26.102 31.6772 25.9504C31.6207 25.7976 31.846 25.1231 31.8166 25.0406C31.7416 24.8377 31.9415 23.8686 31.8877 23.7221C31.8485 23.6168 31.9382 23.6489 31.9397 23.5964C31.947 23.3818 31.8544 23.1111 31.8435 22.8737C31.8429 22.8624 31.9293 22.8537 31.9359 22.8428C31.9526 22.8127 31.8563 22.6919 31.8553 22.6533C31.8465 22.3646 31.794 21.6057 31.8743 21.4604C31.891 21.4303 31.7947 21.3095 31.7937 21.2709C31.7772 20.7323 31.7093 20.2022 31.6118 19.6055C31.3043 17.744 30.4804 15.1113 28.9545 14.3447C28.8929 14.3653 28.8313 14.3859 28.7697 14.4065C28.5672 14.6548 28.3757 14.7968 28.1939 15.0309C27.8723 15.446 27.6908 15.843 27.4905 16.3446C27.1536 17.1935 26.9761 18.1954 26.8492 19.0419C26.8081 19.3126 26.7926 19.5574 26.7619 19.826C26.7432 19.9939 26.6632 20.1333 26.6467 20.2962C26.6313 20.4485 26.6782 20.6782 26.6641 20.8302C26.5757 21.7474 26.5579 22.7378 26.6037 23.6563C26.7452 26.4972 27.1383 29.4502 28.2045 32.6166C28.2766 32.8291 28.1269 33.1189 28.4452 33.1826C28.7525 32.8301 29.1643 32.379 29.3583 32.1206Z" fill="white"/>
</svg>
