<svg width="84" height="44" viewBox="0 0 84 44" fill="none" xmlns="http://www.w3.org/2000/svg">
<path fill-rule="evenodd" clip-rule="evenodd" d="M51.944 23.0483C52.8535 22.9773 51.3603 28.4658 47.3518 28.7773C44.2852 29.0146 43.5023 25.3309 44.2203 22.3784C44.9414 19.4001 49.1615 3.56263 49.9289 0.686026C50 0.416445 50.2254 0.224349 50.4941 0.203364L52.4644 0.0500094C54.0471 -0.0742883 55.3349 1.26716 54.7389 3.41896C53.8896 6.47636 50.2053 20.2653 50.0108 21.1742C49.7004 22.6351 50.4014 23.376 50.9944 23.3308C51.3901 23.3007 51.5689 23.2062 51.7048 23.1345C51.7874 23.0909 51.8541 23.0556 51.944 23.0483ZM35.7664 24.3039C32.5306 24.2051 35.9826 14.8395 39.3678 15.1817C41.818 15.4305 38.6032 24.3936 35.7664 24.3039ZM37.9375 10.0324C41.2273 9.58574 43.3477 11.2871 43.6096 14.8166C44.0481 20.719 40.5977 28.6569 35.4589 29.0408C32.5337 29.2593 29.9893 27.2158 29.6792 23.0372C29.2728 17.5911 32.757 10.7312 37.9375 10.0324ZM63.0929 13.6438C65.9262 13.4966 63.7276 18.2797 60.2731 17.7505C60.8726 15.6075 61.9115 13.7051 63.0929 13.6438ZM58.7737 29.0418C61.3678 28.849 65.5795 26.4969 66.5686 21.2414C66.7749 20.1339 65.5621 19.643 65.0969 20.5944C64.0888 22.666 62.6695 23.5711 61.536 23.654C60.2025 23.7544 59.6675 22.5497 59.7961 20.8844C59.8199 20.588 59.8548 20.2821 59.8993 19.9745C62.8601 20.3315 66.1145 18.9244 67.3607 14.8289C68.0545 12.5454 66.6067 9.71367 63.0458 9.97979C58.6261 10.3097 55.5256 13.8505 54.0428 18.9594C52.5601 24.0683 54.3349 29.3748 58.7737 29.0418ZM69.4217 29.0459L70.936 28.9862C71.2544 28.9719 71.5293 28.7581 71.6264 28.4501C72.1187 26.8561 73.6589 21.8766 74.8126 18.1627C74.8557 18.0541 74.8977 17.9326 74.94 17.7983C75.5837 15.6922 76.9742 14.1077 77.6408 14.0802C78.3073 14.0543 78.3958 14.9135 77.9563 16.3449C77.2737 18.5774 76.5729 20.8811 76.1885 22.2203C75.3605 25.112 76.0306 28.782 79.1617 28.6566C83.2509 28.4934 84.538 23.1425 83.6083 23.1798C83.5156 23.1826 83.4463 23.2149 83.3597 23.2552C83.2196 23.3204 83.0344 23.4067 82.6321 23.423C82.027 23.4479 81.3386 22.6904 81.7042 21.2564C81.8078 20.85 82.1219 19.8407 82.5155 18.5762L82.5158 18.5752L82.5159 18.5749C82.7722 17.7516 83.0621 16.8202 83.3495 15.8766C84.2596 12.8856 83.3783 10.0961 80.1621 10.2248C78.32 10.2968 77.1656 11.1502 76.3021 12.3717C76.1238 11.1516 75.1305 10.4264 73.9455 10.4738L72.3571 10.5373C72.083 10.5467 71.8469 10.7316 71.7654 10.9954L71.7362 11.0899L71.7358 11.0913C70.9421 13.6562 67.5565 24.5981 67.2195 25.6346C66.5412 27.7395 67.805 29.1099 69.4217 29.0459ZM80.0983 35.9307L80.0999 35.9312C80.6139 36.074 81.1277 36.2168 81.6414 36.3568C81.9785 36.4491 82.3983 37.3298 82.349 37.7947C82.3092 38.1881 81.6573 38.755 81.2551 38.8075C80.7563 38.8715 80.2489 38.7693 79.7417 38.6672C79.5293 38.6244 79.317 38.5817 79.1054 38.5511C77.9848 38.3895 76.8733 38.1514 75.7619 37.9133C74.7822 37.7034 73.8025 37.4935 72.8169 37.3361C66.8369 36.3791 60.8252 35.8217 54.7593 36.2071C54.0952 36.2492 53.4661 36.2887 52.8668 36.3263L52.8284 36.3287L52.8271 36.3288L52.8269 36.3288L52.8266 36.3288C47.036 36.6922 44.0225 36.8813 39.0422 37.5654C31.8554 38.5511 24.7465 40.3633 17.7473 42.9797C16.2686 43.5339 15.1413 42.8507 14.863 41.2742C14.6325 39.9668 15.4259 38.5496 16.8553 38.1706C17.8962 37.8934 18.9368 37.611 19.9777 37.3286C24.0741 36.2171 28.1734 35.1047 32.299 34.3073C36.9704 33.4028 41.6911 32.898 46.3959 32.5604C50.1896 32.2881 54.0041 32.3391 57.7851 32.5859C62.6711 32.9044 67.554 33.4156 72.4019 34.1306C74.9936 34.5122 77.549 35.2223 80.0983 35.9307ZM27.7785 19.0519C27.4503 23.1238 25.9242 26.3253 23.1988 28.6564C20.4734 30.9875 16.7503 31.9247 12.0281 31.468C11.0929 33.9073 10.3467 36.1652 9.78785 38.2433C9.229 40.3214 9.1137 42.0208 9.44197 43.3415C6.57723 43.655 4.77416 43.1013 4.03436 41.6851C3.55396 40.7654 3.40664 39.6802 3.58919 38.4231C3.65324 37.7214 3.8454 36.9449 4.16406 36.0984C4.30177 35.7165 4.52436 35.1278 4.83501 34.3226L11.3844 16.0271C11.4113 15.9445 11.4385 15.8618 11.4657 15.7789C11.5193 15.6157 11.5731 15.4518 11.6262 15.2872C13.7879 15.7422 15.1106 16.5951 15.5974 17.8442C16.0826 19.0933 15.9913 20.4585 15.3236 21.9352C15.1426 22.4157 14.9585 22.9567 14.7775 23.5566C14.4749 24.5065 14.097 25.5647 13.6486 26.7279C13.6134 26.7995 13.5878 26.8599 13.5749 26.9077C13.5749 26.957 13.607 26.9872 13.6678 26.9984C16.0666 27.1909 17.9657 26.6722 19.3637 25.4406C19.4613 25.3451 19.5574 25.2449 19.6471 25.1446C21.0835 23.5614 21.9674 21.496 22.2845 18.9946C22.2957 18.8769 22.3053 18.7576 22.3149 18.6383V18.6382C22.0987 15.7184 20.7376 13.7723 18.2363 12.7985C15.639 11.8136 13.2547 12.0459 11.0817 13.4939C8.90713 14.9403 7.1537 16.8688 5.81821 19.2763C4.48272 21.6854 3.77334 23.8398 3.68687 25.7365C2.32896 25.1733 1.26089 23.9162 0.482656 21.9718C0.0326891 20.4585 -0.103422 18.9994 0.0775257 17.5912C0.288898 15.1153 1.57155 12.8272 3.94949 10.66L3.9639 10.6441C4.04446 10.5685 4.12501 10.4942 4.20687 10.4188L4.22491 10.4022C7.99439 6.96681 12.2763 5.45995 17.0722 5.88002C20.4221 6.31123 23.1075 7.78468 25.13 10.2956C27.1508 12.8049 28.0331 15.7247 27.7785 19.0519Z" fill="url(#paint0_linear)"/>
<defs>
<linearGradient id="paint0_linear" x1="87" y1="2.50006" x2="5" y2="43.0001" gradientUnits="userSpaceOnUse">
<stop stop-color="#B620E0"/>
<stop offset="1" stop-color="#D7198B"/>
</linearGradient>
</defs>
</svg>
