<svg width="84" height="44" viewBox="0 0 84 44" fill="none" xmlns="http://www.w3.org/2000/svg">
<path fill-rule="evenodd" clip-rule="evenodd" d="M63.0927 13.6438C65.926 13.4965 63.7275 18.2797 60.273 17.7505C60.8725 15.6075 61.9114 13.705 63.0927 13.6438ZM58.7736 29.0417C61.3676 28.8489 65.5794 26.4968 66.5684 21.2413C66.7748 20.1338 65.5619 19.643 65.0968 20.5943C64.0887 22.6659 62.6694 23.5711 61.5359 23.6539C60.2024 23.7543 59.6674 22.5496 59.796 20.8844C59.8198 20.588 59.8547 20.282 59.8992 19.9744C62.8599 20.3314 66.1144 18.9243 67.3606 14.8289C68.0544 12.5453 66.6065 9.7136 63.0457 9.97973C58.6259 10.3096 55.5255 13.8504 54.0427 18.9594C52.5599 24.0683 54.3348 29.3748 58.7736 29.0417Z" fill="#FEFEFE"/>
<mask id="mask0" mask-type="alpha" maskUnits="userSpaceOnUse" x="66" y="9" width="19" height="21">
<path d="M67.6096 9.76477L84.3556 10.3629L83.7002 29.5597L66.9542 28.9616L67.6096 9.76477Z" fill="white"/>
</mask>
<g mask="url(#mask0)">
<path fill-rule="evenodd" clip-rule="evenodd" d="M69.4216 29.0458L70.9359 28.9861C71.2543 28.9718 71.5291 28.758 71.6263 28.45C72.1186 26.856 73.6588 21.8765 74.8125 18.1627C74.8556 18.054 74.8975 17.9325 74.9399 17.7983C75.5836 15.6921 76.9741 14.1076 77.6407 14.0802C78.3072 14.0543 78.3957 14.9135 77.9562 16.3449C77.2736 18.5774 76.5728 20.8811 76.1884 22.2202C75.3604 25.1119 76.0305 28.7819 79.1616 28.6566C83.2508 28.4934 84.5379 23.1424 83.6082 23.1797C83.3656 23.1871 83.2828 23.3965 82.632 23.423C82.0269 23.4478 81.3385 22.6903 81.7041 21.2563C81.8751 20.5852 82.6203 18.2703 83.3494 15.8765C84.2595 12.8855 83.3782 10.096 80.162 10.2247C78.3199 10.2967 77.1654 11.1502 76.302 12.3717C76.1237 11.1516 75.1304 10.4264 73.9454 10.4738L72.357 10.5372C72.0829 10.5467 71.8468 10.7316 71.7653 10.9954C71.0306 13.3698 67.5607 24.5846 67.2194 25.6345C66.5411 27.7394 67.8048 29.1098 69.4216 29.0458Z" fill="#FEFEFE"/>
</g>
<path fill-rule="evenodd" clip-rule="evenodd" d="M35.7663 24.3039C32.5305 24.2051 35.9825 14.8395 39.3677 15.1816C41.8179 15.4304 38.6031 24.3935 35.7663 24.3039ZM43.6095 14.8165C43.3476 11.287 41.2273 9.58568 37.9374 10.0323C32.7569 10.7311 29.2727 17.591 29.6791 23.0372C29.9892 27.2158 32.5336 29.2593 35.4588 29.0408C40.5976 28.6568 44.048 20.7189 43.6095 14.8165Z" fill="#FEFEFE"/>
<mask id="mask1" mask-type="alpha" maskUnits="userSpaceOnUse" x="43" y="0" width="12" height="29">
<path d="M43.9727 0.0419922H54.8874V28.7881H43.9727V0.0419922Z" fill="white"/>
</mask>
<g mask="url(#mask1)">
<path fill-rule="evenodd" clip-rule="evenodd" d="M47.3519 28.7772C51.3605 28.4656 52.8536 22.9772 51.9441 23.0482C51.7063 23.0676 51.6307 23.2823 50.9945 23.3307C50.4016 23.3759 49.7005 22.6349 50.0109 21.174C50.2055 20.2652 53.8897 6.47624 54.739 3.41884C55.335 1.26704 54.0472 -0.0744104 52.4645 0.0498873L50.4942 0.203242C50.2255 0.224227 50.0001 0.416323 49.9291 0.685904C49.1616 3.56251 44.9416 19.4 44.2205 22.3783C43.5024 25.3307 44.2853 29.0145 47.3519 28.7772Z" fill="#FEFEFE"/>
</g>
<path fill-rule="evenodd" clip-rule="evenodd" d="M81.6414 36.3567C78.579 35.5223 75.5167 34.5891 72.4019 34.1305C67.554 33.4155 62.6711 32.9043 57.785 32.5858C54.004 32.339 50.1896 32.2881 46.3959 32.5604C41.6911 32.898 36.9703 33.4028 32.2989 34.3073C27.1251 35.3073 21.9925 36.8026 16.8553 38.1705C15.4258 38.5495 14.6324 39.9668 14.863 41.2741C15.1412 42.8506 16.2685 43.5338 17.7472 42.9796C24.7464 40.3633 31.8553 38.5511 39.0421 37.5654C44.5483 36.809 47.6504 36.6577 54.7593 36.207C60.8251 35.8217 66.8369 36.379 72.8169 37.3361C74.9205 37.6721 76.997 38.2469 79.1053 38.5511C79.8224 38.6546 80.5475 38.8982 81.255 38.8075C81.6573 38.7549 82.3092 38.188 82.3489 37.7947C82.3982 37.3297 81.9785 36.4491 81.6414 36.3567Z" fill="#FEFEFE"/>
<path fill-rule="evenodd" clip-rule="evenodd" d="M23.1988 28.6564C25.9242 26.3253 27.4503 23.1238 27.7785 19.0519C28.0331 15.7247 27.1508 12.8049 25.13 10.2956C23.1075 7.78468 20.4221 6.31123 17.0722 5.88002C12.2763 5.45995 7.99439 6.96681 4.22491 10.4022C4.13684 10.4833 4.05037 10.5629 3.9639 10.6441L3.94949 10.66C1.57155 12.8272 0.288898 15.1153 0.0775257 17.5912C-0.103422 18.9994 0.0326891 20.4585 0.482656 21.9718C1.26089 23.9162 2.32896 25.1733 3.68687 25.7365C3.77334 23.8398 4.48272 21.6854 5.81821 19.2763C7.1537 16.8688 8.90713 14.9403 11.0817 13.4939C13.2547 12.0459 15.639 11.8136 18.2363 12.7985C20.7376 13.7723 22.0987 15.7184 22.3149 18.6382C22.3053 18.7576 22.2957 18.8769 22.2845 18.9946C21.9674 21.496 21.0835 23.5614 19.6471 25.1446C19.5574 25.2449 19.4613 25.3451 19.3637 25.4406C17.9657 26.6722 16.0666 27.1909 13.6678 26.9984C13.607 26.9872 13.5749 26.957 13.5749 26.9077C13.5878 26.8599 13.6134 26.7995 13.6486 26.7279C14.097 25.5647 14.4749 24.5065 14.7775 23.5566C14.9585 22.9567 15.1426 22.4157 15.3236 21.9352C15.9913 20.4585 16.0826 19.0933 15.5974 17.8442C15.1106 16.5951 13.7879 15.7422 11.6262 15.2872C11.5461 15.5354 11.4644 15.782 11.3844 16.0271L4.83501 34.3226C4.52436 35.1278 4.30177 35.7165 4.16406 36.0984C3.8454 36.9449 3.65324 37.7214 3.58919 38.4231C3.40664 39.6802 3.55396 40.7654 4.03436 41.6851C4.77416 43.1013 6.57723 43.655 9.44197 43.3415C9.1137 42.0208 9.229 40.3214 9.78785 38.2433C10.3467 36.1652 11.0929 33.9073 12.0281 31.468C16.7503 31.9247 20.4734 30.9875 23.1988 28.6564Z" fill="#FEFEFE"/>
</svg>
